<?xml version="1.0" encoding="utf-8" ?><svg xmlns="http://www.w3.org/2000/svg" xmlns:xlink="http://www.w3.org/1999/xlink" width="103" height="100" viewBox="0 0 103 100"><clipPath id="cl_4"><rect x="-0.00058746338" y="-1.9073486e-05" width="103.40633" height="100"/></clipPath><g clip-path="url(#cl_4)"><path fill="#0F0E0E" fill-opacity="0.72549021" transform="matrix(0.243309 0 0 0.243309 -123.602 -33.5767)" d="M299.817 214.476C331.134 213.876 363.87 214.565 395.386 214.429C400.054 225.504 405.003 239.616 409.36 251.1L437.796 326.415L507.118 510.255C479.993 510.665 451.528 510.5 424.365 510.34L409.431 465.465L398.788 465.547L286.503 465.592C281.392 479.016 275.978 496.432 271.437 510.176L188.36 510.196C226.846 412.938 261.493 311.924 299.817 214.476ZM306.339 401.174L348.42 401.173L389.251 401.192L347.621 280.959L306.339 401.174Z"/><path fill="#0F0E0E" fill-opacity="0.72549021" transform="matrix(0.243309 0 0 0.243309 -123.602 -33.5767)" d="M605.273 198.674C606.375 200.417 604.219 205.831 603.765 208.316C602.668 214.317 601.868 220.205 601.32 226.293C599.804 242.688 601.43 259.222 606.109 275.008C635.567 374.653 780.096 440.264 876.816 411.414C872.937 431.11 864.252 442.425 846.546 451.398C817.83 463.895 779.513 458.103 749.839 449.55C684.011 430.527 621.88 393.042 587.252 332.168C563.604 290.595 556.721 225.437 605.273 198.674Z"/><path fill="#0F0E0E" fill-opacity="0.72549021" transform="matrix(0.243309 0 0 0.243309 -123.602 -33.5767)" d="M542.56 264.024C543.149 265.847 543.258 282.264 543.63 286.142C549.476 347.046 580.767 391.846 626.786 429.236C695.15 484.782 750.827 492.303 834.288 483.991C824.823 494.564 819.663 499.08 807.428 506.306C741.262 543.951 635.193 496.95 584.67 448.074C541.671 406.476 512.499 349.533 530.03 288.744C533.043 278.297 534.946 272.078 542.56 264.024Z"/><path fill="#0F0E0E" fill-opacity="0.72549021" transform="matrix(0.243309 0 0 0.243309 -123.602 -33.5767)" d="M659.23 177.572C659.491 177.997 655.989 197.284 655.799 200.473C654.956 214.393 657.337 228.32 662.756 241.17C678.96 280.454 736.905 319.261 775.874 334.954C812.693 349.781 845.272 358.043 882.895 342.614C886.568 364.818 881.72 375.769 860.476 384.413C819.747 395.037 764.897 376.386 728.582 356.196C685.829 332.427 641.992 291.102 627.808 243.256C623.643 229.206 622.404 210.601 630.081 197.605C636.804 186.224 647.032 180.928 659.23 177.572Z"/><path fill="#0F0E0E" fill-opacity="0.72549021" transform="matrix(0.243309 0 0 0.243309 -123.602 -33.5767)" d="M715.289 172.501C742.008 170.512 768.45 183.016 789.74 198.011C758.482 192.155 749.976 180.768 717.596 193.626C710.538 245.164 783.794 276.805 824.456 285.902C833.96 288.028 843.359 287.756 853.02 286.935C872.198 285.033 875.94 287.096 873.194 306.595C865.708 310.884 857.495 313.752 848.967 315.057C812.467 320.518 770.167 299.974 741.208 278.52C718.094 260.801 689.492 235.41 683.847 205.632C679.743 183.984 697.221 175.068 715.289 172.501Z"/><path fill="#011805" fill-opacity="0.95686275" transform="matrix(0.243309 0 0 0.243309 -123.602 -33.5767)" d="M871.177 146.879C874.368 148.58 894.426 169.308 898.436 173.365C889.639 180.347 877.636 191.778 869.018 199.507L812.856 249.643L807.339 254.652C801.825 249.585 795.325 242.97 790.226 237.571L871.177 146.879Z"/><path fill="#0F0E0E" fill-opacity="0.72549021" transform="matrix(0.243309 0 0 0.243309 -123.602 -33.5767)" d="M517.691 389.165C518.531 390.411 522.265 404.375 523.801 407.73C546.007 456.204 590.59 498.727 637.99 522.403C656.135 531.466 677.514 534.45 695.538 542.194C695.26 542.227 694.983 542.255 694.705 542.279C682.446 543.336 664.741 540.89 652.904 537.709C586.212 519.789 523.675 459.656 517.691 389.165Z"/></g></svg>