<?xml version="1.0" encoding="utf-8" ?><svg xmlns="http://www.w3.org/2000/svg" xmlns:xlink="http://www.w3.org/1999/xlink" width="77" height="100" viewBox="0 0 77 100"><path fill="#02081B" fill-opacity="0.89019608" transform="scale(0.0750059 0.0750188)" d="M280.218 208.889C294.236 209.187 308.168 206.625 321.151 201.362C334.135 196.098 345.896 188.245 355.708 178.288C365.615 168.712 373.446 157.222 378.719 144.525C383.992 131.828 386.595 118.192 386.368 104.457C386.595 90.7221 383.992 77.0864 378.719 64.389C373.446 51.692 365.615 40.2018 355.708 30.626C335.867 11.0345 309.038 0.0391332 281.073 0.0391332C253.108 0.0391332 226.279 11.0345 206.438 30.626C196.289 40.0679 188.233 51.5111 182.786 64.2237C177.338 76.9369 174.618 90.6399 174.801 104.457C174.571 118.247 177.234 131.934 182.617 144.645C188.001 157.357 195.989 168.814 206.072 178.288C215.697 188.121 227.234 195.904 239.98 201.165C252.727 206.426 266.417 209.054 280.218 208.889Z"/><path fill="#02081B" fill-opacity="0.89019608" transform="scale(0.0750059 0.0750188)" d="M746.719 208.889C760.736 209.187 774.666 206.625 787.654 201.362C800.636 196.098 812.397 188.246 822.206 178.288C832.157 168.736 840.02 157.253 845.317 144.552C850.609 131.851 853.225 118.204 852.992 104.457C853.225 90.7104 850.609 77.0631 845.317 64.3621C840.02 51.6616 832.157 40.1783 822.206 30.6262C802.405 11.0126 775.589 0 747.631 0C719.679 0 692.863 11.0126 673.062 30.6262C662.954 40.0894 654.944 51.542 649.54 64.2542C644.137 76.9658 641.455 90.6582 641.668 104.457C641.44 118.247 644.101 131.934 649.485 144.646C654.868 157.357 662.857 168.814 672.94 178.288C682.511 188.088 693.988 195.853 706.671 201.113C719.35 206.373 732.976 209.018 746.719 208.889Z"/><path fill="#02081B" fill-opacity="0.89019608" transform="scale(0.0750059 0.0750188)" d="M1024 1260.01L831.488 928.498C832.71 800.753 832.223 762.258 831.488 634.751C831.488 526.677 830.631 414.838 831.488 305.427C831.488 301.056 831.488 297.049 831.488 293.892C831.853 290.176 831.853 286.434 831.488 282.72L660.475 282.72L660.475 428.439L367.555 428.439L367.555 282.72L194.222 282.72C193.862 286.759 193.862 290.823 194.222 294.863C194.222 298.182 194.222 302.23 194.222 307.006C194.954 421.76 194.222 539.186 194.222 652.724C194.222 773.429 193.245 805.852 194.222 925.705L0 1260.37L124.473 1331.77L280.827 1062.56L436.938 1331.41L512.061 1288.3L587.183 1331.41L743.419 1062.56L899.528 1331.41L1024 1260.01ZM512.061 1175.01L367.555 926.192L367.555 596.986L661.818 596.986L661.818 917.327L512.061 1175.01Z"/></svg>