<?xml version="1.0" encoding="utf-8" ?><svg xmlns="http://www.w3.org/2000/svg" xmlns:xlink="http://www.w3.org/1999/xlink" width="880" height="880" viewBox="0 0 880 880"><path fill="#E1F0FE" fill-opacity="0.52941179" d="M0 0L880 0L880 880L0 880L0 0Z"/><path d="M535.079 459.403C536.741 438.064 533.22 415.542 537.237 394.227C537.962 390.382 537.42 386.938 539.838 383.912C544.135 384.582 550.686 384.016 553.652 386.655C554.202 388.261 554.081 387.666 553.402 389.619C554.23 396.774 553.793 405.777 553.597 413.101L552.689 444.512C552.442 452.428 552.218 460.575 552.273 468.494C552.524 505.033 549.784 541.444 550.924 578.017C551.124 584.43 552.756 596.389 551.817 602.08C552.489 603.916 552.582 603.322 552.054 604.834C550.802 605.756 550.037 605.902 548.577 606.377C542.466 612.974 534.554 619.322 527.57 625.034C513.97 636.13 499.958 646.712 485.564 656.758C474.628 664.257 459.561 673.201 450.183 682.699C479.067 704.306 506.093 728.572 535.919 748.916C537.296 749.855 538.562 753.102 539.221 754.671C535.708 757.008 531.779 759.001 527.667 760.039C525.01 760.279 524.073 760.212 521.901 758.566C517.531 755.253 513.317 751.668 508.864 748.474C490.805 735.735 472.978 722.671 455.391 709.289C450.863 705.849 443.373 701.312 442.569 695.41C441.194 695.427 413.088 717.379 409.944 720.203C416.087 724.5 435.192 737.053 437.668 743.207C437.312 746.75 431.303 748.724 428.236 749.505C421.437 745.934 404.358 733.786 398.554 728.782L398.059 729.084C383.756 737.926 370.434 752.28 354.262 757.815C350.844 758.985 340.116 757.339 337.863 754.511L337.908 753.582C341.382 747.102 348.101 742.453 353.738 737.808L376.471 719.151C368.098 713.195 355.387 703.7 348.17 696.393C342.79 700.437 331.583 709.269 326.142 712.219C328.022 718.965 332.518 737.647 333.576 744.251C329.625 750.667 326.553 753.293 318.976 754.948C313.902 756.056 307.198 756.754 301.875 757.151C282.487 758.599 261.304 761.107 242.226 756.941C233.43 755.02 224.925 750.594 216.897 746.768C215.149 747.341 211.488 747.436 209.569 747.173C194.188 745.06 186.285 740.912 176.688 729.357C176.191 712.074 185.679 711.984 198.574 706.947C212.215 701.618 226.613 699.513 240.09 694.695C240.098 686.287 241.616 680.049 244.659 672.23C239.108 670.548 227.745 668.37 224.127 663.533C218.592 656.135 221.101 572.952 222.45 560.72C223.285 553.15 224.277 545.415 226.303 538.065C230.284 523.622 239.299 506.233 251.265 496.785C262.477 487.931 274.517 489.228 287.82 490.871C290.378 490.998 294.154 491.29 296.617 491.16C309.134 483.464 328.459 484.481 342.51 485.305C342.44 481.634 342.51 474.886 342.078 471.469C332.164 474.145 324.017 472.831 317.483 463.878C314.388 459.637 311.984 448.388 313.08 443.403C314.388 437.451 327.072 430.945 332.156 427.705C339.287 423.842 353.31 426.388 361.717 426.692C376.801 427.239 391.093 426.131 406.048 425.715C406.77 421.241 407.115 417.402 410.51 413.936C415.411 408.933 426.693 409.846 433.56 409.811C443.162 410.082 453.686 411.403 463.307 412.407C457.398 413.293 450.719 414.564 444.814 415.351C437.956 416.266 418.388 414.224 414.549 418.47C410.261 423.212 410.569 445.348 410.686 451.721C428.223 455.901 446.434 457.441 464.355 459.592C473.19 460.652 485.588 457.936 494.218 455.879C497.261 455.153 502.866 450.709 505.3 448.716C508.885 446.069 515.323 436.106 518.366 435.463C522.856 441.835 504.858 455.191 500.588 458.306C512.638 458.811 522.861 458.09 535.079 459.403Z"/><path d="M535.079 459.403C536.741 438.064 533.22 415.542 537.237 394.227C537.962 390.382 537.42 386.938 539.838 383.912C544.135 384.582 550.686 384.016 553.652 386.655C554.202 388.261 554.081 387.666 553.402 389.619C549.424 389.767 546.336 389.804 542.361 389.359C542.071 396.737 541.101 404.521 541.196 411.818C541.732 452.867 540.168 493.965 537.482 534.926C536.536 549.357 536.191 574.943 530.919 587.759L530.076 588.197C521.655 586.865 480.218 587.883 478.746 587.183C488.084 583.525 494.855 577.169 500.649 569.091C503.882 564.584 508.966 555.89 507.971 550.113C511.499 532.674 505.608 509.388 500.12 492.751C498.583 488.091 496.857 481.637 494.819 477.279C488.716 477.43 482.611 477.504 476.506 477.502C462.645 477.42 448.791 476.898 434.963 475.936C410.707 474.392 385.702 470.949 361.47 468.415C354.987 467.737 355.909 464.776 356.302 459.541C354.277 459.32 353.826 459.201 351.86 459.509C350.453 461.329 351.124 463.038 350.394 464.536C348.773 467.861 345.172 469.982 342.078 471.469C332.164 474.145 324.017 472.831 317.483 463.878C314.388 459.637 311.984 448.388 313.08 443.403C314.388 437.451 327.072 430.945 332.156 427.705C339.287 423.842 353.31 426.388 361.717 426.692C376.801 427.239 391.093 426.131 406.048 425.715C406.77 421.241 407.115 417.402 410.51 413.936C415.411 408.933 426.693 409.846 433.56 409.811C443.162 410.082 453.686 411.403 463.307 412.407C457.398 413.293 450.719 414.564 444.814 415.351C437.956 416.266 418.388 414.224 414.549 418.47C410.261 423.212 410.569 445.348 410.686 451.721C428.223 455.901 446.434 457.441 464.355 459.592C473.19 460.652 485.588 457.936 494.218 455.879C497.261 455.153 502.866 450.709 505.3 448.716C508.885 446.069 515.323 436.106 518.366 435.463C522.856 441.835 504.858 455.191 500.588 458.306C512.638 458.811 522.861 458.09 535.079 459.403Z"/><path fill="#E1F0FE" fill-opacity="0.52941179" d="M494.819 477.279C503.453 477.242 512.089 477.203 520.723 477.136C525.227 477.101 530.091 476.672 534.517 476.705C533.165 494.971 532.805 514.467 531.774 532.928L530.18 560.335C529.449 572.503 528.464 575.987 530.076 588.197C521.655 586.865 480.218 587.883 478.746 587.183C488.084 583.525 494.855 577.169 500.649 569.091C503.882 564.584 508.966 555.89 507.971 550.113C511.499 532.674 505.608 509.388 500.12 492.751C498.583 488.091 496.857 481.637 494.819 477.279Z"/><path fill="#E1F0FE" fill-opacity="0.52941179" d="M338.872 430.304C341.338 430.239 344.069 430.366 346.52 430.617C366.717 432.685 385.372 432.634 405.563 430.371C404.873 437.245 404.156 445.028 405.24 451.856C389.202 454.798 377.179 455.822 360.987 455.034C356.292 454.613 342.656 452.257 338.555 456.073C337.432 457.118 337.164 460.608 338.744 461.95C340.565 462.136 341.756 460.919 344.049 460.377C345.519 461.396 345.042 460.754 345.727 462.207C343.024 469.491 332.296 468.796 326.702 465.375C320.048 461.305 315.1 449.866 318.403 442.825C319.764 439.922 335.434 430.977 338.872 430.304Z"/><path fill="#28A6FD" fill-opacity="0.42745098" d="M381.897 659.022C385.278 661.077 388.486 663.66 391.637 666.075C386.597 670.921 367.549 683.797 361.116 688.306C373.047 696.492 378.355 698.301 389.962 708.546L380.633 715.781C372.095 710.055 363.761 702.365 355.354 696.313C353.377 694.89 351.692 693.068 349.193 693.801C348.219 694.894 348.348 694.903 348.17 696.393C342.79 700.437 331.583 709.269 326.142 712.219C328.022 718.965 332.518 737.647 333.576 744.251C329.625 750.667 326.553 753.293 318.976 754.948C313.902 756.056 307.198 756.754 301.875 757.151C282.487 758.599 261.304 761.107 242.226 756.941C233.43 755.02 224.925 750.594 216.897 746.768L220.587 743.455C220.366 739.179 220.167 733.891 223.584 730.733C229.262 725.486 242.05 723.616 249.635 721.282C259.953 718.108 283.11 710.196 289.014 701.617C292.568 703.698 309.225 705.841 313.859 704.74C315.942 704.245 317.953 702.879 319.641 702.483L319.942 703.628C324.895 705.478 325.305 700.749 328.08 698.11C329.64 696.628 330.847 695.798 332.606 694.652C340.483 689.426 348.315 684.132 356.102 678.771C365.07 672.645 374.443 666.892 381.897 659.022Z"/><path fill="#28A6FD" fill-opacity="0.42745098" d="M542.361 389.359C546.336 389.804 549.424 389.767 553.402 389.619C554.23 396.774 553.793 405.777 553.597 413.101L552.689 444.512C552.442 452.428 552.218 460.575 552.273 468.494C552.524 505.033 549.784 541.444 550.924 578.017C551.124 584.43 552.756 596.389 551.817 602.08C547.449 601.12 537.082 601.44 532.128 601.455L501.408 601.528C486.238 601.563 471.068 601.474 455.9 601.263C443.812 601.069 431.745 600.538 419.641 600.847C410.168 601.09 400.7 601.798 391.233 602.259C372.602 603.277 353.946 603.785 335.287 603.781C335.021 597.644 334.976 591.501 335.152 585.361C359.595 584.955 383.776 584.679 408.226 585.365C409.673 585.406 410.866 585.292 412.104 584.542C433.979 588.969 456.571 594.19 478.746 587.183C480.218 587.883 521.655 586.865 530.076 588.197L530.919 587.759C536.191 574.943 536.536 549.357 537.482 534.926C540.168 493.965 541.732 452.867 541.196 411.818C541.101 404.521 542.071 396.737 542.361 389.359Z"/><path fill="#28A6FD" fill-opacity="0.42745098" d="M342.078 471.469C345.172 469.982 348.773 467.861 350.394 464.536C351.124 463.038 350.453 461.329 351.86 459.509C353.826 459.201 354.277 459.32 356.302 459.541C355.909 464.776 354.987 467.737 361.47 468.415C385.702 470.949 410.707 474.392 434.963 475.936C448.791 476.898 462.645 477.42 476.506 477.502C482.611 477.504 488.716 477.43 494.819 477.279C496.857 481.637 498.583 488.091 500.12 492.751C505.608 509.388 511.499 532.674 507.971 550.113C507.072 547.765 506.118 544.561 503.87 543.392C499.085 540.903 493.131 538.868 488.068 536.894C477.498 532.809 466.962 528.639 456.46 524.385C448.911 521.304 441.048 518.051 433.736 514.482C425.242 510.336 417.096 505.405 408.731 500.962C418.921 501.507 430.36 502.741 440.521 503.808C413.762 492.236 371.342 488.797 342.51 485.305C342.44 481.634 342.51 474.886 342.078 471.469Z"/><path fill="#28A6FD" fill-opacity="0.42745098" d="M337.908 753.582C341.344 755.362 358.418 740.281 361.705 737.644C370.977 730.302 380.324 723.055 389.744 715.904C426.038 688.68 462.644 661.874 499.555 635.494C507.351 629.886 515.044 624.136 522.63 618.248C527.162 614.72 532.23 610.352 536.991 607.339C539.05 606.037 545.78 606.355 548.577 606.377C542.466 612.974 534.554 619.322 527.57 625.034C513.97 636.13 499.958 646.712 485.564 656.758C474.628 664.257 459.561 673.201 450.183 682.699C479.067 704.306 506.093 728.572 535.919 748.916C537.296 749.855 538.562 753.102 539.221 754.671C535.708 757.008 531.779 759.001 527.667 760.039C525.01 760.279 524.073 760.212 521.901 758.566C517.531 755.253 513.317 751.668 508.864 748.474C490.805 735.735 472.978 722.671 455.391 709.289C450.863 705.849 443.373 701.312 442.569 695.41C441.194 695.427 413.088 717.379 409.944 720.203C416.087 724.5 435.192 737.053 437.668 743.207C437.312 746.75 431.303 748.724 428.236 749.505C421.437 745.934 404.358 733.786 398.554 728.782L398.059 729.084C383.756 737.926 370.434 752.28 354.262 757.815C350.844 758.985 340.116 757.339 337.863 754.511L337.908 753.582Z"/><path d="M442.569 695.41C445.126 694.891 445.495 694.899 448.015 696.689C452.615 699.958 457.205 703.42 461.736 706.783L487.021 725.495C499.651 734.825 512.762 743.931 524.573 754.305C526.304 755.824 527.087 757.881 527.667 760.039C525.01 760.279 524.073 760.212 521.901 758.566C517.531 755.253 513.317 751.668 508.864 748.474C490.805 735.735 472.978 722.671 455.391 709.289C450.863 705.849 443.373 701.312 442.569 695.41Z"/><path fill="#28A6FD" fill-opacity="0.42745098" d="M287.82 490.871C290.378 490.998 294.154 491.29 296.617 491.16C292.81 496.683 284.786 500.743 280.768 507.597C275.833 516.016 270.737 524.067 267.744 533.486C263.522 546.771 262.235 561.114 262.071 574.993C262.032 578.283 261.21 582.271 261.181 585.815C260.998 604.219 261.753 622.292 262.758 640.696C263.32 650.981 263.477 662.275 264.088 672.632C264.159 673.825 263.221 675.019 262.257 675.707C259.296 676.348 258.099 675.197 257.695 672.3C257.16 668.464 257.18 664.495 257.054 660.62C256.852 654.227 256.619 647.836 256.352 641.446C255.233 618.363 253.861 595.826 255.02 572.677C255.565 561.79 255.818 555.845 258.086 545.066C261.797 527.422 268.496 512.152 279.905 498.059C281.512 496.074 287.199 492.318 287.82 490.871Z"/><path fill="#E1F0FE" fill-opacity="0.52941179" d="M391.637 666.075C401.351 672.645 411.118 679.138 420.935 685.554C411.461 692.873 399.762 701.671 389.962 708.546C378.355 698.301 373.047 696.492 361.116 688.306C367.549 683.797 386.597 670.921 391.637 666.075Z"/><path fill="#E1F0FE" fill-opacity="0.52941179" d="M336.778 569.043C338.805 569.335 341.212 569.867 343.229 570.329C357.852 573.677 372.907 574.675 387.501 578.112C395.77 580.059 403.821 582.607 412.104 584.542C410.866 585.292 409.673 585.406 408.226 585.365C383.776 584.679 359.595 584.955 335.152 585.361C335.424 579.679 336.003 574.66 336.778 569.043Z"/><path fill="#E1F0FE" fill-opacity="0.52941179" d="M287.369 689.253C299.13 690.892 310.372 692.433 322.263 692.705C321.625 695.546 320.785 699.971 319.641 702.483C317.953 702.879 315.942 704.245 313.859 704.74C309.225 705.841 292.568 703.698 289.014 701.617C288.258 698.089 287.418 692.84 287.369 689.253Z"/><path fill="#28A6FD" fill-opacity="0.42745098" d="M346.14 608.792C360.959 608.565 375.774 608.133 390.581 607.496C408.567 606.727 425.981 605.67 444.08 606.726C437.37 612.048 395.499 639.243 395.012 644.073C394.998 644.212 395.01 644.353 395.01 644.493C396.209 645.735 395.895 645.807 397.287 646.106C399.727 645.034 410.691 637.165 413.285 635.248C423.438 627.748 442.848 616.783 450.447 607.105C456.636 607.141 462.824 607.228 469.011 607.365C487.724 607.399 510.349 608.018 528.619 607.143C507.47 622.788 486.115 638.064 464.568 653.151C455.246 659.678 445.582 667.805 436.413 674.042C432.701 676.912 429.12 679.736 425.233 682.373C407.318 669.819 389.521 657.096 371.847 644.205C360.355 635.995 348.598 628.496 337.584 619.624C336.581 615.769 336.39 612.468 336.106 608.509C339.661 608.505 342.599 608.56 346.14 608.792Z"/><path fill="#E1F0FE" fill-opacity="0.52941179" d="M469.011 607.365C487.724 607.399 510.349 608.018 528.619 607.143C507.47 622.788 486.115 638.064 464.568 653.151C455.246 659.678 445.582 667.805 436.413 674.042C425.429 668.151 418.208 660.288 408.406 654.247C424.455 643.697 440.994 629.972 456.103 618.049C460.523 614.561 464.467 610.844 469.011 607.365Z"/><path fill="#E1F0FE" fill-opacity="0.52941179" d="M346.14 608.792C360.959 608.565 375.774 608.133 390.581 607.496C408.567 606.727 425.981 605.67 444.08 606.726C437.37 612.048 395.499 639.243 395.012 644.073C394.998 644.212 395.01 644.353 395.01 644.493L394.643 645.008C389.468 644.232 355.011 613.743 346.14 608.792Z"/><path fill="#E1F0FE" fill-opacity="0.52941179" d="M339.319 628.164C352.137 638.279 365.455 646.541 378.047 656.243C374.016 659.707 367.627 663.791 363.133 666.834C356.143 671.576 349.234 676.502 342.19 681.146C342.809 669.195 343.15 660.871 341.906 648.922C341.412 644.177 339.115 632.077 339.319 628.164Z"/><path fill="#E1F0FE" fill-opacity="0.52941179" d="M248.909 673.325C253.308 674.517 257.093 675.582 261.43 677.04C262.335 685.177 264.902 684.495 272.232 686.599C271.863 689.157 271.467 696.477 269.085 697.449C259.306 696.821 252.844 698.309 245.103 692.482C246.564 686.136 247.834 679.748 248.909 673.325Z"/><path fill="#E1F0FE" fill-opacity="0.52941179" d="M277.563 687.506C278.924 687.725 279.361 687.792 280.717 688.21C282.96 690.519 282.445 695.394 283.724 699.515L283.924 700.148L279.771 702.929C278.57 703.674 277.751 704.436 276.42 704.271C275.328 702.886 275.22 700.266 274.852 698.23C276.073 694.628 276.753 691.206 277.563 687.506Z"/><path fill="#28A6FD" fill-opacity="0.42745098" d="M640.047 263.008C636.417 261.304 624.319 256.314 622.717 253.098C622.966 252.057 622.925 252.104 623.526 251.228C620.87 249.255 616.947 247.521 613.69 245.115C601.04 235.774 593.573 223.709 591.322 208.092C589.314 193.714 593.038 179.123 601.688 167.464C610.692 155.714 623.975 147.997 638.643 145.996C644.271 145.255 651.448 145.542 656.922 146.889C668.196 149.662 679.312 148.231 690.875 148.883C704.036 149.625 717.322 149.759 730.441 151.453C734.678 151.968 740.574 149.655 744.695 148.867C749.855 147.881 755.72 147.84 760.895 148.545C770.279 149.733 779.167 153.439 786.615 159.27C797.71 167.938 804.901 180.663 806.604 194.639C808.083 207.783 805.661 216.689 799.843 228.256C803.668 238.066 798.68 258.096 796.447 268.71C794.326 278.621 792.281 288.548 790.311 298.491C798.508 303.549 809.88 308.651 814.87 316.223C812.354 316.295 811.691 316.293 809.291 316.054C803.62 315.49 791.66 304.904 788.453 304.935C786.948 307.013 787.651 306.672 784.964 306.913C779.223 312.712 776.021 317.757 766.9 318.092C759.196 318.374 758.428 314.865 753.132 313.621C742.234 311.06 731.837 304.544 721.32 300.065C705.806 293.458 690.507 286.587 675.12 279.691C668.583 276.762 661.636 272.374 654.931 270.266C653.026 269.667 646.811 269.704 644.548 269.687C646.444 295.609 645.707 321.772 647.19 347.728C647.417 351.701 647.514 359.237 645.532 362.553L644.656 362.958C640.943 361.23 641.647 348.602 641.35 344.416C636.145 345.577 613.619 347.8 610.477 343.811C611.228 338.082 635.631 339.756 640.345 339.998C640.722 331.649 640.281 319.824 639.788 311.365C638.369 306.7 636.9 308.496 636.367 305.594C637.18 304.362 638.203 304.142 639.598 303.558C639.52 300.201 639.408 296.794 639.379 293.441C633.79 293.657 618.373 294.565 613.047 291.675C612.156 291.192 612.276 290.449 612.265 289.661C613.712 287.79 615.54 287.576 617.855 287.489C624.847 287.226 631.969 287.695 638.963 287.806C638.781 277.678 638.328 273.111 640.047 263.008Z"/><path fill="#FDFDEA" d="M639.598 303.558C639.675 306.019 639.829 308.936 639.788 311.365C638.369 306.7 636.9 308.496 636.367 305.594C637.18 304.362 638.203 304.142 639.598 303.558Z"/><path fill="#E1F0FE" fill-opacity="0.52941179" d="M639.967 152.011C666.719 148.9 690.926 168.069 694.029 194.822C697.133 221.574 677.957 245.776 651.203 248.872C624.46 251.966 600.271 232.8 597.169 206.058C594.066 179.316 613.226 155.121 639.967 152.011Z"/><path fill="#28A6FD" fill-opacity="0.42745098" d="M633.389 216.219C639.263 216.248 645.793 220.549 647.451 226.335C648.277 229.249 647.9 232.372 646.403 235.005C644.147 239.017 640.807 240.497 636.643 241.556C618.558 240.13 617.645 221.508 633.389 216.219Z"/><path fill="#E1F0FE" fill-opacity="0.52941179" d="M632.737 222.157C640.997 221.976 646.685 230.749 638.417 235.382C628.254 236.682 624.3 228.516 632.737 222.157Z"/><path fill="#28A6FD" fill-opacity="0.42745098" d="M652.332 166.359C654.509 166.251 655.776 166.117 657.837 166.822C661.68 168.123 664.809 170.962 666.478 174.66C669.753 181.892 666.184 188.164 659.344 191.289C651.734 192.057 648.626 189.192 644.348 183.452C643.723 175.269 644.657 170.71 652.332 166.359Z"/><path fill="#E1F0FE" fill-opacity="0.52941179" d="M653.05 172.346C660.215 171.241 666.26 179.474 658.76 185.296C649.71 187.614 647.342 178.926 653.05 172.346Z"/><path fill="#28A6FD" fill-opacity="0.42745098" d="M668.634 201.584C673.924 201.401 679.681 205.071 681.614 210.041C682.711 212.894 682.612 216.069 681.339 218.848C679.573 222.727 676.799 224.365 672.991 225.723C656.371 227.324 654.352 207.183 668.634 201.584Z"/><path fill="#E1F0FE" fill-opacity="0.52941179" d="M668.423 207.928C675.963 207.795 680.653 214.915 673.018 219.403C670.438 220.31 666.538 220.76 665.693 217.029C664.81 213.137 666.359 211.009 668.423 207.928Z"/><path fill="#28A6FD" fill-opacity="0.42745098" d="M613.735 181.411C619.234 180.971 626.384 183.396 629.591 188.018C631.119 190.178 631.704 192.865 631.214 195.465C630.382 199.812 627.504 202.168 624.067 204.408C622.284 205.094 620.721 205.505 618.779 205.457C615.867 205.359 613.126 204.051 611.217 201.849C605.776 195.591 607.753 186.56 613.735 181.411Z"/><path fill="#E1F0FE" fill-opacity="0.52941179" d="M615.862 187.314C623.711 187.219 629.83 191.404 623.149 198.817C614.867 203.208 610.343 193.249 615.862 187.314Z"/><path fill="#28A6FD" fill-opacity="0.42745098" d="M643.487 193.005C652.002 192.445 656.014 194.824 658.581 203.052C658.461 203.494 658.336 203.934 658.207 204.372C656.415 210.434 654.189 212.29 648.889 215.151C633.358 218.529 628.675 196.416 643.487 193.005Z"/><path fill="#FDFDEA" d="M645.311 198.169C654.427 198.411 654.336 204.629 647.665 209.573C637.67 210.917 638.979 199.555 645.311 198.169Z"/><path fill="#E1F0FE" fill-opacity="0.52941179" d="M747.547 154.684C773.21 151.228 796.831 169.193 800.353 194.848C803.876 220.502 785.971 244.169 760.326 247.757C734.586 251.359 710.815 233.375 707.279 207.627C703.744 181.878 721.789 158.153 747.547 154.684Z"/><path fill="#28A6FD" fill-opacity="0.42745098" d="M780.214 202.026C800.491 201.179 800.35 222.429 787.023 227.615C767.076 229.594 766.375 208.077 780.214 202.026Z"/><path fill="#E1F0FE" fill-opacity="0.52941179" d="M780.292 207.613C782.945 207.579 786.323 207.415 788.49 209.204C793.007 212.935 790.166 218.215 786.994 221.874C773.584 224.057 775.675 215.994 780.292 207.613Z"/><path fill="#28A6FD" fill-opacity="0.42745098" d="M747.925 218.337C763.381 216.44 767.445 235.439 752.137 241.54C738.056 244.998 732.229 222.713 747.925 218.337Z"/><path fill="#E1F0FE" fill-opacity="0.52941179" d="M748.218 223.429C751.81 223.312 756.24 224.066 756.313 228.707C756.37 232.299 754.237 233.788 751.831 236.058C750.16 236.554 747.063 236.463 746.004 235.055C742.485 230.377 744.793 226.457 748.218 223.429Z"/><path fill="#28A6FD" fill-opacity="0.42745098" d="M767.008 167.277C768.927 167.112 771.148 166.864 772.905 167.802C782.501 172.922 785.714 187.347 772.397 189.917C764.764 190.258 762.023 188.592 758.027 182.151C757.775 174.677 759.507 169.932 767.008 167.277Z"/><path fill="#E1F0FE" fill-opacity="0.52941179" d="M767.644 172.58C771.706 173.166 776.934 177.113 775.627 181.789C775.274 183.05 773.376 183.76 772.246 184.303C771.592 184.362 770.937 184.405 770.281 184.43C762.221 184.686 761.738 177.721 767.644 172.58Z"/><path fill="#28A6FD" fill-opacity="0.42745098" d="M733.907 180.117C743.975 179.638 752.938 199.195 733.837 202.716C728.414 203.01 723.82 200.659 722.454 195.075C721.687 191.901 722.269 188.551 724.062 185.822C726.623 181.89 729.669 180.97 733.907 180.117Z"/><path fill="#FDFDEA" d="M732.713 185.673C739.627 185.632 743.606 193.4 734.756 197.194C725.838 197.719 725.425 190.412 732.713 185.673Z"/><path fill="#28A6FD" fill-opacity="0.42745098" d="M754.055 192.114C759.796 191.476 765.723 193.278 768.446 198.768C769.735 201.321 769.892 204.299 768.878 206.974C767.48 210.609 764.899 212.234 761.575 213.762C745.353 216.03 740.873 198.646 754.055 192.114Z"/><path fill="#E1F0FE" fill-opacity="0.52941179" d="M756.128 197.247C765.45 197.496 766.741 206.452 759.767 208.657C751.021 208.817 749.537 202.347 756.128 197.247Z"/><path fill="#E1F0FE" fill-opacity="0.52941179" d="M795.549 234.505C796.616 238.839 787.421 282.92 786.206 289.758C785.113 285.665 783.693 281.975 779.5 280.092C760.27 271.453 742.454 287.569 749.072 307.704C728.584 295.516 703.414 286.007 681.741 275.895C677.084 273.876 672.396 271.964 667.972 269.479C688.7 268.982 712.18 267.811 732.966 268.796C737.636 269.017 753.727 281.268 757.663 278.72C757.988 270.951 741.22 267.784 738.576 263.596C739.356 261.236 742.382 257.055 743.902 253.841C767.56 254.937 778.908 251.912 795.549 234.505Z"/><path fill="#E1F0FE" fill-opacity="0.52941179" d="M700.636 204.891C701.701 206.457 701.304 209.896 701.876 212.262C706.062 229.582 713.944 238.366 727.972 247.875C725.137 252.049 722.49 257.847 720.265 262.458C713.981 262.188 705.228 262.559 698.761 262.636C693.446 262.821 688.128 262.937 682.81 262.985C678.564 256.853 676.681 254.323 671.187 249.039C673.434 247.817 675.598 246.449 677.667 244.946C691.559 234.982 697.915 221.396 700.636 204.891Z"/><path fill="#E1F0FE" fill-opacity="0.52941179" d="M676.321 154.449C682.997 154.471 689.665 155.001 696.342 155.3C705.342 155.703 715.035 155.717 723.947 156.855C714.469 165.178 711.369 167.473 705.466 178.768C702.497 186.531 701.998 189.849 700.811 198.138C697.962 176.002 692.175 168.716 676.321 154.449Z"/><path fill="#E1F0FE" fill-opacity="0.52941179" d="M766.977 283.324C770.738 283.443 772.755 283.742 776.316 284.716C786.635 294.542 781.144 309.226 768.411 312.503C764.74 312.49 762.34 312.441 759.036 310.365C755.918 308.408 753.762 305.234 753.091 301.615C751.467 292.751 758.301 284.624 766.977 283.324Z"/><path fill="#E1F0FE" fill-opacity="0.52941179" d="M654.585 254.509L655.694 254.408C657.936 255.336 661.372 261.416 662.881 263.806C656.919 263.494 655.359 263.563 650.004 261.038C645.672 259.003 641.341 257.011 637.1 254.792C642.909 255.582 648.804 255.487 654.585 254.509Z"/><path fill="#FDFDEA" d="M733.129 249.97C734.815 250.688 736.489 251.434 738.15 252.206C736.084 255.531 734.388 259.507 732.106 262.619L726.407 262.373C728.801 258.324 731.044 254.187 733.129 249.97Z"/><path fill="#FDFDEA" d="M666.708 251.356L667.552 251.667C669.719 255.682 672.642 258.844 675.038 262.713C673.943 263.312 672.077 263.259 670.704 263.351C668.932 262.707 663.382 254.857 662.356 252.966C663.362 252.132 665.356 251.733 666.708 251.356Z"/><path fill="#28A6FD" fill-opacity="0.42745098" d="M657.311 365.444C667.193 365.406 677.247 365.359 687.106 365.789C695.721 366.165 704.401 367.066 713.025 367.6C722.342 368.119 731.668 368.454 740.998 368.606C754.42 368.875 767.846 368.954 781.271 368.843C791.772 368.799 806.82 367.394 816.115 371.904C804.451 375.546 800.902 374.137 788.882 374.743C774.623 375.461 759.726 374.633 745.695 375.315C737.634 383.653 736.389 386.478 723.949 386.767C722.295 388.578 720.853 390.04 719.095 391.747C719.691 398.936 719.432 400.31 718.225 407.597C720.032 410.244 722.424 412.147 724.632 414.603L724.239 415.281C718.265 418.099 692.424 414.035 683.73 413.611C686.044 427.662 687.391 425.555 700.843 425.857C705.275 425.956 710.367 426.522 714.733 427.417C716.067 424.444 720.187 415.181 724.295 417.046C725.861 420.241 722.239 425.236 720.57 428.034C726.181 441.107 729.228 451.376 733.689 464.794C740.371 484.889 746.318 504.967 752.649 525.13C755.094 533.128 757.686 541.081 760.426 548.983C763.161 556.879 766.537 565.768 768.25 573.838C766.271 575.572 764.986 577.102 763.258 579.077C767.105 586.814 769.379 594.751 772.99 602.529C783.691 625.579 788.773 650.688 797.54 674.456C799.379 679.442 801.611 684.906 802.616 690.113C800.906 690.615 798.968 691.343 797.262 691.933C798.217 694.983 799.337 697.957 800.656 700.866C809.007 719.291 814.649 738.721 820.639 758.024C830.639 765.137 814.966 767.072 814.355 762.452C815.291 761.217 815.648 760.96 815.742 759.404C812.906 751.355 809.786 743.944 806.964 735.438C804.034 726.412 801.008 717.417 797.885 708.456C796.685 704.943 795.709 700.475 793.876 697.284C792.323 694.579 789.898 694.173 787.803 692.219C781.903 686.718 756.79 605.659 753.402 592.53C752.423 588.739 751.7 584.988 751.428 581.081C749.121 581.257 746.407 581.308 744.065 581.407C731.377 549.522 724.624 517.043 714.695 484.613C714.29 493.31 715.199 505.752 715.375 514.789C715.848 533.733 715.741 552.687 715.055 571.625C714.911 575.414 715.352 579.716 714.723 583.325C714.514 584.525 712.405 585.589 711.256 586.287C712.882 601.717 712.491 626.42 712.768 642.49L713.442 679.631C713.527 684.027 714.408 700.586 712.812 703.651C710.773 705.426 709.075 705.168 706.36 705.081C706.549 712.169 705.945 721.338 705.64 728.669C705.16 740.236 705.6 754.072 703.006 765.157C705.092 766.041 706.177 766.295 707.26 768.264C707.254 773.723 692.982 772.782 694.424 766.898C694.889 765.002 696.907 765.603 698.373 764.747C698.828 760.805 698.682 755.206 698.77 751.091C698.929 741.222 699.271 731.357 699.796 721.501C700.031 716.664 700.181 709.913 700.953 705.302C698.732 705.22 696.699 705.03 694.494 704.824C692.465 699.106 693.481 682.329 693.574 675.335C693.699 659.14 693.991 642.947 694.451 626.759C694.776 614.617 694.11 597.906 695.914 586.435C694.592 585.766 693.239 585.016 691.927 584.316C691.638 579.757 691.798 573.575 691.685 568.823C691.252 550.953 691.259 533.074 691.709 515.204C691.882 506.037 692.419 494.058 691.961 485.054C689.264 492.254 686.212 507.177 683.825 515.358C677.473 537.116 671.15 560.395 662.947 581.498L655.904 581.161C654.387 592.708 648.054 609.88 644.565 621.537C637.369 645.582 629.492 671.35 618.747 694.107C616.75 693.605 615.135 693.037 613.204 692.368C610.603 708.002 596.858 741.779 589.856 756.781C591.129 758.741 592.162 760.437 591.114 762.644C587.931 764.743 580.799 762.029 580.802 757.75C581.887 755.884 583.303 756.427 584.065 755.052C586.521 750.62 588.286 745.656 590.16 740.942L602.318 709.778C604.482 704.3 607.069 697.184 609.894 692.187C608.03 691.398 606.074 690.7 604.175 689.99C606.863 680.769 610.703 672.094 613.561 662.99C619.087 645.515 623.737 627.365 630.789 610.433C635.053 600.197 638.967 589.077 643.894 579.201C641.023 575.898 638.09 574.559 639.591 569.75C641.609 563.284 643.959 556.933 646.18 550.533C649.216 541.602 652.116 532.624 654.879 523.605L671.458 470.668C675.955 456.477 679.794 444.161 685.367 430.171C680.071 424.817 678.219 421.257 678.535 413.702C680.522 410.028 683.421 408.428 686.036 404.673C684.975 397.973 686.051 392.98 685.49 386.422C685.11 381.981 677.834 383.685 674.2 382.141C668.181 379.583 663.541 375.719 659.33 370.792C656.456 370.726 643.287 371.366 642.796 367.734C645.336 365.319 653.681 365.52 657.311 365.444Z"/><path fill="#E1F0FE" fill-opacity="0.52941179" d="M689.551 431.294C697.29 431.387 710.421 433.123 717.491 431.912C721.95 450.51 729.657 471.056 735.299 489.567C740.604 506.969 745.919 524.561 751.638 541.812C755.079 552.189 759.744 562.461 763.036 572.943C757.854 574.084 752.645 575.104 747.415 576C734.653 537.712 725.143 497.766 714.638 458.798C713.806 455.712 712.251 443.632 709.649 442.553L709.048 443.138C706.096 451.157 709.47 516.58 709.784 530.356C709.995 545.004 710.069 559.653 710.005 574.302C710.097 579.281 710.05 581.802 703.998 581.465C701.849 581.346 699.616 581.159 697.461 580.988C696.668 538.386 698.353 496.187 699.422 453.622C699.479 451.355 699.285 443.065 696.962 442.262C695.446 444.393 691.034 464.821 689.974 468.912L678.718 511.216C672.955 532.215 666.602 555.373 659.683 575.984C654.625 575.277 648.804 574.041 643.718 573.068C647.744 561.851 652.492 550.826 656.231 539.491C663.011 518.938 668.994 498.098 675.707 477.515C679.185 466.852 682.733 456.214 685.82 445.433C687.121 440.894 688.833 435.929 689.551 431.294Z"/><path fill="#E1F0FE" fill-opacity="0.52941179" d="M699.224 586.925L707.957 586.98C705.603 601.572 706.059 615.763 706.305 630.471L707.35 676.765C707.452 681.336 708.603 696.57 708.004 699.815L698.546 699.965C699.804 682.453 699.791 666.008 700.091 648.497C700.446 627.763 701.853 607.605 699.224 586.925Z"/><path fill="#E1F0FE" fill-opacity="0.52941179" d="M755.487 580.044C756.909 579.923 756.961 579.862 758.411 580.179C760.03 582.596 762.956 593.815 764.462 597.22C777.006 625.561 784.33 655.585 795.562 684.371C795.997 685.485 796.051 686.022 795.679 687.062L791.289 688.021C785.7 674.439 780.637 660.646 776.114 646.673C772.837 636.379 770.065 625.853 766.786 615.499C763.351 604.65 757.936 591.017 755.487 580.044Z"/><path fill="#E1F0FE" fill-opacity="0.52941179" d="M648.524 579.854C649.326 579.94 650.154 580.072 650.955 580.186L651.39 580.806C650.533 585.508 648.055 592.529 646.513 597.13L638.994 619.766C636.759 626.65 619.256 686.127 615.129 687.786L610.803 686.849C613.1 679.144 617.475 668.858 620.121 660.656C624.427 647.307 628.875 632.151 633.893 619.188C639.327 605.149 644.118 594.588 648.524 579.854Z"/><path fill="#E1F0FE" fill-opacity="0.52941179" d="M691.702 383.8C696.228 385.482 713.947 385.182 715.636 386.688C713.69 394.98 713.24 400.207 712.668 408.738L712.702 409.495L712.255 409.971C708.457 410.209 696.522 408.696 691.307 408.497C691.523 404.539 692.282 386.163 691.702 383.8Z"/><path fill="#E1F0FE" fill-opacity="0.52941179" d="M668.509 371.332C683.224 371.348 697.705 372.69 712.375 373.555C720.782 374.05 729.205 374.349 737.617 374.81L734.607 378.412L731.682 381.32C719.704 379.582 706.021 379.464 693.829 378.186C686.635 377.431 680.053 377.781 672.654 376.574C671.509 374.928 669.797 372.928 668.509 371.332Z"/><path fill="#28A6FD" fill-opacity="0.42745098" d="M168.125 377.907C167.993 377.741 167.857 377.579 167.731 377.408C164.763 373.356 156.919 319.04 156.157 310.229C155.9 307.254 155.778 304.186 156.24 301.225C156.563 299.152 157.045 296.424 158.856 295.123C162.42 295.217 172.052 298.458 176.056 299.447C183.258 301.226 190.286 302.421 197.445 303.887C213.774 307.229 229.043 305.982 245.444 306.75C250.068 306.967 264.155 306.83 266.843 310.139C269.383 313.266 267.491 328.286 267.497 332.934L267.5 333.295C265.961 336.18 260.999 337.258 257.728 338.332C258.35 342.081 259.885 348.512 257.405 351.529C255.799 353.484 253.693 353.506 251.319 353.884C251.674 357.164 251.286 361.419 253.25 363.206C257.338 364.112 265.771 359.799 269.04 365.478C274.104 374.275 270.437 388.78 275.491 398.386C277.77 402.718 283.985 409.825 287.282 413.561C289.93 412.565 292.149 411.646 295.017 411.458C297.713 402.787 302.117 400.017 306.929 392.874C309.26 389.414 311.268 382.465 312.958 378.466C317.964 366.625 323.719 357.222 336.291 352.926C338.16 353.756 338.186 353.403 339.077 354.824C338.67 357.239 335.982 358.287 333.829 359.217C319.922 366.905 317.64 383.839 310.458 396.422C307.704 401.245 302.558 404.287 300.478 410.169C299.246 413.652 304.953 425.688 299.362 423.798C296.734 420.834 296.39 416.859 293.679 416.276C291.888 416.944 292.399 416.379 291.588 417.621C291.431 425.439 301.524 427.57 289.262 438.636C278.412 448.428 277.956 447.715 264.074 445.621C264.59 468.603 269.996 479.846 295.279 478.501C307.613 477.845 310.616 471.649 321.009 469.523C314.411 484.119 295.491 485.133 281.713 482.971C262.384 479.938 259.303 460.677 258.142 444.595C257.728 439.509 250.626 412.186 255.911 410.296C261.381 413.701 259.267 436.262 265.142 440.189C267.595 441.829 274.878 441.876 278.006 441.731C281.819 438.685 288.357 433.437 290.869 429.323C289.953 426.924 288.014 421.825 286.634 420.19C275.194 406.718 266.856 397.831 267.556 378.859C268.024 366.186 264.132 366.06 253.56 368.073C251.469 368.472 238.952 356.502 236.983 362.553C237.516 364.784 239.43 367.256 241.408 368.195C248.682 371.649 254.694 373.398 256.832 382.294C257.699 385.905 260.213 401.834 256.602 403.362L253.466 402.687C251.382 404.423 249.518 406.996 247.078 408.145C243.861 409.66 239.931 410.25 236.592 408.658C233.711 407.284 233.71 405.733 233.44 402.717C226.202 398.56 229.39 399.462 227.357 392.936C225.967 388.476 222.702 390.596 225.755 383.66C225.421 380.179 221.857 381.276 223.398 375.36C224.829 369.872 220.052 366.527 228.336 363.195C228.24 360.922 228.11 358.568 228.057 356.302C222.838 356.139 221.895 356.205 221.408 350.648C207.315 357.549 195.52 365.609 182.756 374.695C179.805 376.796 171.085 382.784 167.859 382.541C165.762 381.054 166.832 379.482 168.125 377.907Z"/><path d="M168.125 377.907C170.362 377.062 185.351 365.841 188.491 363.624C204.442 352.309 222.045 342.547 240.784 336.724C247.131 334.752 261.656 330.249 267.5 333.295C265.961 336.18 260.999 337.258 257.728 338.332C258.35 342.081 259.885 348.512 257.405 351.529C255.799 353.484 253.693 353.506 251.319 353.884C251.674 357.164 251.286 361.419 253.25 363.206C257.338 364.112 265.771 359.799 269.04 365.478C274.104 374.275 270.437 388.78 275.491 398.386C277.77 402.718 283.985 409.825 287.282 413.561C289.93 412.565 292.149 411.646 295.017 411.458C297.713 402.787 302.117 400.017 306.929 392.874C309.26 389.414 311.268 382.465 312.958 378.466C317.964 366.625 323.719 357.222 336.291 352.926C338.16 353.756 338.186 353.403 339.077 354.824C338.67 357.239 335.982 358.287 333.829 359.217C319.922 366.905 317.64 383.839 310.458 396.422C307.704 401.245 302.558 404.287 300.478 410.169C299.246 413.652 304.953 425.688 299.362 423.798C296.734 420.834 296.39 416.859 293.679 416.276C291.888 416.944 292.399 416.379 291.588 417.621C291.431 425.439 301.524 427.57 289.262 438.636C278.412 448.428 277.956 447.715 264.074 445.621C264.59 468.603 269.996 479.846 295.279 478.501C307.613 477.845 310.616 471.649 321.009 469.523C314.411 484.119 295.491 485.133 281.713 482.971C262.384 479.938 259.303 460.677 258.142 444.595C257.728 439.509 250.626 412.186 255.911 410.296C261.381 413.701 259.267 436.262 265.142 440.189C267.595 441.829 274.878 441.876 278.006 441.731C281.819 438.685 288.357 433.437 290.869 429.323C289.953 426.924 288.014 421.825 286.634 420.19C275.194 406.718 266.856 397.831 267.556 378.859C268.024 366.186 264.132 366.06 253.56 368.073C251.469 368.472 238.952 356.502 236.983 362.553C237.516 364.784 239.43 367.256 241.408 368.195C248.682 371.649 254.694 373.398 256.832 382.294C257.699 385.905 260.213 401.834 256.602 403.362L253.466 402.687C251.382 404.423 249.518 406.996 247.078 408.145C243.861 409.66 239.931 410.25 236.592 408.658C233.711 407.284 233.71 405.733 233.44 402.717C226.202 398.56 229.39 399.462 227.357 392.936C225.967 388.476 222.702 390.596 225.755 383.66C225.421 380.179 221.857 381.276 223.398 375.36C224.829 369.872 220.052 366.527 228.336 363.195C228.24 360.922 228.11 358.568 228.057 356.302C222.838 356.139 221.895 356.205 221.408 350.648C207.315 357.549 195.52 365.609 182.756 374.695C179.805 376.796 171.085 382.784 167.859 382.541C165.762 381.054 166.832 379.482 168.125 377.907Z"/><path fill="#28A6FD" fill-opacity="0.42745098" d="M252.594 339.574C252.692 340.028 253.121 346.924 253.221 348.015C248.189 348.502 229.87 351.438 226.623 350.869C226.063 350.253 225.873 349.985 225.382 349.319C227.849 346.501 247.992 340.81 252.594 339.574Z"/><path fill="#E1F0FE" fill-opacity="0.52941179" d="M227.906 377.317C231.751 377.865 238.586 378.245 242.287 379.135C242.787 379.255 242.672 380.13 242.733 380.869C237.921 382.532 230.464 382.637 227.906 377.317Z"/><path fill="#E1F0FE" fill-opacity="0.52941179" d="M229.726 386.332C233.039 386.397 236.683 387.097 240.007 386.55C241.427 386.316 241.825 386.291 243.228 386.33L243.594 386.924L242.894 388.356C242.244 388.646 241.58 388.902 240.904 389.125C237.445 390.231 230.927 390.708 229.726 386.332Z"/><path fill="#E1F0FE" fill-opacity="0.52941179" d="M228.589 368.354C233.749 367.989 234.301 368.938 238.294 372.331L237.925 372.805C235.103 372.526 228.744 372.334 227.871 369.378L228.589 368.354Z"/><path fill="#E1F0FE" fill-opacity="0.52941179" d="M243.32 394.132L243.573 394.161L243.701 394.536C241.618 396.597 237.199 397.426 234.342 397.539C234.016 397.207 233.519 396.59 233.204 396.218L233.596 395.612C235.451 395.082 240.495 394.704 243.32 394.132Z"/><path fill="#D9843F" d="M241.594 355.065C244.151 354.726 245.354 354.236 246.795 356.577L246.285 357.593L245.172 357.947C243.499 357.358 241.962 356.804 240.316 356.143L240.101 355.595L241.594 355.065Z"/><path fill="#28A6FD" fill-opacity="0.42745098" d="M525.323 268.666C529.091 268.344 536.415 267.604 539.37 269.738C541.544 271.308 541.445 272.648 541.893 275.168C551.305 276.211 595.914 293.902 605.375 298.85C605.972 296.791 606.297 294.432 608.353 293.461L609.191 293.975C611.405 298.152 611.095 305.19 611.01 309.913C610.833 319.865 610.822 330.092 609.573 339.963C609.47 340.774 607.254 343.548 606.67 344.305C604.431 340.781 604.357 339.762 604.011 335.743C599.413 337.51 594.831 339.321 590.268 341.176C579.346 345.88 567.609 350.039 556.641 354.858C551.673 357.04 545.178 359.067 540.489 361.552L539.798 363.103C537.384 368.567 532.997 369.316 527.675 367.452L526.863 367.161C526.067 368.035 526.391 367.783 525.349 368.383C524.976 368.167 524.724 368.054 524.425 367.7C520.702 363.279 520.322 317.815 520.454 309.984C520.678 299.851 521.269 289.73 522.226 279.64C522.482 276.755 522.754 273.623 523.072 270.722C523.213 269.436 524.029 269.365 525.323 268.666Z"/><path fill="#E1F0FE" fill-opacity="0.52941179" d="M542.382 279.839C562.45 288.853 584.162 296.047 605.006 303.151C604.54 311.015 604.275 322.322 604.896 330.06C597.515 331.873 592.35 333.715 585.367 336.481C582.51 337.72 579.333 338.927 576.411 340.016C564.216 344.563 552.383 350.367 540.283 355.054C541.782 329.59 541.796 305.327 542.382 279.839Z"/><path fill="#E1F0FE" fill-opacity="0.52941179" d="M528.069 274.444L536.62 274.533C535.658 303.569 535.005 332.615 534.661 361.666C532.48 361.847 530.298 362.015 528.115 362.168C527.958 359.897 527.863 357.629 527.84 355.351C527.581 340.339 526.298 325.52 526.623 310.491C526.881 298.521 528.277 286.361 528.069 274.444Z"/><path fill="#28A6FD" fill-opacity="0.42745098" d="M411.919 312.795C413.141 314.599 413.181 314.575 415.316 315.324C414.221 316.633 414.019 316.408 414.107 318.18C414.272 321.53 415.166 325.822 415.168 329.088C415.179 354.946 414.994 386.58 428.561 409.637C430.108 409.687 432.054 409.691 433.56 409.811C426.693 409.846 415.411 408.933 410.51 413.936C407.115 417.402 406.77 421.241 406.048 425.715C391.093 426.131 376.801 427.239 361.717 426.692C353.31 426.388 339.287 423.842 332.156 427.705C332.686 405.574 334.271 381.337 333.829 359.217C335.982 358.287 338.67 357.239 339.077 354.824C338.186 353.403 338.16 353.756 336.291 352.926C340.029 352.05 343.687 350.816 347.346 349.648C348.29 352.056 349 353.989 350.255 356.258C349.583 357.437 349.522 360.137 349.43 361.57C347.601 389.978 353.452 405.358 372.691 426.235C373.12 425.978 375.717 424.406 376.098 424.068C386.845 414.574 385.444 391.201 385.983 378.213C386.374 368.788 386.481 360.87 386.659 351.63C386.79 344.811 386.632 338.53 387.373 331.834C387.496 330.721 387.655 330.899 387.507 329.672L386.248 329.385C388.277 329.227 389.749 329.149 391.13 327.508C391.543 325.646 391.487 326.349 390.899 324.392C392.744 322.438 408.605 314.573 411.919 312.795Z"/><path fill="#28A6FD" fill-opacity="0.42745098" d="M279.994 278.379C280.532 274.069 287.919 271.277 291.575 269.593C301.934 264.821 309.411 256.001 319.637 250.988C329.267 246.268 342.917 245.854 353.118 249.054C364.203 252.878 373.639 260.452 368.673 273.304C368.026 278.446 360.781 280.582 356.883 283.288C339.253 295.527 319.422 291.352 299.742 288.102C294.54 287.243 272.681 289.786 279.994 278.379Z"/><path d="M284.444 282.703C289.444 282.747 295.787 282.829 300.716 283.499C313.967 285.302 326.572 288.594 339.936 285.302C351.709 282.402 356.434 274.56 368.673 273.304C368.026 278.446 360.781 280.582 356.883 283.288C339.253 295.527 319.422 291.352 299.742 288.102C294.54 287.243 272.681 289.786 279.994 278.379C281.792 279.49 283.023 281.106 284.444 282.703Z"/><path d="M366.343 312.16C370.255 305.18 369.938 299.655 369.3 291.943C369.058 289.024 367.72 281.35 369.637 279.34C375.741 281.528 376.995 302.601 374.281 307.571C372.669 310.523 371.108 313.869 369.519 316.868C366.733 323.226 365.125 339.161 359.841 342.934C357.176 343.406 353.084 341.045 350.8 339.727C351.777 343.521 352.753 347.971 354.615 351.361C355.987 349.799 355.776 349.493 357.398 349.108C361.045 351.391 359.632 359.514 355.997 361.079C352.915 361.093 351.687 358.642 350.255 356.258C349 353.989 348.29 352.056 347.346 349.648C346.967 347.845 346.164 344.246 346.433 342.631C347.353 337.114 350.131 338.58 345.661 333.768C341.675 336.8 337.065 340.713 333.262 342.309C319.734 348.053 312.307 340.625 303.818 331.779C302.631 330.543 289.485 332.189 291.879 324.992C294.946 315.772 304.772 310.919 297.555 300.082C296.075 297.86 290.649 293.168 290.757 290.987C301.201 287.324 308.315 308.704 302.578 316.116C301.09 318.038 297.257 323.961 296.24 325.994C297.961 326.174 303.809 326.649 304.908 327.183C314.276 331.74 313.191 339.815 325.985 339.55C334.479 339.374 344.111 325.516 348.976 327.007C349.475 328.216 349.373 328.891 349.372 330.188C350.67 332.123 355.241 336.246 357.206 338.042C359.656 329.329 360.572 325.822 364.581 317.829C362.054 316.225 360.488 315.22 358.184 313.331C356.806 317.889 356.056 319.214 353.325 323.14C352.246 316.933 352.248 313.412 353.922 307.228C357.56 304.003 365.658 298.429 361.695 292.487C356.609 289.96 354.875 299.586 350.866 300.979C349.892 300.164 349.85 299.586 349.784 298.251C349.15 285.459 367.154 281.186 367.584 296.15C367.726 301.09 364.305 305.026 360.638 308.024C362.33 309.226 364.805 310.871 366.343 312.16Z"/><path d="M411.919 312.795C424.272 302.389 442.102 320.094 449.702 329.003C465.452 347.56 467.581 374.576 486.39 390.816C498.318 401.113 514.199 406.412 518.231 423.4C518.984 426.575 521.238 431.81 518.386 434.18C514.133 433.651 513.086 418.421 507.937 413.371C497.216 402.855 483.379 397.729 474.62 385.243C459.855 365.031 457.173 339.014 436.335 322.985C429.039 317.372 425.421 313.562 415.316 315.324C413.181 314.575 413.141 314.599 411.919 312.795Z"/><path fill="#28A6FD" fill-opacity="0.42745098" d="M651.28 358.615C651.414 355.705 650.307 350.671 650.362 347.636C650.473 341.532 648.315 316.02 652.238 312.63L653.085 312.758C656.465 316.352 655.842 328.886 656.241 334.828C656.878 336.301 656.671 343.034 656.719 344.997L660.146 346.436C660.253 350.135 659.787 352.885 662.143 355.535L668.483 355.539C671.506 355.468 686.905 353.877 686.706 358.214C682.294 362.836 654.764 362.64 651.28 358.615Z"/><path fill="#FDFDEA" d="M656.241 334.828C656.878 336.301 656.671 343.034 656.719 344.997L660.146 346.436C660.253 350.135 659.787 352.885 662.143 355.535L656.213 355.456C656.174 348.907 655.947 341.264 656.241 334.828Z"/><path d="M143.081 360.589C143.653 360.611 144.36 360.723 144.942 360.795L145.304 361.425C145.181 361.952 145.213 361.973 144.881 362.511C140.743 369.207 91.7997 382.436 81.4053 384.584C75.3943 385.826 69.3109 386.293 63.2075 386.836L61.529 387.023L61.3011 386.684C71.268 380.233 104.861 372.499 117.255 368.667C123.337 366.786 137.245 362.018 143.081 360.589Z"/><path fill="#28A6FD" fill-opacity="0.42745098" d="M664.439 308.266C672.7 308.245 681.769 307.381 688.876 311.532C689.781 317.16 694.501 347.191 688.864 349.505C687.582 349.23 687.443 348.821 686.556 347.814C684.818 340.013 684.47 323.285 684.466 315.203C677.904 314.561 671.188 314.732 664.617 314.17C662.148 313.959 655.994 313.61 656.673 310.211C658.63 308.278 661.649 308.465 664.439 308.266Z"/><path fill="#28A6FD" fill-opacity="0.42745098" d="M672.061 281.914C677.147 281.459 680.974 283.298 682.813 288.152C685.559 295.4 681.397 299.448 675.343 301.625C670.681 302.119 666.747 300.465 664.799 295.959C663.773 293.578 663.733 290.888 664.687 288.479C666.186 284.762 668.667 283.39 672.061 281.914Z"/><path fill="#FDFDEA" d="M672.549 287.534C678.256 287.626 680.609 292.115 675.246 296.273C668.546 296.152 668.365 291.824 672.549 287.534Z"/><path d="M376.584 323.684C374.569 322.593 373.016 321.779 372.078 319.617C373.444 313.219 383.184 323.379 385.853 324.344C388.129 324.113 388.637 324.098 390.899 324.392C391.487 326.349 391.543 325.646 391.13 327.508C389.749 329.149 388.277 329.227 386.248 329.385C384.573 329.221 382.686 328.549 381.049 328.05C380.52 333.607 380.592 353.115 374.447 355.19C371.087 354.93 363.345 348.844 362.65 345.272C363.187 343.927 362.75 344.474 364.155 343.709C367.012 343.685 370.805 347.322 373.569 349.231C376.21 339.361 374.744 332.071 376.584 323.684Z"/><path fill="#28A6FD" fill-opacity="0.42745098" d="M813.586 318.96C814.54 319.097 814.759 319.203 815.677 319.531C818.697 325.101 816.577 350.018 817.939 357.375C818.435 360.059 817.824 366.945 816.043 369.137C813.304 366.446 811.983 361.89 811.796 358.275C811.436 351.273 809.768 323.667 813.586 318.96Z"/><path fill="#28A6FD" fill-opacity="0.42745098" d="M764.311 350.135C766.298 346.395 770.674 344.61 774.71 345.895C778.746 347.179 781.286 351.165 780.745 355.366C780.205 359.566 776.738 362.78 772.509 363.001C768.28 363.222 764.497 360.387 763.522 356.266L761.604 355.552C762.093 354.087 762.172 352.516 761.832 351.01L762.625 351.324L764.311 350.135Z"/><path fill="#FDFDEA" d="M761.832 351.01L762.625 351.324L764.311 350.135C763.312 352.015 763.032 354.195 763.522 356.266L761.604 355.552C762.093 354.087 762.172 352.516 761.832 351.01Z"/><path fill="#FDFDEA" d="M771.552 350.957C773.796 351.408 775.397 351.896 775.395 354.377C774.631 356.164 773.579 356.804 772.088 358.059C771.177 357.694 769.422 356.103 768.573 355.405C769.473 353.115 769.597 352.347 771.552 350.957Z"/><path d="M95.9896 309.572C107.186 309.521 125.982 313.591 135.5 319.75C130.551 319.052 125.605 318.328 120.662 317.578C116.343 316.9 110.744 316.032 106.39 315.8C96.0859 315.251 88.7325 315.56 78.7026 311.944C85.5189 310.49 89.0675 309.778 95.9896 309.572Z"/><path fill="#28A6FD" fill-opacity="0.42745098" d="M761.604 355.552C760.264 359.569 756.163 361.979 752.001 361.195C747.84 360.411 744.896 356.674 745.109 352.445C745.322 348.216 748.626 344.793 752.845 344.431C757.064 344.069 760.902 346.879 761.832 351.01C762.172 352.516 762.093 354.087 761.604 355.552Z"/><path fill="#FDFDEA" d="M753.457 349.511C757.77 350.946 757.149 353.502 754.355 356.073C751.851 355.7 750.77 355.412 750.697 352.85C751.503 351.017 751.876 350.866 753.457 349.511Z"/><path fill="#28A6FD" fill-opacity="0.42745098" d="M787.211 345.52C791.544 345.156 796.167 345.734 798.225 350.222C799.067 352.031 799.119 354.108 798.367 355.957C797.152 358.937 795.253 360.017 792.493 361.24C788.846 362.189 785.02 361.073 783.013 357.736C781.808 355.728 781.474 353.316 782.087 351.057C782.919 347.969 784.592 346.94 787.211 345.52Z"/><path fill="#FDFDEA" d="M789.559 350.382C791.317 350.68 791.871 350.912 792.893 352.146C793.196 353.726 792.664 354.385 791.954 355.854L789.488 355.846C788.038 355.039 788.505 355.61 787.941 354.157C788.135 352.366 788.561 351.967 789.559 350.382Z"/><path d="M73.1537 332.139C76.6914 332.041 79.1126 332.82 81.0031 336.093C81.1693 337.804 81.3892 337.093 80.6333 338.369C79.1452 338.946 76.4197 337.898 74.85 337.436C66.8631 339.631 71.2376 349.575 74.4124 354.148C76.9599 353.084 79.1533 352.028 81.8602 351.481L82.6027 352.024C81.3638 356.074 78.545 360.03 73.903 358.731C67.1523 356.84 63.5607 346.044 65.6574 339.875C67.0137 335.885 69.5963 333.861 73.1537 332.139Z"/><path d="M89.297 333.974C89.7835 334.069 91.1124 334.368 91.3188 334.896C93.3741 340.15 93.1876 344.048 96.325 349.013C99.1671 343.874 98.803 336.839 102.046 334.488C103.461 334.442 102.828 334.245 103.98 335.185C104.764 336.923 104.498 339.053 104.46 341.038C103.258 350.818 96.3795 360.104 89.1459 347.154C87.6721 344.515 87.9571 336.929 89.297 333.974Z"/><path d="M318.991 315.871C322.312 315.73 325.481 316.783 327.862 319.152C330.218 321.461 331.492 324.655 331.373 327.951C331.177 332.212 329.051 334.621 324.658 334.082C323.455 333.12 323.887 333.72 323.424 332.148C323.681 330.56 324.086 330.28 325.148 328.944L325.503 328.505L325.84 328.231C326.706 325.701 323.573 321.732 321.341 320.944C317.982 322.172 319.052 326.404 315.679 328.151C312.986 327.494 312.075 324.154 313.032 321.732C314.414 318.235 315.668 317.425 318.991 315.871Z"/><path d="M120.961 324.976C122.328 324.911 122.271 324.944 123.597 325.346C124.722 328.391 121.744 329.599 119.487 330.734C119.563 331.069 119.634 331.406 119.698 331.743C120.498 335.879 121.722 343.446 119.321 347.037C117.678 347.92 118.077 347.63 115.961 347.608C114.758 343.174 115.19 336.8 114.438 332.293C114.362 331.839 111.421 331.319 110.102 329.211L110.392 328.432C113.214 326.008 117.255 325.678 120.961 324.976Z"/><path d="M134.291 327.115L136.014 327.366C139.192 329.21 139.279 339.129 138.033 342.277C137.814 342.285 136.846 342.377 136.594 342.331C131.85 341.464 133.523 329.47 134.291 327.115Z"/><path d="M134.761 346.497C136.232 346.047 137.79 346.871 138.246 348.339C138.703 349.808 137.887 351.37 136.421 351.834C134.945 352.301 133.37 351.478 132.91 349.999C132.45 348.521 133.28 346.95 134.761 346.497Z"/></svg>