<?xml version="1.0" encoding="utf-8" ?><svg xmlns="http://www.w3.org/2000/svg" xmlns:xlink="http://www.w3.org/1999/xlink" width="95" height="100" viewBox="0 0 95 100"><clipPath id="cl_3"><rect x="0.00026416779" y="-2.0980835e-05" width="94.594597" height="100.00001"/></clipPath><g clip-path="url(#cl_3)"><path fill="#060606" fill-opacity="0.8392157" transform="matrix(2.7027 0 0 2.7027 -10.8105 -21.6216)" d="M20.1859 10.1058C22.2899 9.82991 33.8954 10.0556 36.211 10.2299C36.7771 10.5752 36.8356 10.7181 37.0583 11.3356L36.8088 11.8492C33.3129 13.9958 19.8739 10.7995 16.8759 14.4458C14.265 17.6215 18.0443 21.9931 22.177 21.014C23.9529 20.5933 32.7056 21.6627 33.8797 20.3064C33.9403 19.7345 34.1334 18.7086 33.8531 18.2254C31.8158 17.8823 23.871 18.9907 23.8709 16.8108C24.0031 16.6451 24.2578 16.2227 24.4205 16.1217C25.0388 15.7378 34.5929 16.0174 36.6923 15.6497L36.7937 28.6117C31.2169 28.3777 25.4789 28.7812 19.9575 28.5025C14.1927 28.2114 13.4198 24.4939 10.5397 20.9878C14.4053 32.895 21.1795 30.8915 31.9375 30.7938C34.1466 30.7271 35.2328 30.4328 37.0505 31.5889L37.0238 32.3959C36.9668 32.447 36.909 32.4889 36.842 32.526C34.4154 33.8704 20.1239 33.4451 17.0581 32.5563C14.4656 31.8048 11.7002 30.2195 10.5662 27.6524C10.1421 26.6925 10.0226 25.687 9.50579 24.7468L9.21158 24.8489C8.92041 25.5062 9.10132 26.0811 9.32718 26.7214C12.5474 35.8513 19.7667 35.5381 28.1069 35.3651C30.9974 35.3201 33.8873 35.2368 36.7756 35.1153L36.7734 42.7657C27.6454 42.1979 16.5043 44.34 9.74483 38.5737C6.51015 35.8071 4.51655 31.8616 4.2083 27.6163C3.64673 20.3814 7.87103 13.6989 14.6602 11.0411C16.4328 10.3472 18.3037 10.2496 20.1859 10.1058Z"/><path fill="#060606" fill-opacity="0.8392157" transform="matrix(2.7027 0 0 2.7027 -10.8105 -21.6216)" d="M52.2512 14.8118C59.4105 14.1309 63.0196 16.942 65.4993 23.3746C63.792 23.458 61.9376 23.3085 60.2411 23.1402C58.9303 21.4911 58.4848 20.5222 56.4387 19.5779C53.1494 18.0599 49.9615 19.8585 48.5686 23.0059C46.7647 27.0818 47.2524 33.9029 51.794 35.9975C53.1289 36.6132 55.0841 36.826 56.468 36.2423C58.6255 35.3365 59.5141 33.2513 60.3919 31.2517L54.8522 31.1307C54.8402 29.691 54.7952 28.3363 54.9856 26.9064C57.3 26.5742 62.0532 26.8637 65.0181 26.5672C65.2502 29.9724 65.1825 36.6974 65.1195 40.2867C63.6865 40.176 62.7474 40.3267 61.2125 40.0734C60.6913 39.5124 60.8511 39.3337 60.7978 38.4011C60.1819 38.0509 57.1065 40.6818 55.2997 40.8902C39.9388 42.6619 37.0464 17.6669 52.2512 14.8118Z"/></g></svg>