<?xml version="1.0" encoding="utf-8" ?><svg xmlns="http://www.w3.org/2000/svg" xmlns:xlink="http://www.w3.org/1999/xlink" width="1907" height="777" viewBox="0 0 1907 777" xmlns:c2pa="http://c2pa.org/manifest"><metadata><c2pa:manifest>AAAk4Wp1bWIAAAAeanVtZGMycGEAEQAQgAAAqgA4m3EDYzJwYQAAAA6CanVtYgAAAEdqdW1kYzJtYQARABCAAACqADibcQN1cm46YzJwYTo1MGE1MGQ2Ny0wY2EwLTQzZmUtOWViMC04YjY1Zjg3N2M1ZmMAAAADs2p1bWIAAAApanVtZGMyYXMAEQAQgAAAqgA4m3EDYzJwYS5hc3NlcnRpb25zAAAAAMlqdW1iAAAARGp1bWRjYm9yABEAEIAAAKoAOJtxE2MycGEuaW5ncmVkaWVudC52MwAAAAAYYzJzaKoygKnoUCv17mTuR8uV/rsAAAB9Y2JvcqRscmVsYXRpb25zaGlwaHBhcmVudE9maGRjOnRpdGxlZnNvdXJjZWlkYzpmb3JtYXRqaW1hZ2Uvd2VicGppbnN0YW5jZUlEeCx4bXA6aWlkOmM2MTBmYmEwLTk0MDUtNDViOS04MzFlLTUzZGNkYTU5ZDAzMwAAAfVqdW1iAAAAQWp1bWRjYm9yABEAEIAAAKoAOJtxE2MycGEuYWN0aW9ucy52MgAAAAAYYzJzaDLykbbfeUirh3YSrb0n0E0AAAGsY2JvcqFnYWN0aW9uc4KiZmFjdGlvbmtjMnBhLm9wZW5lZGpwYXJhbWV0ZXJzoWtpbmdyZWRpZW50c4GiY3VybHgtc2VsZiNqdW1iZj1jMnBhLmFzc2VydGlvbnMvYzJwYS5pbmdyZWRpZW50LnYzZGhhc2hYIAPVDXe0sey69JXX0inst64gX1j3ElWYfMLuNf+wnWBrpGZhY3Rpb25rYzJwYS5lZGl0ZWRqcGFyYW1ldGVyc6FraW5ncmVkaWVudHOBomN1cmx4LXNlbGYjanVtYmY9YzJwYS5hc3NlcnRpb25zL2MycGEuaW5ncmVkaWVudC52M2RoYXNoWCAD1Q13tLHsuvSV19Ip7LeuIF9Y9xJVmHzC7jX/sJ1ga3FkaWdpdGFsU291cmNlVHlwZXhTaHR0cDovL2N2LmlwdGMub3JnL25ld3Njb2Rlcy9kaWdpdGFsc291cmNldHlwZS9jb21wb3NpdGVXaXRoVHJhaW5lZEFsZ29yaXRobWljTWVkaWFrZGVzY3JpcHRpb252Q3JlYXRlZCBieSBSZWNyYWZ0IEFJLgAAAMRqdW1iAAAAQGp1bWRjYm9yABEAEIAAAKoAOJtxE2MycGEuaGFzaC5kYXRhAAAAABhjMnNooDpBo3HyTRlyWh/2gGPHFAAAAHxjYm9ypWpleGNsdXNpb25zgaJlc3RhcnQY2WZsZW5ndGgZE4xkbmFtZW5qdW1iZiBtYW5pZmVzdGNhbGdmc2hhMjU2ZGhhc2hYIA4r0rzONIClxe3YYRGD/TatljU5pEAlGvMdZl+TfP3bY3BhZEkAAAAAAAAAAAAAAAKkanVtYgAAACdqdW1kYzJjbAARABCAAACqADibcQNjMnBhLmNsYWltLnYyAAAAAnVjYm9yp2ppbnN0YW5jZUlEeCx4bXA6aWlkOjk0NDc1N2ExLTQ0ODgtNGQxNC1iN2Q3LWYxMDdiNWNkYzA4MHRjbGFpbV9nZW5lcmF0b3JfaW5mb6NkbmFtZWpyZWNyYWZ0LmFpZ3ZlcnNpb254KDgxY2U4MmUyYzVjM2NiZmJlOGM2ZmJlMTc5ZDVmOGQ5MWM0MDljZTF3b3JnLmNvbnRlbnRhdXRoLmMycGFfcnNmMC45MC43aXNpZ25hdHVyZXhNc2VsZiNqdW1iZj0vYzJwYS91cm46YzJwYTo1MGE1MGQ2Ny0wY2EwLTQzZmUtOWViMC04YjY1Zjg3N2M1ZmMvYzJwYS5zaWduYXR1cmVyY3JlYXRlZF9hc3NlcnRpb25zgqJjdXJseCpzZWxmI2p1bWJmPWMycGEuYXNzZXJ0aW9ucy9jMnBhLmFjdGlvbnMudjJkaGFzaFggkJDHk1cOz68CN2YByQlSPRWjY9WYmYQZ4cOQsiVDYl2iY3VybHgpc2VsZiNqdW1iZj1jMnBhLmFzc2VydGlvbnMvYzJwYS5oYXNoLmRhdGFkaGFzaFggPQLVDd7i53GGTBHkCKYvM+KmGbnGifBPf+QD5/XlHqBzZ2F0aGVyZWRfYXNzZXJ0aW9uc4GiY3VybHgtc2VsZiNqdW1iZj1jMnBhLmFzc2VydGlvbnMvYzJwYS5pbmdyZWRpZW50LnYzZGhhc2hYIAPVDXe0sey69JXX0inst64gX1j3ElWYfMLuNf+wnWBraGRjOnRpdGxleBpSZWNyYWZ0IEFJIEdlbmVyYXRlZCBJbWFnZWNhbGdmc2hhMjU2AAAH3Gp1bWIAAAAoanVtZGMyY3MAEQAQgAAAqgA4m3EDYzJwYS5zaWduYXR1cmUAAAAHrGNib3LShFkDsKIBJhghglkB5zCCAeMwggGJoAMCAQICCQC33lpjQ1FuejAKBggqhkjOPQQDAjBAMR8wHQYDVQQDDBZSZWNyYWZ0IFN0YWdpbmcgRGV2IENBMRAwDgYDVQQKDAdSZWNyYWZ0MQswCQYDVQQGEwJVUzAeFw0yNjA2MTIxOTQzNTBaFw0yNzA2MTIxOTQzNTBaMDcxCzAJBgNVBAYTAlVTMRMwEQYDVQQKEwpSZWNyYWZ0IEFJMRMwEQYDVQQDEwpyZWNyYWZ0LmFpMFkwEwYHKoZIzj0CAQYIKoZIzj0DAQcDQgAESmk1WwArIPw3hty3jsWHSA/1QOhBRu9xOjpJ2/iiIghScoEVM+Lnjds/7dqmG+giFL0vEb4DoogpX6KrGLcPNaN1MHMwDAYDVR0TAQH/BAIwADAOBgNVHQ8BAf8EBAMCBsAwEwYDVR0lBAwwCgYIKwYBBQUHAwQwHQYDVR0OBBYEFC8x6QXp/eki9cuCDx2vDJDLIV39MB8GA1UdIwQYMBaAFAILKjgayqqXSv/5v5MWaO2UeHm3MAoGCCqGSM49BAMCA0gAMEUCIFPISltGl775PEkIFRTZGsevWJvWnvBrE9kWU0MPgedQAiEAtA+AZBKEQ+DdK9mUZDctB2Wlt1iAsv0GRjfeYpReMsxZAb0wggG5MIIBX6ADAgECAgkAnPloO0+gE28wCgYIKoZIzj0EAwIwQDEfMB0GA1UEAwwWUmVjcmFmdCBTdGFnaW5nIERldiBDQTEQMA4GA1UECgwHUmVjcmFmdDELMAkGA1UEBhMCVVMwHhcNMjYwNjEyMTk0MDE2WhcNMjgwNjExMTk0MDE2WjBAMR8wHQYDVQQDDBZSZWNyYWZ0IFN0YWdpbmcgRGV2IENBMRAwDgYDVQQKDAdSZWNyYWZ0MQswCQYDVQQGEwJVUzBZMBMGByqGSM49AgEGCCqGSM49AwEHA0IABEPSEAZXFWymij2K0EnzoS/9NLO8VAwu0YpyLizvyNZPfcvcoeqFhfZD8Wj/rcdb9T3ji98q1arie99B9GRog8qjQjBAMA8GA1UdEwEB/wQFMAMBAf8wDgYDVR0PAQH/BAQDAgGGMB0GA1UdDgQWBBQCCyo4Gsqql0r/+b+TFmjtlHh5tzAKBggqhkjOPQQDAgNIADBFAiBUMDSJi5WA3kIY4BfmYqk24HLs0qpjicN0NpUP4bvNxQIhAPTvHC5v8X6FS6geI7XW7h84t1i/qdkTfg0RpMKWLMFboWNwYWRZA6QAAAAAAAAAAAAAAAAAAAAAAAAAAAAAAAAAAAAAAAAAAAAAAAAAAAAAAAAAAAAAAAAAAAAAAAAAAAAAAAAAAAAAAAAAAAAAAAAAAAAAAAAAAAAAAAAAAAAAAAAAAAAAAAAAAAAAAAAAAAAAAAAAAAAAAAAAAAAAAAAAAAAAAAAAAAAAAAAAAAAAAAAAAAAAAAAAAAAAAAAAAAAAAAAAAAAAAAAAAAAAAAAAAAAAAAAAAAAAAAAAAAAAAAAAAAAAAAAAAAAAAAAAAAAAAAAAAAAAAAAAAAAAAAAAAAAAAAAAAAAAAAAAAAAAAAAAAAAAAAAAAAAAAAAAAAAAAAAAAAAAAAAAAAAAAAAAAAAAAAAAAAAAAAAAAAAAAAAAAAAAAAAAAAAAAAAAAAAAAAAAAAAAAAAAAAAAAAAAAAAAAAAAAAAAAAAAAAAAAAAAAAAAAAAAAAAAAAAAAAAAAAAAAAAAAAAAAAAAAAAAAAAAAAAAAAAAAAAAAAAAAAAAAAAAAAAAAAAAAAAAAAAAAAAAAAAAAAAAAAAAAAAAAAAAAAAAAAAAAAAAAAAAAAAAAAAAAAAAAAAAAAAAAAAAAAAAAAAAAAAAAAAAAAAAAAAAAAAAAAAAAAAAAAAAAAAAAAAAAAAAAAAAAAAAAAAAAAAAAAAAAAAAAAAAAAAAAAAAAAAAAAAAAAAAAAAAAAAAAAAAAAAAAAAAAAAAAAAAAAAAAAAAAAAAAAAAAAAAAAAAAAAAAAAAAAAAAAAAAAAAAAAAAAAAAAAAAAAAAAAAAAAAAAAAAAAAAAAAAAAAAAAAAAAAAAAAAAAAAAAAAAAAAAAAAAAAAAAAAAAAAAAAAAAAAAAAAAAAAAAAAAAAAAAAAAAAAAAAAAAAAAAAAAAAAAAAAAAAAAAAAAAAAAAAAAAAAAAAAAAAAAAAAAAAAAAAAAAAAAAAAAAAAAAAAAAAAAAAAAAAAAAAAAAAAAAAAAAAAAAAAAAAAAAAAAAAAAAAAAAAAAAAAAAAAAAAAAAAAAAAAAAAAAAAAAAAAAAAAAAAAAAAAAAAAAAAAAAAAAAAAAAAAAAAAAAAAAAAAAAAAAAAAAAAAAAAAAAAAAAAAAAAAAAAAAAAAAAAAAAAAAAAAAAAAAAAAAAAAAAAAAAAAAAAAAAAAAAAAAAAAAAAAAAAAAAAAAAAAAAAAAAAAAAAAAAAAAAAAAAAAAAAAAAAAAAAAAAAAAAAAAAAAAAAAAAAAAAAAAAAAPZYQHG8OfaY4fmi/siBm4H6yNb2guYSO5Vhs52IuoyjoJ+GZxWeLC+roSn2fUl5UxDeAC73+KpzDaxKVsg+F4Jv3mYAABY5anVtYgAAAEdqdW1kYzJtYQARABCAAACqADibcQN1cm46YzJwYTpjZTZiYjZlZi0zODAzLTQyZWItOTQ1NC04NGRlMjg2NjdjNjUAAAALeGp1bWIAAAApanVtZGMyYXMAEQAQgAAAqgA4m3EDYzJwYS5hc3NlcnRpb25zAAAACJVqdW1iAAAARGp1bWRjYm9yABEAEIAAAKoAOJtxE2MycGEuaW5ncmVkaWVudC52MwAAAAAYYzJzaDFJFvK3ZTPr0IPnQV4F4uYAAAhJY2JvcqdscmVsYXRpb25zaGlwaHBhcmVudE9maGRjOnRpdGxlZnNvdXJjZWlkYzpmb3JtYXRtaW1hZ2Uvc3ZnK3htbHF2YWxpZGF0aW9uUmVzdWx0c6JuYWN0aXZlTWFuaWZlc3SjZ3N1Y2Nlc3OGo2Rjb2RleB1jbGFpbVNpZ25hdHVyZS5pbnNpZGVWYWxpZGl0eWN1cmx4TXNlbGYjanVtYmY9L2MycGEvdXJuOmMycGE6NTBhNTBkNjctMGNhMC00M2ZlLTllYjAtOGI2NWY4NzdjNWZjL2MycGEuc2lnbmF0dXJla2V4cGxhbmF0aW9udWNsYWltIHNpZ25hdHVyZSB2YWxpZKNkY29kZXgYY2xhaW1TaWduYXR1cmUudmFsaWRhdGVkY3VybHhNc2VsZiNqdW1iZj0vYzJwYS91cm46YzJwYTo1MGE1MGQ2Ny0wY2EwLTQzZmUtOWViMC04YjY1Zjg3N2M1ZmMvYzJwYS5zaWduYXR1cmVrZXhwbGFuYXRpb251Y2xhaW0gc2lnbmF0dXJlIHZhbGlko2Rjb2RleBlhc3NlcnRpb24uaGFzaGVkVVJJLm1hdGNoY3VybHhec2VsZiNqdW1iZj0vYzJwYS91cm46YzJwYTo1MGE1MGQ2Ny0wY2EwLTQzZmUtOWViMC04YjY1Zjg3N2M1ZmMvYzJwYS5hc3NlcnRpb25zL2MycGEuYWN0aW9ucy52MmtleHBsYW5hdGlvbng+aGFzaGVkIHVyaSBtYXRjaGVkOiBzZWxmI2p1bWJmPWMycGEuYXNzZXJ0aW9ucy9jMnBhLmFjdGlvbnMudjKjZGNvZGV4GWFzc2VydGlvbi5oYXNoZWRVUkkubWF0Y2hjdXJseF1zZWxmI2p1bWJmPS9jMnBhL3VybjpjMnBhOjUwYTUwZDY3LTBjYTAtNDNmZS05ZWIwLThiNjVmODc3YzVmYy9jMnBhLmFzc2VydGlvbnMvYzJwYS5oYXNoLmRhdGFrZXhwbGFuYXRpb254PWhhc2hlZCB1cmkgbWF0Y2hlZDogc2VsZiNqdW1iZj1jMnBhLmFzc2VydGlvbnMvYzJwYS5oYXNoLmRhdGGjZGNvZGV4GWFzc2VydGlvbi5oYXNoZWRVUkkubWF0Y2hjdXJseGFzZWxmI2p1bWJmPS9jMnBhL3VybjpjMnBhOjUwYTUwZDY3LTBjYTAtNDNmZS05ZWIwLThiNjVmODc3YzVmYy9jMnBhLmFzc2VydGlvbnMvYzJwYS5pbmdyZWRpZW50LnYza2V4cGxhbmF0aW9ueEFoYXNoZWQgdXJpIG1hdGNoZWQ6IHNlbGYjanVtYmY9YzJwYS5hc3NlcnRpb25zL2MycGEuaW5ncmVkaWVudC52M6NkY29kZXgYYXNzZXJ0aW9uLmRhdGFIYXNoLm1hdGNoY3VybHhdc2VsZiNqdW1iZj0vYzJwYS91cm46YzJwYTo1MGE1MGQ2Ny0wY2EwLTQzZmUtOWViMC04YjY1Zjg3N2M1ZmMvYzJwYS5hc3NlcnRpb25zL2MycGEuaGFzaC5kYXRha2V4cGxhbmF0aW9ub2RhdGEgaGFzaCB2YWxpZG1pbmZvcm1hdGlvbmFsgGdmYWlsdXJlgaNkY29kZXgbc2lnbmluZ0NyZWRlbnRpYWwudW50cnVzdGVkY3VybHhNc2VsZiNqdW1iZj0vYzJwYS91cm46YzJwYTo1MGE1MGQ2Ny0wY2EwLTQzZmUtOWViMC04YjY1Zjg3N2M1ZmMvYzJwYS5zaWduYXR1cmVrZXhwbGFuYXRpb254HXNpZ25pbmcgY2VydGlmaWNhdGUgdW50cnVzdGVkcGluZ3JlZGllbnREZWx0YXOBonZpbmdyZWRpZW50QXNzZXJ0aW9uVVJJeGFzZWxmI2p1bWJmPS9jMnBhL3VybjpjMnBhOjUwYTUwZDY3LTBjYTAtNDNmZS05ZWIwLThiNjVmODc3YzVmYy9jMnBhLmFzc2VydGlvbnMvYzJwYS5pbmdyZWRpZW50LnYzcHZhbGlkYXRpb25EZWx0YXOjZ3N1Y2Nlc3OAbWluZm9ybWF0aW9uYWyBo2Rjb2RleBxpbmdyZWRpZW50LnVua25vd25Qcm92ZW5hbmNlY3VybHhhc2VsZiNqdW1iZj0vYzJwYS91cm46YzJwYTo1MGE1MGQ2Ny0wY2EwLTQzZmUtOWViMC04YjY1Zjg3N2M1ZmMvYzJwYS5hc3NlcnRpb25zL2MycGEuaW5ncmVkaWVudC52M2tleHBsYW5hdGlvbngrc291cmNlOiBpbmdyZWRpZW50IGRvZXMgbm90IGhhdmUgcHJvdmVuYW5jZWdmYWlsdXJlgGppbnN0YW5jZUlEeCx4bXA6aWlkOjZjN2IyMTMwLWUxZjMtNDFhMS04MDNkLTc4MjY2YTc5ZGNjMG5hY3RpdmVNYW5pZmVzdKNjdXJseD5zZWxmI2p1bWJmPS9jMnBhL3VybjpjMnBhOjUwYTUwZDY3LTBjYTAtNDNmZS05ZWIwLThiNjVmODc3YzVmY2NhbGdmc2hhMjU2ZGhhc2hYIGM2KCRgmQc7FDY3PdQ3V+WWbdrfvAKtf2OgkYhV3GgubmNsYWltU2lnbmF0dXJlo2N1cmx4TXNlbGYjanVtYmY9L2MycGEvdXJuOmMycGE6NTBhNTBkNjctMGNhMC00M2ZlLTllYjAtOGI2NWY4NzdjNWZjL2MycGEuc2lnbmF0dXJlY2FsZ2ZzaGEyNTZkaGFzaFggodhT6CSfTi0G6H/C51bPkj4yLu6DG/M9QK/UQoeIk88AAAHuanVtYgAAAEFqdW1kY2JvcgARABCAAACqADibcRNjMnBhLmFjdGlvbnMudjIAAAAAGGMyc2jPF7xswWsGAC2C9jWRihYBAAABpWNib3KhZ2FjdGlvbnOComZhY3Rpb25rYzJwYS5vcGVuZWRqcGFyYW1ldGVyc6FraW5ncmVkaWVudHOBomN1cmx4LXNlbGYjanVtYmY9YzJwYS5hc3NlcnRpb25zL2MycGEuaW5ncmVkaWVudC52M2RoYXNoWCCxtW7xyQAAbI47AsQ5CAiSyODpy1NYiKeY9piB/TCRd6RmYWN0aW9ubGMycGEuY3JlYXRlZGpwYXJhbWV0ZXJzoWtpbmdyZWRpZW50c4GiY3VybHgtc2VsZiNqdW1iZj1jMnBhLmFzc2VydGlvbnMvYzJwYS5pbmdyZWRpZW50LnYzZGhhc2hYILG1bvHJAABsjjsCxDkICJLI4OnLU1iIp5j2mIH9MJF3cWRpZ2l0YWxTb3VyY2VUeXBleEFodHRwOi8vY3YuaXB0Yy5vcmcvbmV3c2NvZGVzL2RpZ2l0YWxzb3VyY2V0eXBlL2NvbXBvc2l0ZVN5bnRoZXRpY2tkZXNjcmlwdGlvbngfQ29tcG9zZWQgaW4gdGhlIFJlY3JhZnQgZWRpdG9yLgAAAMRqdW1iAAAAQGp1bWRjYm9yABEAEIAAAKoAOJtxE2MycGEuaGFzaC5kYXRhAAAAABhjMnNodVWlxOOk+KLE3DfJ2Yj58gAAAHxjYm9ypWpleGNsdXNpb25zgaJlc3RhcnQY6mZsZW5ndGgZMSxkbmFtZW5qdW1iZiBtYW5pZmVzdGNhbGdmc2hhMjU2ZGhhc2hYIFFdDoAQifgf2XCtSByXcHRYUX3EagXQt5b0/aSOmSp7Y3BhZEkAAAAAAAAAAAAAAAKWanVtYgAAACdqdW1kYzJjbAARABCAAACqADibcQNjMnBhLmNsYWltLnYyAAAAAmdjYm9yp2ppbnN0YW5jZUlEeCx4bXA6aWlkOmUzOTNhY2E0LTA2NjYtNDczNC1iY2M5LTdlN2JkMjZmYzRlZnRjbGFpbV9nZW5lcmF0b3JfaW5mb6NkbmFtZWpyZWNyYWZ0LmFpZ3ZlcnNpb254KDgxY2U4MmUyYzVjM2NiZmJlOGM2ZmJlMTc5ZDVmOGQ5MWM0MDljZTF3b3JnLmNvbnRlbnRhdXRoLmMycGFfcnNmMC45MC43aXNpZ25hdHVyZXhNc2VsZiNqdW1iZj0vYzJwYS91cm46YzJwYTpjZTZiYjZlZi0zODAzLTQyZWItOTQ1NC04NGRlMjg2NjdjNjUvYzJwYS5zaWduYXR1cmVyY3JlYXRlZF9hc3NlcnRpb25zgqJjdXJseCpzZWxmI2p1bWJmPWMycGEuYXNzZXJ0aW9ucy9jMnBhLmFjdGlvbnMudjJkaGFzaFggKDe/xmr8qLEA2Cg/9TjQyEHB3vA7E9AaQLyGgYGrtfGiY3VybHgpc2VsZiNqdW1iZj1jMnBhLmFzc2VydGlvbnMvYzJwYS5oYXNoLmRhdGFkaGFzaFggPzzSuIZpXpb9c0Xs8YLqXtfjrmXTrw8N1ZkOYwdRz8xzZ2F0aGVyZWRfYXNzZXJ0aW9uc4GiY3VybHgtc2VsZiNqdW1iZj1jMnBhLmFzc2VydGlvbnMvYzJwYS5pbmdyZWRpZW50LnYzZGhhc2hYILG1bvHJAABsjjsCxDkICJLI4OnLU1iIp5j2mIH9MJF3aGRjOnRpdGxlbVJlY3JhZnQgSW1hZ2VjYWxnZnNoYTI1NgAAB9xqdW1iAAAAKGp1bWRjMmNzABEAEIAAAKoAOJtxA2MycGEuc2lnbmF0dXJlAAAAB6xjYm9y0oRZA7CiASYYIYJZAecwggHjMIIBiaADAgECAgkAt95aY0NRbnowCgYIKoZIzj0EAwIwQDEfMB0GA1UEAwwWUmVjcmFmdCBTdGFnaW5nIERldiBDQTEQMA4GA1UECgwHUmVjcmFmdDELMAkGA1UEBhMCVVMwHhcNMjYwNjEyMTk0MzUwWhcNMjcwNjEyMTk0MzUwWjA3MQswCQYDVQQGEwJVUzETMBEGA1UEChMKUmVjcmFmdCBBSTETMBEGA1UEAxMKcmVjcmFmdC5haTBZMBMGByqGSM49AgEGCCqGSM49AwEHA0IABEppNVsAKyD8N4bct47Fh0gP9UDoQUbvcTo6Sdv4oiIIUnKBFTPi543bP+3aphvoIhS9LxG+A6KIKV+iqxi3DzWjdTBzMAwGA1UdEwEB/wQCMAAwDgYDVR0PAQH/BAQDAgbAMBMGA1UdJQQMMAoGCCsGAQUFBwMEMB0GA1UdDgQWBBQvMekF6f3pIvXLgg8drwyQyyFd/TAfBgNVHSMEGDAWgBQCCyo4Gsqql0r/+b+TFmjtlHh5tzAKBggqhkjOPQQDAgNIADBFAiBTyEpbRpe++TxJCBUU2RrHr1ib1p7waxPZFlNDD4HnUAIhALQPgGQShEPg3SvZlGQ3LQdlpbdYgLL9BkY33mKUXjLMWQG9MIIBuTCCAV+gAwIBAgIJAJz5aDtPoBNvMAoGCCqGSM49BAMCMEAxHzAdBgNVBAMMFlJlY3JhZnQgU3RhZ2luZyBEZXYgQ0ExEDAOBgNVBAoMB1JlY3JhZnQxCzAJBgNVBAYTAlVTMB4XDTI2MDYxMjE5NDAxNloXDTI4MDYxMTE5NDAxNlowQDEfMB0GA1UEAwwWUmVjcmFmdCBTdGFnaW5nIERldiBDQTEQMA4GA1UECgwHUmVjcmFmdDELMAkGA1UEBhMCVVMwWTATBgcqhkjOPQIBBggqhkjOPQMBBwNCAARD0hAGVxVspoo9itBJ86Ev/TSzvFQMLtGKci4s78jWT33L3KHqhYX2Q/Fo/63HW/U944vfKtWq4nvfQfRkaIPKo0IwQDAPBgNVHRMBAf8EBTADAQH/MA4GA1UdDwEB/wQEAwIBhjAdBgNVHQ4EFgQUAgsqOBrKqpdK//m/kxZo7ZR4ebcwCgYIKoZIzj0EAwIDSAAwRQIgVDA0iYuVgN5CGOAX5mKpNuBy7NKqY4nDdDaVD+G7zcUCIQD07xwub/F+hUuoHiO11u4fOLdYv6nZE34NEaTClizBW6FjcGFkWQOkAAAAAAAAAAAAAAAAAAAAAAAAAAAAAAAAAAAAAAAAAAAAAAAAAAAAAAAAAAAAAAAAAAAAAAAAAAAAAAAAAAAAAAAAAAAAAAAAAAAAAAAAAAAAAAAAAAAAAAAAAAAAAAAAAAAAAAAAAAAAAAAAAAAAAAAAAAAAAAAAAAAAAAAAAAAAAAAAAAAAAAAAAAAAAAAAAAAAAAAAAAAAAAAAAAAAAAAAAAAAAAAAAAAAAAAAAAAAAAAAAAAAAAAAAAAAAAAAAAAAAAAAAAAAAAAAAAAAAAAAAAAAAAAAAAAAAAAAAAAAAAAAAAAAAAAAAAAAAAAAAAAAAAAAAAAAAAAAAAAAAAAAAAAAAAAAAAAAAAAAAAAAAAAAAAAAAAAAAAAAAAAAAAAAAAAAAAAAAAAAAAAAAAAAAAAAAAAAAAAAAAAAAAAAAAAAAAAAAAAAAAAAAAAAAAAAAAAAAAAAAAAAAAAAAAAAAAAAAAAAAAAAAAAAAAAAAAAAAAAAAAAAAAAAAAAAAAAAAAAAAAAAAAAAAAAAAAAAAAAAAAAAAAAAAAAAAAAAAAAAAAAAAAAAAAAAAAAAAAAAAAAAAAAAAAAAAAAAAAAAAAAAAAAAAAAAAAAAAAAAAAAAAAAAAAAAAAAAAAAAAAAAAAAAAAAAAAAAAAAAAAAAAAAAAAAAAAAAAAAAAAAAAAAAAAAAAAAAAAAAAAAAAAAAAAAAAAAAAAAAAAAAAAAAAAAAAAAAAAAAAAAAAAAAAAAAAAAAAAAAAAAAAAAAAAAAAAAAAAAAAAAAAAAAAAAAAAAAAAAAAAAAAAAAAAAAAAAAAAAAAAAAAAAAAAAAAAAAAAAAAAAAAAAAAAAAAAAAAAAAAAAAAAAAAAAAAAAAAAAAAAAAAAAAAAAAAAAAAAAAAAAAAAAAAAAAAAAAAAAAAAAAAAAAAAAAAAAAAAAAAAAAAAAAAAAAAAAAAAAAAAAAAAAAAAAAAAAAAAAAAAAAAAAAAAAAAAAAAAAAAAAAAAAAAAAAAAAAAAAAAAAAAAAAAAAAAAAAAAAAAAAAAAAAAAAAAAAAAAAAAAAAAAAAAAAAAAAAAAAAAAAAAAAAAAAAAAAAAAAAAAAAAAAAAAAAAAAAAAAAAAAAAAAAAAAAAAAAAAAAAAAAAAAAAAAAAAAAAAAAAAAAAAAAAAAAAAAAAAAAAAAAAAAAAAAAAAAAAAAAAAAAAAAAAAAAAAAAAAAAAAAAAAAAAAAAAAAAAAAAAAD2WEBSOaAMODZtHkG38i+OqhNG+jCGAR5st1rKeJNIEReThMfRQef7LSTW27lgrfA/+op04r/UMUrj9w1hvIsQc5XX</c2pa:manifest></metadata><path fill="#EB4042" d="M0 0L1907 0L1907 777L0 777L0 0Z"/><path fill="#0F0E0E" d="M609.729 279.88C635.827 276.032 651.084 299.107 653.368 322.248C654.973 338.511 653.575 351.082 650.688 366.849C637.849 352.227 634.881 350.032 628.632 371.188C620.061 351.932 607.358 325.019 581.078 330.954C532.179 343.619 552.619 401.615 587.476 422.764C610.024 436.445 671.286 440.174 689.904 414.388C695.838 406.17 681.677 361.147 677.576 346.593C685.889 345.329 694.297 345.338 702.684 345.247C704.044 355.324 705.463 365.394 706.94 375.454C708.32 366.568 709.036 355.022 709.813 345.87C717.925 346.834 722.842 347.926 730.693 350.096L723.719 381.571C727.038 376.449 734.825 359.045 737.897 352.652C744.928 356.05 748.097 357.745 754.488 362.164C748.633 371.91 742.994 381.784 737.573 391.778C743.597 385.707 753.731 373.493 759.91 368.617C762.494 369.994 762.524 371.018 764.358 373.823C766.605 377.756 769.216 384.053 771.137 388.361C761.999 393.64 750.779 399.782 742.165 405.557C751.798 403.072 763.051 399.261 772.463 396.011C773.031 404.253 772.268 411.023 771.128 419.149L743.285 419.607L769.044 425.453C765.057 437.246 759.458 448.43 752.404 458.686C731.242 489.423 700.324 506.761 664.044 513.369L664.084 534.83L647.347 534.844C647.493 529.784 649.084 517.758 644.076 515.063C639.464 516.834 633.948 529.993 631.599 534.825L614.888 534.812L625.079 513.346C620.411 512.337 615.924 511.327 611.286 510.07C517.44 484.619 479.25 354.269 564.71 295.208C578.722 285.524 592.989 281.607 609.729 279.88Z"/><path fill="#EB4042" d="M615.353 298.661C622.317 295.977 630.138 299.435 632.844 306.394C635.549 313.352 632.118 321.189 625.173 323.919C618.194 326.661 610.317 323.209 607.6 316.218C604.882 309.227 608.357 301.358 615.353 298.661Z"/><path fill="#F9C312" d="M694.71 425.372C699.737 426.379 742.96 440.356 745.289 442.276L744.619 443.941C724.937 452.054 703.398 445.574 694.71 425.372Z"/><path fill="#EB4042" d="M677.991 441.94C678.544 441.903 679.099 441.879 679.653 441.868C698.92 441.514 713.486 457.037 713.531 476.121C707.464 470.813 679.088 447.133 677.991 441.94Z"/><path fill="#F9C312" d="M643.853 453.47C646.43 455.52 661.201 490.64 663.318 496.106L662.574 497.784C661.412 497.377 660.264 496.93 659.133 496.446C643.459 489.65 636.911 468.84 643.853 453.47Z"/><path fill="#F9C312" d="M673.233 446.64C676.728 447.603 706.525 475.228 710.249 479.55C709.47 479.618 708.689 479.675 707.908 479.72C688.791 480.79 674.038 465.347 673.233 446.64Z"/><path fill="#EB4042" d="M648.487 450.763C667.137 456.021 675.54 476.402 669.833 494.141L668.154 494.551C665.426 491.489 650.632 456.585 648.487 450.763Z"/><path fill="#EB4042" d="M620.162 448.008C633.391 457.03 632.188 475.714 625.712 488.469C623.672 490.787 623.201 491.342 620.657 493.056C618.662 490.094 619.948 454.766 620.162 448.008Z"/><path fill="#F9C312" d="M614.421 448.638L615.467 449.615C616.307 452.676 615.844 487.729 615.229 492.802L614.178 492.897L610.624 489.865C601.769 476.268 603.371 460.427 614.421 448.638Z"/><path fill="#F9C312" d="M576.581 474.119L575.777 475.046L574.473 474.779C567.06 463.215 578.466 438.098 590.72 439.147L590.068 441.688C585.598 452.289 580.69 463.431 576.581 474.119Z"/><path fill="#EB4042" d="M592.898 443.367L594.679 441.054C604.287 448.689 593.66 474.201 580.689 477.082L579.569 476.253L579.696 474.133C582.616 469.777 590.686 448.889 592.898 443.367Z"/><path fill="#EB4042" d="M573.38 424.625C576.225 432.421 568.635 441.579 562.406 445.317C555.953 449.189 553.567 449.703 546.295 449.785L546.272 448.402C554.116 440.764 564.931 431.913 573.38 424.625Z"/><path fill="#0F0E0E" d="M834.816 396.266C864.919 391.087 897.806 399.657 913.589 427.427L883.599 427.528C883.429 427.307 883.258 427.086 883.086 426.867C875.645 417.401 866.378 411.068 854.227 409.668C836.265 407.597 817.162 415.28 815.195 435.618C814.476 443.091 816.783 450.54 821.6 456.297C837.436 475.4 863.267 468.439 879.854 454.414C870.798 454.118 861.417 456.573 855.179 452.889C853.397 449.594 854.035 448.205 854.077 444.167C853.991 443.054 854.411 442.511 854.923 441.514C859.854 439.793 906.171 440.646 913.994 440.687C913.895 453.78 913.923 466.874 914.079 479.967C910.15 480.047 899.018 480.676 895.994 479.454C894.607 477.396 894.924 474.465 894.913 471.872C894.232 471.63 874.448 478.601 870.613 479.446C842.456 485.651 787.497 479.477 782.086 443.243C780.755 434.536 782.99 425.659 788.284 418.622C799.566 403.819 817.205 398.721 834.816 396.266Z"/><path fill="#0F0E0E" d="M1036.09 422.452C1054.94 422.122 1055.92 427.012 1067.41 427.909C1068.02 426.252 1068.16 425.34 1068.49 423.599C1071.68 422.407 1093.63 423.077 1098.42 423.142C1097.86 441.348 1098.29 461.753 1098.41 480.052C1093.96 480.106 1071.54 480.691 1068.65 479.634C1068.17 477.902 1068.15 476.979 1066.79 475.994L1064.17 477.109C1045.81 484.903 1018.07 483.73 1001.88 471.264C990.993 463.156 987.188 447.783 996.833 437.043C1006.73 426.027 1022.11 423.375 1036.09 422.452Z"/><path fill="#EB4042" d="M1037.62 433.3C1065.84 431.606 1072.29 461.471 1047.41 470.289C1037.06 470.983 1027.05 468.677 1023.15 457.73C1021.52 453.287 1021.75 448.374 1023.8 444.107C1026.87 437.763 1031.49 435.505 1037.62 433.3Z"/><path fill="#0F0E0E" d="M1226.38 396.138L1257.1 396.139L1257.16 447.383C1270.95 439.598 1290.55 425.682 1305.33 423.544C1308.91 423.027 1321.37 423.547 1325.62 423.697C1313.17 430.939 1300.78 438.274 1288.44 445.7L1309.62 462.895C1316.52 468.628 1323.49 474.288 1330.51 479.874C1318.34 480.373 1304.25 480.055 1291.94 480.063L1265.64 458.583L1257.18 463.976L1257.12 480.002L1226.29 480.138C1226.13 452.138 1226.17 424.138 1226.38 396.138Z"/><path fill="#0F0E0E" d="M1165.38 394.442L1174.28 394.207L1174.38 408.232C1167.39 409.654 1154.32 412.76 1155.9 422.538C1159.36 423.863 1170.61 423.356 1174.95 423.322L1174.96 437.802L1155.5 437.842L1155.52 480.167L1138.31 480.038L1124.83 480.24L1124.85 437.824L1108.25 437.827L1108.25 423.192L1124.15 423.173C1129.39 400.67 1144.89 396.582 1165.38 394.442Z"/><path fill="#0F0E0E" d="M923.971 423.411C930.408 423.22 947.481 421.86 953.466 424.554C955.176 425.323 954.693 429.099 955.306 432.235C957.94 432.449 963.21 427.648 966.943 426.429C973.841 424.177 979.711 423.771 986.885 423.172L986.897 440.663C975.953 440.19 970.503 440.229 960.504 444.388C951.616 451.919 954.644 468.876 954.971 480.081L923.9 480.311C923.773 461.344 923.797 442.377 923.971 423.411Z"/><path fill="#0F0E0E" d="M1184.53 423.368C1194.66 423.57 1205.14 423.49 1215.3 423.547C1214.99 442.172 1215.21 461.383 1215.22 480.056L1184.33 480.125C1184.29 461.937 1183.77 441.334 1184.53 423.368Z"/><path fill="#531D1E" d="M1338.22 423.298C1347.96 423.745 1359.42 423.527 1369.29 423.573C1369.17 442.335 1369.2 461.099 1369.37 479.862C1361.83 480.505 1346.3 480.083 1338.16 480.112L1338.22 423.298Z"/><path fill="#0F0E0E" d="M638.901 368.026C658.12 368.266 664.25 394.647 646.251 404.221C624.87 404.384 622.529 379.138 638.901 368.026Z"/><path fill="#0F0E0E" d="M1197.78 395.323C1205.09 395.266 1213.37 396.697 1216.06 404.448C1215.23 412.376 1210.11 413.042 1203.29 414.933L1202.86 414.926C1181.17 414.36 1174.4 399.821 1197.78 395.323Z"/><path fill="#531D1E" d="M1346.33 396.185C1354.32 395.274 1364.55 395.216 1369.79 402.478C1371.2 409.833 1366.57 411.418 1360.82 414.425C1352.44 415.277 1342.9 415.151 1337.39 407.598C1335.88 400.481 1340.61 398.869 1346.33 396.185Z"/></svg>