<?xml version="1.0" encoding="utf-8" ?><svg xmlns="http://www.w3.org/2000/svg" xmlns:xlink="http://www.w3.org/1999/xlink" width="100" height="100" viewBox="0 0 100 100"><path fill="#191717" fill-opacity="0.87843138" transform="scale(0.0976562 0.0976562)" d="M1014.23 435.433C1014.23 435.433 989.399 372.434 971.602 353.393L870.803 462.685L947.494 331.338C927.759 315.939 906.049 303.255 882.944 293.626L819.618 430.848L852.373 282.358C826.376 274.259 799.642 268.751 772.56 265.915L760.593 412.549L740.46 263.535C708.367 262.292 676.226 263.753 644.379 267.902C644.379 267.902 686.217 407.482 702.333 511.01C718.842 616.133 203.582 739.401 139.558 364.705C127.613 283.21 162.159 233.4 244.745 204.62C386.684 161.907 444.53 364.705 444.53 364.705L458.92 317.777C460.286 313.32 462.833 309.317 466.29 306.19C469.747 303.063 473.985 300.93 478.556 300.017C483.127 299.103 487.86 299.444 492.253 301.003C496.646 302.56 500.536 305.279 503.51 308.868L532.4 343.807C532.4 343.807 600.269 73.6428 434.353 7.32474L431.362 6.16734C386.487 -10.9526 293.31 13.0022 293.31 13.0022C235.886 30.3576 183.003 60.1839 138.444 100.349C62.605 168.567 15.5035 262.836 3.75528 364.158C-34.4153 693.652 230.267 855.004 260.751 872.408L266.189 875.617C279.291 883.588 341.744 919.051 433.524 933.638L392.143 1020.44L456.998 1020.44L498.488 939.643C506.393 939.876 514.45 939.919 522.661 939.774L522.661 1020.35L587.516 1020.35L587.516 934.358C663.333 922.938 747.601 892.432 834.729 829.28C929.392 759.163 980.315 660.81 1005.06 590.06C1005.75 588.006 1006.45 585.976 1007.11 583.923L883.971 557.719L1014.45 556.933C1020.92 527.71 1022.68 497.64 1019.66 467.86L882.944 511.119L1014.23 435.433ZM409.853 68.5768C421.119 68.2105 432.236 71.2402 441.758 77.2726C451.28 83.305 458.769 92.0611 463.251 102.404C467.735 112.746 469.003 124.199 466.894 135.272C464.784 146.345 459.395 156.529 451.423 164.499C443.452 172.47 433.27 177.861 422.196 179.97C411.123 182.078 399.671 180.81 389.328 176.328C378.985 171.846 370.229 164.356 364.197 154.834C358.164 145.311 355.134 134.195 355.501 122.928C355.984 108.692 361.854 95.1699 371.922 85.0935C381.99 75.0171 395.508 69.1376 409.743 68.6424L409.853 68.5768Z"/><path fill="#C2B9A2" fill-opacity="0.21960784" transform="scale(0.0976562 0.0976562)" d="M713.122 581.172L919.96 647.927C919.96 647.927 878.993 687.408 801.123 661.902C723.253 636.398 713.122 581.172 713.122 581.172Z"/><path fill="#D5CDCE" fill-opacity="0.11372549" transform="scale(0.0976562 0.0976562)" d="M640.12 651.486L786.753 783.62C786.753 783.62 799.462 733.57 743.976 683.979C688.488 634.387 640.12 651.486 640.12 651.486Z"/><path fill="#C2B9A2" fill-opacity="0.21960784" transform="scale(0.0976562 0.0976562)" d="M628.003 664.806L774.637 796.962C774.637 796.962 725.853 814.431 670.781 764.447C615.71 714.462 628.003 664.806 628.003 664.806Z"/><path fill="#D5CDCE" fill-opacity="0.11372549" transform="scale(0.0976562 0.0976562)" d="M526.504 684.765L605.859 865.114C605.859 865.114 638.046 824.651 607.846 756.783C577.646 688.914 526.504 684.765 526.504 684.765Z"/><path fill="#C2B9A2" fill-opacity="0.21960784" transform="scale(0.0976562 0.0976562)" d="M509.952 691.971L589.307 872.32C589.307 872.32 537.597 868.433 507.965 800.259C478.333 732.085 509.952 691.971 509.952 691.971Z"/><path fill="#D5CDCE" fill-opacity="0.11372549" transform="scale(0.0976562 0.0976562)" d="M412.474 672.645L410.77 856.882C410.77 856.882 453.833 834.631 454.204 765.168C454.575 695.706 412.474 672.645 412.474 672.645Z"/><path fill="#C2B9A2" fill-opacity="0.21960784" transform="scale(0.0976562 0.0976562)" d="M395.572 672.493L393.868 856.729C393.868 856.729 351.222 833.669 352.139 764.229C353.056 694.788 395.572 672.493 395.572 672.493Z"/><path fill="#D5CDCE" fill-opacity="0.11372549" transform="scale(0.0976562 0.0976562)" d="M310.473 639.563L246.601 791.94C246.601 791.94 289.881 787.899 313.748 730.36C337.616 672.82 310.473 639.563 310.473 639.563Z"/><path fill="#C2B9A2" fill-opacity="0.21960784" transform="scale(0.0976562 0.0976562)" d="M296.499 633.755L232.626 786.131C232.626 786.131 205.047 752.677 229.351 695.334C253.655 637.991 296.499 633.755 296.499 633.755Z"/><path fill="#D5CDCE" fill-opacity="0.11372549" transform="scale(0.0976562 0.0976562)" d="M227.473 576.717L112.372 676.686C112.372 676.686 149.8 690.924 193.059 653.058C236.317 615.194 227.473 576.717 227.473 576.717Z"/><path fill="#191717" fill-opacity="0.87843138" transform="scale(0.0976562 0.0976562)" d="M557.557 419.842C563.561 456.549 543.472 490.353 512.703 495.375C481.935 500.397 452.15 474.74 446.167 438.032C440.184 401.324 462.501 357.978 493.269 352.868C524.037 347.759 551.573 383.156 557.557 419.842Z"/></svg>