<?xml version="1.0" encoding="utf-8" ?><svg xmlns="http://www.w3.org/2000/svg" xmlns:xlink="http://www.w3.org/1999/xlink" width="1004" height="291" viewBox="0 0 1004 291"><clipPath id="cl_3"><rect x="-9.1552734e-05" y="-3.0517578e-05" width="1003.6124" height="290.88766"/></clipPath><g clip-path="url(#cl_3)"><path fill="white" transform="matrix(0.999614 0 0 0.999614 -404.844 -262.898)" d="M483.259 273.057C539.82 268.091 484.271 363.995 529.967 371.287C554.013 374.179 576.034 369.05 600.485 372.445C647.114 378.918 633.301 435.506 634.714 469.084C636.065 501.185 642.098 496.097 670.524 496.157C693.495 496.205 715.306 494.678 738.086 496.271C767.158 498.544 765.551 539.75 737.054 540.928C707.137 542.079 677.048 541.087 647.096 541.304C637.556 541.373 629.017 540.875 619.628 539.08C579.762 522.052 590.925 485.559 590.155 450.359C589.876 437.637 592.602 423.349 577.395 418.487C568.732 415.718 529.763 415.024 523.397 419.381C495.175 438.359 519.782 498.658 509.191 525.076C498.417 551.951 465.088 545.506 465.08 510.374C465.064 439.51 465.448 368.84 465.555 297.989C465.577 283.335 470.64 278.641 483.259 273.057Z"/><path fill="white" transform="matrix(0.999614 0 0 0.999614 -404.844 -262.898)" d="M666.63 371.71C683.461 371.286 732.971 368.768 746.132 374.884C751.203 377.241 756.194 381.308 758.072 386.747C760.074 392.547 758.415 399.279 755.685 404.559C751.815 412.044 745.785 414.571 738.173 416.922C717.584 418.066 689.781 418.039 669.318 416.51C641.296 414.415 635.612 381.706 666.63 371.71Z"/><path fill="white" transform="matrix(0.999614 0 0 0.999614 -404.844 -262.898)" d="M1149.4 394.67L1227.34 394.666L1227.34 408.043L1165.35 408.051L1165.36 424.19L1221.32 423.89L1221.26 437.271L1191.4 437.272L1165.35 437.266L1165.37 454.302L1227.34 454.288L1227.33 467.394L1149.41 467.385L1149.4 394.67Z"/><path fill="white" transform="matrix(0.999614 0 0 0.999614 -404.844 -262.898)" d="M1386.39 394.684L1402.61 394.68L1402.61 467.377L1386.44 467.387L1386.51 437.79L1336.8 437.764L1336.83 467.394L1320.63 467.388L1320.73 394.67L1336.84 394.662L1336.8 424.492L1386.45 424.495L1386.39 394.684Z"/><path fill="white" transform="matrix(0.999614 0 0 0.999614 -404.844 -262.898)" d="M833.101 394.644L848.719 394.669L848.705 424.492L898.788 424.494L898.747 394.678L914.475 394.67L914.474 467.393L898.777 467.391L898.829 437.784L848.699 437.761L848.724 467.391L832.94 467.39L833.101 394.644Z"/><path fill="white" transform="matrix(0.999614 0 0 0.999614 -404.844 -262.898)" d="M982.458 394.549C996.298 393.823 1011.74 394.26 1025.72 394.385L1025.7 407.443C1018.43 407.274 1011.17 407.155 1003.9 407.086C995.082 407.047 984.938 407.12 976.584 410.133C963.639 414.802 962.036 440.886 971.498 448.767C981.119 456.78 1001.33 454.87 1013.21 454.625L1026.65 454.62L1026.65 468.07C1001.65 468.726 955.716 473.776 949.765 441.115C945.135 415.7 957.458 399.242 982.458 394.549Z"/><path fill="white" transform="matrix(0.999614 0 0 0.999614 -404.844 -262.898)" d="M1268.73 394.621C1278.23 393.514 1301.04 394.273 1311.47 394.398L1311.47 407.502C1300.89 407.303 1290.56 407.11 1279.96 407.408C1263.47 407.871 1251.82 411.562 1251.4 430.825C1250.78 459.192 1279.23 455.011 1298.76 454.621L1312.43 454.619L1312.43 468.081C1293.15 468.569 1265.12 471.065 1248.52 460.311C1226.9 446.304 1231.87 405.322 1257.06 397.366C1261.33 396.02 1264.22 395.348 1268.73 394.621Z"/><path fill="white" transform="matrix(0.999614 0 0 0.999614 -404.844 -262.898)" d="M1054.13 394.648L1141.23 394.668L1141.23 408.108L1103.38 408.046L1103.41 429.519L1103.42 467.392L1087.72 467.39L1087.76 408.043L1054 408.124L1054.13 394.648Z"/><path fill="white" transform="matrix(0.999614 0 0 0.999614 -404.844 -262.898)" d="M604.033 317.225C611.856 315.029 620.255 317.218 626.012 322.953C631.77 328.688 633.994 337.08 631.832 344.915C629.671 352.75 623.459 358.813 615.576 360.783C603.629 363.768 591.499 356.603 588.343 344.695C585.188 332.787 592.176 320.552 604.033 317.225Z"/><path fill="white" transform="matrix(0.999614 0 0 0.999614 -404.844 -262.898)" d="M923.813 395.12L940.013 395.068L939.951 468.19L923.889 468.212L923.813 395.12Z"/></g></svg>