<svg xmlns="http://www.w3.org/2000/svg" width="99" height="24" fill="none"><path fill="#000" d="M28.844 16.943h6.996v-2.107h-4.51V6.898h-2.486v10.045Zm11.148-1.4c-.998 0-1.518-.87-1.518-2.177s.52-2.192 1.518-2.192c.997 0 1.53.885 1.53 2.192 0 1.306-.533 2.177-1.53 2.177Zm.014 1.63c2.318 0 3.835-1.644 3.835-3.807 0-2.164-1.517-3.807-3.835-3.807-2.304 0-3.85 1.643-3.85 3.807 0 2.163 1.546 3.807 3.85 3.807Zm7.84 2.26c1.068 0 2.01-.238 2.642-.8.576-.52.955-1.307.955-2.389v-6.49H49.25v.772h-.028c-.421-.604-1.067-.983-2.023-.983-1.784 0-3.02 1.49-3.02 3.597 0 2.205 1.503 3.413 3.118 3.413.871 0 1.42-.35 1.84-.829h.057v.717c0 .87-.407 1.377-1.377 1.377-.758 0-1.138-.323-1.264-.703h-2.22c.225 1.504 1.531 2.318 3.512 2.318Zm-.014-4.58c-.857 0-1.419-.702-1.419-1.784 0-1.096.562-1.798 1.42-1.798.955 0 1.46.815 1.46 1.784 0 1.012-.463 1.798-1.46 1.798Zm8.121.69c-.998 0-1.518-.87-1.518-2.177s.52-2.192 1.517-2.192c.998 0 1.532.885 1.532 2.192 0 1.306-.534 2.177-1.532 2.177Zm.014 1.63c2.318 0 3.835-1.644 3.835-3.807 0-2.164-1.517-3.807-3.835-3.807-2.304 0-3.85 1.643-3.85 3.807 0 2.163 1.546 3.807 3.85 3.807Zm4.502-.23h2.29V9.75h-2.29v7.193Zm0-8.19h2.29V6.898h-2.29v1.855ZM63.75 19.32h2.29v-3.118h.028c.45.604 1.11.97 2.037.97 1.883 0 3.133-1.49 3.133-3.822 0-2.163-1.166-3.807-3.077-3.807-.983 0-1.686.435-2.177 1.082h-.042v-.871H63.75v9.567Zm3.765-3.919c-.983 0-1.545-.8-1.545-1.966 0-1.167.505-2.052 1.503-2.052.983 0 1.447.815 1.447 2.052 0 1.222-.534 1.966-1.405 1.966Zm7.455 1.771c1.883 0 3.274-.815 3.274-2.389 0-1.84-1.489-2.163-2.753-2.374-.914-.169-1.728-.239-1.728-.745 0-.45.435-.66.997-.66.632 0 1.068.197 1.152.843h2.107c-.112-1.419-1.208-2.304-3.245-2.304-1.7 0-3.105.787-3.105 2.304 0 1.686 1.335 2.023 2.585 2.234.956.168 1.827.239 1.827.885 0 .463-.436.716-1.124.716-.759 0-1.236-.35-1.32-1.067h-2.164c.07 1.587 1.39 2.557 3.498 2.557Zm6.387-.014c.997 0 1.63-.394 2.15-1.096h.041v.885h2.192V9.754h-2.29v4.018c0 .857-.478 1.447-1.264 1.447-.73 0-1.082-.436-1.082-1.222V9.754h-2.276v4.72c0 1.602.871 2.684 2.529 2.684Zm5.377-.211h2.29v-4.032c0-.857.422-1.461 1.138-1.461.689 0 1.012.45 1.012 1.222v4.27h2.29v-4.031c0-.857.407-1.461 1.138-1.461.688 0 1.011.45 1.011 1.222v4.27h2.29v-4.678c0-1.615-.815-2.725-2.444-2.725-.928 0-1.7.393-2.262 1.264h-.028c-.365-.772-1.082-1.264-2.023-1.264-1.04 0-1.728.492-2.178 1.236h-.042V9.754h-2.192v7.193ZM14.876 1.16 12.574.543l-1.94 7.24-1.752-6.536-2.302.617 1.892 7.062-4.714-4.713-1.685 1.685 5.17 5.17L.804 9.343l-.617 2.302 7.036 1.886a4.767 4.767 0 1 1 9.29-.007l6.393 1.713.617-2.302-7.064-1.893 6.44-1.725-.617-2.303-7.063 1.893 4.714-4.714-1.686-1.685-5.099 5.099 1.728-6.447Z"/><path fill="#000" d="M16.506 13.547a4.757 4.757 0 0 1-1.186 2.185l4.632 4.632 1.686-1.686-5.132-5.131Zm-1.236 2.23a4.763 4.763 0 0 1-2.13 1.26l1.686 6.29 2.302-.617-1.857-6.933Zm-2.215 1.288a4.776 4.776 0 0 1-2.462-.022l-1.687 6.296 2.303.617 1.846-6.891Zm-2.545-.045a4.767 4.767 0 0 1-2.093-1.278l-4.644 4.644L5.46 22.07l5.05-5.05ZM8.383 15.7a4.756 4.756 0 0 1-1.156-2.157L.812 15.262l.617 2.302 6.954-1.863Z"/></svg>