<?xml version="1.0" encoding="utf-8" ?><svg xmlns="http://www.w3.org/2000/svg" xmlns:xlink="http://www.w3.org/1999/xlink" width="931" height="282" viewBox="0 0 931 282"><clipPath id="cl_3"><rect width="931" height="282"/></clipPath><g clip-path="url(#cl_3)"><path fill="white" transform="translate(-51 -109)" d="M74.6287 119.679C97.9277 117.959 98.8052 139.282 98.6182 155.159C98.4465 169.737 96.624 191.51 101.314 204.787C105.449 216.493 123.019 216.133 133.255 216.114L161.94 216.044C175.415 216.012 188.5 214.41 200.492 221.65C221.594 234.39 219.671 253.741 219.628 275.056L219.535 312.41C219.498 324.45 217.597 336.925 233.787 337.058C238.708 337.099 243.774 337.122 248.708 337.115L293.496 337.04C296.667 337.035 299.861 336.971 303.027 337.025C315.888 337.245 330.461 334.696 337.847 348.26C340.699 353.538 341.337 359.733 339.621 365.482C334.422 383.124 318.178 381.412 303.894 381.421L274.97 381.445L238.481 381.466C226.758 381.47 214.645 382.315 203.393 378.675C194.65 375.216 188.818 370.875 183.25 363.309C173.935 350.65 175.212 336.681 175.25 321.911L175.38 290.326C175.422 279.706 177.023 261.12 160.815 260.565C145.91 260.055 129.954 260.067 115.137 261.038C108.621 261.465 101.032 269.694 99.5028 275.906C98.1102 281.351 98.514 290.173 98.5269 296.141L98.6278 339.215C98.6441 346.413 99.0485 354.975 98.2853 362.06C96.5935 377.764 77.8387 386.845 64.3514 377.668C59.2768 374.205 55.8039 368.851 54.7111 362.806C53.8437 358.143 54.2849 343.243 54.2866 337.716L54.2899 284.609L54.2835 190.064C54.2757 173.799 54.0742 157.485 54.4533 141.231C54.7441 128.766 62.9671 121.751 74.6287 119.679Z"/><path fill="white" transform="translate(-51 -109)" d="M248.729 216.314C260.409 215.377 275.143 216.103 287.183 216.027C297.117 215.964 321.296 214.545 328.89 218.984C333.966 222.003 337.643 226.906 339.12 232.625C342.45 245.632 334.332 256.757 321.687 259.853C315.102 261.034 294.623 260.362 286.976 260.457C275.452 260.602 261.666 260.635 250.056 260.063C247.096 259.918 243.601 258.669 241.038 257.122C235.839 253.982 232.133 248.87 230.768 242.951C227.811 230.108 236.156 218.991 248.729 216.314Z"/><path fill="white" transform="translate(-51 -109)" d="M719.644 238.402C727.417 238.804 738.035 238.507 745.989 238.505L795.829 238.466L795.83 251.543C775.745 251.467 755.66 251.492 735.575 251.62L735.61 266.978L790.002 266.996L790.004 279.996L760.269 279.964L735.579 280.047L735.601 296.252C755.486 296.501 775.932 296.298 795.856 296.305C795.77 300.618 795.839 305.098 795.846 309.426C772.066 309.215 743.244 308.805 719.65 309.551L719.644 238.402Z"/><path fill="white" transform="translate(-51 -109)" d="M411.598 238.396C416.209 238.638 422.772 238.482 427.516 238.494C427.891 247.039 427.647 258.762 427.535 267.415L475.58 267.423L475.623 238.437L491.556 238.49C491.769 258.042 491.382 277.672 491.552 297.231C491.585 300.912 491.876 305.412 491.503 308.974L490.66 309.388C485.652 309.336 480.643 309.392 475.637 309.556L475.563 280.492C459.831 280.788 443.352 280.518 427.503 280.612C428.021 288.5 427.55 301.068 427.736 309.535C422.702 309.185 416.719 309.424 411.617 309.532C411.37 285.962 411.589 261.996 411.598 238.396Z"/><path fill="white" transform="translate(-51 -109)" d="M950.414 238.446L966.316 238.503C966.476 241.882 966.524 245.998 966.402 249.381C965.687 269.108 967.252 289.829 966.444 309.445C961.123 309.358 955.8 309.375 950.48 309.498L950.364 280.507L902.444 280.613C902.403 290.213 902.426 299.813 902.514 309.413C897.236 309.362 891.819 309.44 886.529 309.462C886.212 286.015 886.489 261.907 886.487 238.409C891.162 238.64 897.609 238.484 902.393 238.501C902.637 247.827 902.44 258.035 902.448 267.43L950.356 267.422C950.518 257.911 950.401 247.987 950.414 238.446Z"/><path fill="white" transform="translate(-51 -109)" d="M558.643 238.247C568.287 237.256 588.941 238.227 599.595 238.274L599.644 250.991C585.186 251.012 570.667 250.01 556.165 252.19C539.367 254.715 537.4 280.413 546.644 290.511C554.446 299.033 577.257 296.724 588.664 296.67L600.564 296.529L600.631 309.799C592.344 309.622 583.901 309.795 575.553 309.775C561.902 309.885 547.816 310.767 536.44 301.736C522.3 290.511 521.64 263.387 532.641 249.851C539.084 241.923 548.78 239.16 558.643 238.247Z"/><path fill="white" transform="translate(-51 -109)" d="M836.853 238.243C849.798 237.467 864.797 238.314 877.919 238.242C877.664 241.994 877.678 247.309 877.952 250.997C863.485 250.963 848.631 250.035 834.192 252.26C817.501 254.831 815.611 280.899 825.133 290.745C833.096 298.977 855.067 296.72 866.353 296.667C870.503 296.663 874.652 296.599 878.801 296.474C878.746 300.911 878.627 305.363 878.93 309.789C870.627 309.635 862.198 309.794 853.837 309.771C840.497 309.93 825.837 310.66 814.811 301.825C798.069 288.41 799.356 253.234 819.198 243.059C825.336 239.911 830.093 238.876 836.853 238.243Z"/><path fill="white" transform="translate(-51 -109)" d="M627.073 238.359C636.35 238.776 647.647 238.505 657.06 238.506L712.072 238.458L712.068 251.552C699.873 251.494 687.678 251.514 675.484 251.614C675.833 257.812 675.552 266.757 675.55 273.16C675.537 285.132 675.369 297.473 675.734 309.414C670.356 309.351 664.978 309.389 659.602 309.53L659.485 251.521L627.069 251.58L627.073 238.359Z"/><path fill="white" transform="translate(-51 -109)" d="M194.96 162.008C207.112 161.844 217.128 171.5 217.408 183.649C217.688 195.799 208.127 205.906 195.98 206.301C183.668 206.703 173.393 196.985 173.109 184.67C172.826 172.356 182.642 162.174 194.96 162.008Z"/><path fill="white" transform="translate(-51 -109)" d="M501.074 238.358C505.749 238.666 512.049 238.474 516.841 238.466C516.577 261.027 516.207 287.021 516.911 309.434C511.631 309.327 506.35 309.359 501.072 309.531L501.074 238.358Z"/></g></svg>