<?xml version="1.0" encoding="utf-8" ?><svg xmlns="http://www.w3.org/2000/svg" xmlns:xlink="http://www.w3.org/1999/xlink" width="379" height="355" viewBox="0 0 379 355"><clipPath id="cl_3"><rect width="379.39453" height="355.46875"/></clipPath><g clip-path="url(#cl_3)"><path fill="#3038CF" transform="matrix(0.488281 0 0 0.488281 -58.5938 -72.2656)" d="M453.038 748.216L453.038 581.489Q453.038 580.416 452.986 579.345Q452.933 578.274 452.828 577.207Q452.723 576.14 452.565 575.079Q452.408 574.018 452.199 572.966Q451.99 571.915 451.729 570.874Q451.468 569.834 451.157 568.808Q450.846 567.782 450.485 566.772Q450.123 565.762 449.713 564.772Q449.302 563.781 448.844 562.811Q448.385 561.842 447.88 560.896Q447.374 559.951 446.823 559.031Q446.272 558.111 445.676 557.219Q445.08 556.328 444.441 555.466Q443.803 554.605 443.122 553.776Q442.442 552.947 441.722 552.152Q441.002 551.358 440.243 550.6Q439.485 549.841 438.69 549.121Q437.896 548.401 437.067 547.721Q436.238 547.04 435.377 546.401Q434.515 545.763 433.624 545.167Q432.732 544.571 431.812 544.02Q430.892 543.469 429.947 542.963Q429.001 542.457 428.031 541.999Q427.062 541.54 426.071 541.13Q425.081 540.72 424.071 540.358Q423.061 539.997 422.035 539.686Q421.009 539.375 419.969 539.114Q418.928 538.853 417.877 538.644Q416.825 538.435 415.764 538.278Q414.703 538.12 413.636 538.015Q412.569 537.91 411.498 537.857Q410.427 537.805 409.354 537.805L305.152 537.805Q303.705 537.805 302.259 537.876Q300.813 537.947 299.373 538.089Q297.932 538.231 296.501 538.443Q295.069 538.655 293.649 538.938Q292.229 539.22 290.825 539.572Q289.421 539.924 288.036 540.344Q286.651 540.764 285.288 541.251Q283.926 541.739 282.588 542.293Q281.251 542.847 279.943 543.466Q278.634 544.085 277.358 544.767Q276.081 545.449 274.84 546.193Q273.598 546.938 272.395 547.742Q271.191 548.546 270.028 549.408Q268.866 550.27 267.747 551.189Q266.628 552.107 265.556 553.079Q264.483 554.051 263.46 555.074Q262.436 556.098 261.464 557.17Q260.492 558.243 259.574 559.362Q258.656 560.481 257.793 561.643Q256.931 562.806 256.127 564.009Q255.323 565.213 254.579 566.454Q253.835 567.696 253.152 568.972Q252.47 570.249 251.851 571.557Q251.232 572.866 250.678 574.203Q250.124 575.54 249.637 576.903Q249.149 578.266 248.729 579.651Q248.309 581.036 247.957 582.44Q247.605 583.844 247.323 585.264Q247.041 586.683 246.828 588.115Q246.616 589.547 246.474 590.988Q246.332 592.428 246.261 593.874Q246.19 595.319 246.19 596.767L246.19 803.717Q246.19 805.165 246.119 806.61Q246.048 808.056 245.906 809.496Q245.764 810.937 245.552 812.369Q245.34 813.8 245.057 815.22Q244.775 816.64 244.423 818.044Q244.071 819.448 243.651 820.833Q243.231 822.218 242.743 823.581Q242.256 824.944 241.702 826.281Q241.148 827.618 240.529 828.927Q239.91 830.235 239.228 831.512Q238.546 832.788 237.802 834.03Q237.057 835.271 236.253 836.475Q235.449 837.678 234.587 838.841Q233.725 840.003 232.806 841.122Q231.888 842.241 230.916 843.314Q229.944 844.386 228.921 845.41Q227.897 846.433 226.825 847.405Q225.752 848.377 224.633 849.295Q223.514 850.214 222.352 851.076Q221.189 851.938 219.986 852.742Q218.782 853.546 217.541 854.29Q216.299 855.035 215.023 855.717Q213.746 856.399 212.438 857.018Q211.129 857.637 209.792 858.191Q208.455 858.745 207.092 859.232Q205.729 859.72 204.344 860.14Q202.959 860.56 201.555 860.912Q200.151 861.264 198.731 861.546Q197.311 861.828 195.88 862.041Q194.448 862.253 193.007 862.395Q191.567 862.537 190.121 862.608Q188.676 862.679 187.228 862.679L187.228 862.679Q185.781 862.679 184.335 862.608Q182.89 862.537 181.45 862.395Q180.009 862.253 178.578 862.041Q177.146 861.828 175.727 861.546Q174.307 861.264 172.903 860.912Q171.5 860.56 170.115 860.14Q168.73 859.72 167.367 859.232Q166.005 858.745 164.668 858.19Q163.33 857.637 162.022 857.018Q160.714 856.399 159.438 855.716Q158.161 855.034 156.92 854.29Q155.679 853.546 154.476 852.741Q153.272 851.937 152.11 851.075Q150.948 850.213 149.829 849.294Q148.711 848.376 147.638 847.404Q146.566 846.432 145.543 845.408Q144.52 844.385 143.548 843.312Q142.576 842.24 141.658 841.121Q140.741 840.002 139.879 838.839Q139.017 837.677 138.213 836.473Q137.409 835.27 136.665 834.028Q135.922 832.787 135.24 831.51Q134.558 830.234 133.939 828.925Q133.321 827.617 132.768 826.279Q132.214 824.942 131.727 823.58Q131.24 822.217 130.82 820.832Q130.4 819.447 130.049 818.043Q129.698 816.639 129.416 815.219Q129.134 813.8 128.922 812.368Q128.71 810.936 128.569 809.496Q128.427 808.056 128.357 806.61Q128.286 805.164 128.287 803.717L128.287 220.283Q128.286 218.837 128.357 217.393Q128.427 215.949 128.568 214.511Q128.709 213.072 128.921 211.642Q129.132 210.212 129.413 208.794Q129.695 207.376 130.045 205.973Q130.396 204.571 130.814 203.187Q131.233 201.803 131.719 200.442Q132.205 199.08 132.758 197.744Q133.31 196.408 133.927 195.101Q134.544 193.794 135.225 192.518Q135.905 191.243 136.647 190.002Q137.39 188.762 138.192 187.559Q138.994 186.356 139.854 185.194Q140.714 184.032 141.63 182.914Q142.546 181.795 143.516 180.723Q144.486 179.651 145.507 178.628Q146.528 177.605 147.598 176.633Q148.668 175.661 149.785 174.742Q150.901 173.824 152.061 172.961Q153.221 172.099 154.422 171.294Q155.624 170.49 156.863 169.745Q158.102 169 159.376 168.317Q160.65 167.634 161.956 167.014Q163.262 166.394 164.597 165.839Q165.931 165.284 167.292 164.795Q168.652 164.306 170.035 163.884Q171.418 163.463 172.82 163.109Q174.221 162.756 175.639 162.471Q177.056 162.187 178.486 161.973Q179.916 161.758 181.354 161.614Q182.793 161.47 184.236 161.397Q185.68 161.323 187.126 161.321L187.126 161.321Q188.573 161.321 190.019 161.392Q191.465 161.463 192.905 161.605Q194.346 161.747 195.777 161.959Q197.209 162.172 198.629 162.454Q200.048 162.736 201.452 163.088Q202.856 163.44 204.242 163.86Q205.627 164.28 206.989 164.768Q208.352 165.255 209.69 165.809Q211.027 166.363 212.335 166.982Q213.644 167.601 214.92 168.283Q216.197 168.965 217.438 169.71Q218.68 170.454 219.883 171.258Q221.087 172.062 222.249 172.924Q223.412 173.786 224.531 174.705Q225.65 175.623 226.722 176.595Q227.795 177.567 228.818 178.59Q229.842 179.614 230.814 180.686Q231.786 181.759 232.704 182.878Q233.622 183.997 234.484 185.159Q235.347 186.322 236.151 187.525Q236.955 188.729 237.699 189.97Q238.443 191.212 239.126 192.488Q239.808 193.765 240.427 195.073Q241.046 196.382 241.599 197.719Q242.153 199.056 242.641 200.419Q243.129 201.782 243.549 203.167Q243.969 204.552 244.321 205.956Q244.672 207.36 244.955 208.78Q245.237 210.2 245.45 211.631Q245.662 213.063 245.804 214.504Q245.946 215.944 246.017 217.39Q246.088 218.835 246.088 220.283L246.088 360.94Q246.089 362.388 246.162 363.834Q246.234 365.28 246.378 366.721Q246.521 368.162 246.735 369.594Q246.949 371.026 247.234 372.446Q247.518 373.866 247.871 375.271Q248.225 376.675 248.647 378.06Q249.069 379.445 249.558 380.808Q250.048 382.171 250.603 383.508Q251.159 384.845 251.78 386.154Q252.401 387.462 253.085 388.738Q253.769 390.014 254.515 391.255Q255.261 392.496 256.067 393.699Q256.873 394.902 257.737 396.064Q258.602 397.226 259.522 398.345Q260.442 399.463 261.416 400.534Q262.39 401.606 263.415 402.628Q264.441 403.651 265.515 404.622Q266.589 405.593 267.71 406.51Q268.831 407.427 269.995 408.288Q271.159 409.149 272.365 409.952Q273.57 410.754 274.813 411.497Q276.056 412.239 277.334 412.92Q278.612 413.601 279.922 414.218Q281.232 414.835 282.571 415.387Q283.91 415.939 285.274 416.425Q286.638 416.911 288.025 417.329Q289.411 417.747 290.816 418.096Q292.221 418.446 293.642 418.726Q295.063 419.006 296.496 419.216Q297.928 419.426 299.37 419.566Q300.811 419.705 302.257 419.774Q303.704 419.843 305.152 419.84L465.244 419.84Q467.842 419.84 470.437 419.967Q473.031 420.095 475.616 420.35Q478.202 420.604 480.771 420.985Q483.341 421.367 485.889 421.873Q488.436 422.38 490.956 423.011Q493.476 423.643 495.962 424.397Q498.448 425.151 500.894 426.026Q503.34 426.901 505.74 427.895Q508.14 428.889 510.488 430Q512.836 431.111 515.127 432.335Q517.418 433.56 519.647 434.895Q521.875 436.231 524.035 437.674Q526.195 439.117 528.281 440.665Q530.368 442.212 532.376 443.86Q534.384 445.508 536.309 447.253Q538.233 448.997 540.07 450.834Q541.907 452.671 543.652 454.596Q545.396 456.52 547.044 458.529Q548.692 460.537 550.24 462.623Q551.787 464.71 553.23 466.87Q554.674 469.03 556.009 471.258Q557.345 473.486 558.569 475.777Q559.794 478.068 560.904 480.416Q562.015 482.764 563.009 485.164Q564.003 487.564 564.878 490.01Q565.754 492.456 566.508 494.942Q567.262 497.428 567.893 499.948Q568.524 502.468 569.031 505.016Q569.538 507.563 569.919 510.133Q570.3 512.703 570.555 515.288Q570.809 517.873 570.937 520.468Q571.064 523.062 571.064 525.66L571.064 712.704Q571.064 713.492 571.102 714.279Q571.14 715.066 571.217 715.85Q571.294 716.634 571.409 717.414Q571.524 718.193 571.678 718.966Q571.831 719.739 572.022 720.504Q572.213 721.268 572.442 722.022Q572.67 722.776 572.935 723.518Q573.2 724.26 573.502 724.988Q573.803 725.716 574.14 726.429Q574.477 727.141 574.848 727.836Q575.219 728.531 575.624 729.207Q576.029 729.883 576.467 730.538Q576.904 731.194 577.374 731.827Q577.843 732.459 578.343 733.069Q578.843 733.678 579.372 734.262Q579.901 734.846 580.458 735.403Q581.015 735.96 581.599 736.489Q582.183 737.018 582.792 737.518Q583.401 738.018 584.034 738.487Q584.667 738.956 585.322 739.394Q585.977 739.832 586.653 740.237Q587.329 740.642 588.024 741.013Q588.719 741.384 589.432 741.721Q590.144 742.057 590.872 742.359Q591.6 742.66 592.342 742.925Q593.084 743.19 593.838 743.419Q594.593 743.647 595.357 743.838Q596.121 744.03 596.894 744.183Q597.667 744.336 598.447 744.451Q599.226 744.567 600.01 744.643Q600.795 744.72 601.582 744.758Q602.369 744.797 603.157 744.796L836.874 744.796Q838.322 744.796 839.767 744.867Q841.213 744.938 842.653 745.08Q844.093 745.222 845.525 745.435Q846.956 745.647 848.376 745.929Q849.795 746.212 851.199 746.563Q852.603 746.915 853.988 747.335Q855.373 747.756 856.735 748.243Q858.098 748.731 859.435 749.285Q860.772 749.839 862.08 750.458Q863.389 751.077 864.665 751.759Q865.941 752.441 867.182 753.186Q868.424 753.93 869.627 754.734Q870.83 755.538 871.992 756.401Q873.155 757.263 874.273 758.181Q875.392 759.099 876.464 760.071Q877.536 761.044 878.559 762.067Q879.583 763.091 880.554 764.163Q881.526 765.236 882.444 766.354Q883.362 767.474 884.224 768.636Q885.086 769.799 885.889 771.002Q886.693 772.206 887.437 773.447Q888.181 774.689 888.863 775.965Q889.545 777.242 890.163 778.55Q890.782 779.859 891.335 781.196Q891.889 782.533 892.376 783.896Q892.863 785.259 893.283 786.644Q893.702 788.029 894.054 789.433Q894.405 790.837 894.687 792.256Q894.969 793.676 895.181 795.108Q895.392 796.539 895.534 797.98Q895.675 799.42 895.746 800.865Q895.816 802.311 895.816 803.758L895.816 803.758Q895.816 805.206 895.746 806.651Q895.675 808.097 895.534 809.537Q895.392 810.977 895.181 812.409Q894.969 813.841 894.687 815.26Q894.405 816.68 894.054 818.084Q893.702 819.488 893.283 820.873Q892.863 822.258 892.376 823.62Q891.889 824.983 891.335 826.32Q890.782 827.658 890.163 828.966Q889.545 830.275 888.863 831.551Q888.181 832.828 887.437 834.069Q886.693 835.311 885.889 836.514Q885.086 837.718 884.224 838.88Q883.362 840.043 882.444 841.162Q881.526 842.281 880.554 843.353Q879.583 844.426 878.559 845.449Q877.536 846.473 876.464 847.445Q875.392 848.417 874.273 849.335Q873.155 850.254 871.992 851.116Q870.83 851.978 869.627 852.782Q868.424 853.587 867.182 854.331Q865.941 855.075 864.665 855.757Q863.389 856.44 862.08 857.059Q860.772 857.678 859.435 858.232Q858.098 858.786 856.735 859.273Q855.373 859.761 853.988 860.181Q852.603 860.601 851.199 860.953Q849.795 861.305 848.376 861.587Q846.956 861.87 845.525 862.082Q844.093 862.294 842.653 862.436Q841.213 862.578 839.767 862.649Q838.322 862.72 836.874 862.72L567.501 862.72Q564.69 862.72 561.883 862.582Q559.076 862.444 556.279 862.169Q553.482 861.893 550.702 861.481Q547.922 861.068 545.165 860.52Q542.409 859.971 539.682 859.288Q536.956 858.605 534.267 857.789Q531.577 856.973 528.931 856.026Q526.285 855.079 523.688 854.003Q521.092 852.927 518.551 851.726Q516.011 850.524 513.532 849.198Q511.054 847.873 508.643 846.428Q506.233 844.983 503.896 843.421Q501.559 841.859 499.302 840.185Q497.045 838.51 494.873 836.727Q492.7 834.944 490.618 833.056Q488.536 831.168 486.549 829.18Q484.562 827.193 482.675 825.11Q480.788 823.027 479.005 820.854Q477.223 818.681 475.549 816.423Q473.875 814.165 472.314 811.828Q470.753 809.491 469.309 807.08Q467.865 804.669 466.54 802.19Q465.216 799.711 464.015 797.17Q462.814 794.629 461.739 792.032Q460.664 789.435 459.718 786.789Q458.772 784.142 457.957 781.452Q457.142 778.763 456.46 776.036Q455.778 773.31 455.23 770.553Q454.683 767.796 454.272 765.016Q453.86 762.236 453.586 759.438Q453.311 756.641 453.174 753.834Q453.037 751.027 453.038 748.216Z"/><path fill="#3038CF" transform="matrix(0.488281 0 0 0.488281 -58.5938 -72.2656)" d="M659.395 419.901L834.683 419.901Q836.13 419.901 837.576 419.973Q839.022 420.044 840.462 420.185Q841.903 420.327 843.334 420.54Q844.766 420.752 846.186 421.034Q847.605 421.317 849.01 421.668Q850.414 422.02 851.799 422.44Q853.184 422.861 854.547 423.348Q855.909 423.836 857.247 424.39Q858.584 424.944 859.892 425.562Q861.201 426.181 862.477 426.864Q863.754 427.546 864.995 428.29Q866.237 429.034 867.44 429.838Q868.644 430.642 869.807 431.505Q870.969 432.367 872.088 433.285Q873.207 434.203 874.279 435.175Q875.352 436.147 876.375 437.171Q877.399 438.194 878.371 439.267Q879.343 440.339 880.261 441.458Q881.179 442.577 882.042 443.74Q882.904 444.902 883.708 446.106Q884.512 447.309 885.256 448.551Q886 449.792 886.683 451.069Q887.365 452.345 887.984 453.654Q888.603 454.962 889.157 456.3Q889.711 457.637 890.198 459Q890.686 460.363 891.106 461.748Q891.526 463.133 891.878 464.537Q892.23 465.941 892.512 467.36Q892.794 468.78 893.007 470.212Q893.219 471.644 893.361 473.084Q893.503 474.525 893.574 475.97Q893.645 477.416 893.645 478.863L893.645 478.863Q893.645 480.311 893.574 481.757Q893.503 483.202 893.361 484.643Q893.219 486.083 893.007 487.515Q892.794 488.947 892.512 490.366Q892.23 491.786 891.878 493.19Q891.526 494.594 891.106 495.979Q890.686 497.364 890.198 498.727Q889.711 500.09 889.157 501.427Q888.603 502.764 887.984 504.073Q887.365 505.381 886.683 506.658Q886 507.934 885.256 509.176Q884.512 510.417 883.708 511.621Q882.904 512.824 882.042 513.987Q881.179 515.15 880.261 516.268Q879.343 517.387 878.371 518.46Q877.399 519.532 876.375 520.556Q875.352 521.579 874.279 522.551Q873.207 523.523 872.088 524.442Q870.969 525.36 869.806 526.222Q868.644 527.084 867.44 527.888Q866.237 528.693 864.995 529.437Q863.754 530.181 862.477 530.863Q861.201 531.545 859.892 532.164Q858.584 532.783 857.247 533.337Q855.909 533.891 854.547 534.379Q853.184 534.866 851.799 535.286Q850.414 535.707 849.01 536.058Q847.605 536.41 846.186 536.692Q844.766 536.975 843.334 537.187Q841.903 537.399 840.462 537.541Q839.022 537.683 837.576 537.754Q836.13 537.825 834.683 537.825L659.395 537.825Q657.947 537.825 656.502 537.754Q655.056 537.683 653.615 537.541Q652.175 537.399 650.743 537.187Q649.311 536.975 647.892 536.692Q646.472 536.41 645.068 536.058Q643.664 535.707 642.279 535.286Q640.894 534.866 639.531 534.379Q638.168 533.891 636.831 533.337Q635.494 532.783 634.185 532.164Q632.877 531.545 631.6 530.863Q630.324 530.181 629.082 529.437Q627.841 528.693 626.637 527.888Q625.434 527.084 624.271 526.222Q623.109 525.36 621.99 524.442Q620.871 523.523 619.798 522.551Q618.726 521.579 617.702 520.556Q616.679 519.532 615.707 518.46Q614.735 517.387 613.816 516.268Q612.898 515.15 612.036 513.987Q611.174 512.824 610.37 511.621Q609.565 510.417 608.821 509.176Q608.077 507.934 607.395 506.658Q606.713 505.381 606.094 504.073Q605.475 502.764 604.921 501.427Q604.367 500.09 603.879 498.727Q603.392 497.364 602.972 495.979Q602.552 494.594 602.2 493.19Q601.848 491.786 601.566 490.366Q601.283 488.947 601.071 487.515Q600.859 486.083 600.717 484.643Q600.575 483.202 600.504 481.757Q600.433 480.311 600.433 478.863L600.433 478.863Q600.433 477.416 600.504 475.97Q600.575 474.525 600.717 473.084Q600.859 471.644 601.071 470.212Q601.283 468.78 601.566 467.36Q601.848 465.941 602.2 464.537Q602.552 463.133 602.972 461.748Q603.392 460.363 603.879 459Q604.367 457.637 604.921 456.3Q605.475 454.962 606.094 453.654Q606.713 452.345 607.395 451.069Q608.077 449.792 608.821 448.551Q609.565 447.309 610.37 446.106Q611.174 444.902 612.036 443.74Q612.898 442.577 613.816 441.458Q614.735 440.339 615.707 439.267Q616.679 438.194 617.702 437.171Q618.726 436.147 619.798 435.175Q620.871 434.203 621.99 433.285Q623.109 432.367 624.271 431.505Q625.434 430.642 626.637 429.838Q627.841 429.034 629.082 428.29Q630.324 427.546 631.6 426.864Q632.877 426.181 634.185 425.562Q635.494 424.944 636.831 424.39Q638.168 423.836 639.531 423.348Q640.894 422.861 642.279 422.44Q643.664 422.02 645.068 421.668Q646.472 421.317 647.892 421.034Q649.311 420.752 650.743 420.54Q652.175 420.327 653.615 420.185Q655.056 420.044 656.502 419.973Q657.947 419.901 659.395 419.901Z"/><path fill="#3038CF" transform="matrix(0.488281 0 0 0.488281 -58.5938 -72.2656)" d="M547.678 292.154Q548.707 293.177 549.683 294.25Q550.66 295.323 551.583 296.442Q552.507 297.561 553.374 298.725Q554.241 299.888 555.05 301.092Q555.859 302.297 556.608 303.539Q557.357 304.782 558.045 306.059Q558.732 307.337 559.356 308.647Q559.98 309.956 560.538 311.295Q561.097 312.634 561.59 313.998Q562.082 315.363 562.507 316.749Q562.932 318.136 563.289 319.542Q563.645 320.948 563.932 322.37Q564.219 323.791 564.437 325.225Q564.654 326.659 564.8 328.102Q564.946 329.545 565.022 330.993Q565.097 332.441 565.101 333.891Q565.106 335.341 565.039 336.789Q564.972 338.237 564.834 339.681Q564.696 341.124 564.488 342.558Q564.279 343.993 564.001 345.415Q563.722 346.838 563.374 348.245Q563.026 349.652 562.609 351.04Q562.192 352.428 561.708 353.794Q561.223 355.16 560.672 356.501Q560.122 357.841 559.505 359.153Q558.889 360.465 558.21 361.744Q557.53 363.024 556.788 364.269Q556.047 365.514 555.245 366.721Q554.443 367.928 553.582 369.094Q552.722 370.26 551.806 371.382Q550.889 372.504 549.919 373.58Q548.948 374.656 547.926 375.683Q546.904 376.71 545.832 377.685Q544.761 378.66 543.643 379.582Q542.524 380.504 541.362 381.369Q540.2 382.235 538.997 383.042Q537.794 383.85 536.552 384.597Q535.311 385.344 534.034 386.03Q532.758 386.715 531.449 387.337Q530.14 387.959 528.802 388.516Q527.464 389.073 526.1 389.564Q524.736 390.055 523.35 390.478Q521.964 390.901 520.558 391.255Q519.153 391.61 517.732 391.895Q516.31 392.18 514.877 392.395Q513.443 392.61 512.001 392.754Q510.558 392.899 509.11 392.972Q507.662 393.046 506.212 393.048Q504.762 393.05 503.314 392.981Q501.865 392.913 500.422 392.773Q498.979 392.633 497.544 392.422Q496.109 392.212 494.686 391.931Q493.263 391.651 491.855 391.3Q490.448 390.95 489.059 390.532Q487.67 390.113 486.304 389.627Q484.937 389.14 483.596 388.588Q482.255 388.035 480.942 387.417Q479.63 386.799 478.349 386.118Q477.068 385.436 475.822 384.693Q474.576 383.949 473.368 383.146Q472.16 382.342 470.993 381.48Q469.826 380.618 468.703 379.7Q467.579 378.782 466.502 377.81Q465.424 376.838 464.396 375.814Q463.368 374.791 462.391 373.718Q461.414 372.645 460.491 371.526Q459.568 370.406 458.701 369.243Q457.833 368.08 457.024 366.875Q456.215 365.671 455.466 364.429Q454.717 363.186 454.03 361.909Q453.342 360.631 452.719 359.321Q452.095 358.011 451.536 356.673Q450.977 355.334 450.484 353.97Q449.992 352.605 449.567 351.218Q449.142 349.831 448.785 348.425Q448.429 347.02 448.142 345.598Q447.855 344.176 447.638 342.742Q447.421 341.308 447.274 339.866Q447.128 338.423 447.053 336.975Q446.977 335.527 446.973 334.077Q446.969 332.627 447.035 331.179Q447.102 329.73 447.24 328.287Q447.378 326.844 447.586 325.409Q447.795 323.975 448.074 322.552Q448.352 321.13 448.7 319.723Q449.049 318.316 449.465 316.928Q449.882 315.539 450.367 314.173Q450.851 312.807 451.402 311.467Q451.953 310.127 452.569 308.815Q453.185 307.503 453.865 306.223Q454.544 304.944 455.286 303.699Q456.028 302.454 456.83 301.247Q457.632 300.04 458.492 298.874Q459.352 297.708 460.269 296.586Q461.185 295.464 462.156 294.388Q463.126 293.312 464.149 292.285Q465.171 291.258 466.242 290.283Q467.314 289.307 468.432 288.386Q469.55 287.464 470.712 286.599Q471.874 285.733 473.077 284.926Q474.281 284.118 475.522 283.371Q476.763 282.623 478.04 281.938Q479.317 281.252 480.626 280.63Q481.935 280.008 483.273 279.451Q484.611 278.894 485.974 278.404Q487.338 277.913 488.724 277.49Q490.111 277.067 491.516 276.712Q492.921 276.358 494.343 276.073Q495.764 275.788 497.198 275.573Q498.631 275.358 500.074 275.213Q501.516 275.069 502.964 274.996Q504.412 274.922 505.862 274.92Q507.312 274.918 508.76 274.986Q510.209 275.055 511.652 275.195Q513.096 275.335 514.531 275.545Q515.965 275.756 517.388 276.037Q518.811 276.317 520.219 276.667Q521.626 277.017 523.015 277.436Q524.404 277.855 525.771 278.341Q527.137 278.827 528.478 279.38Q529.82 279.933 531.132 280.551Q532.445 281.169 533.726 281.85Q535.006 282.532 536.252 283.275Q537.498 284.019 538.706 284.822Q539.914 285.626 541.081 286.488Q542.248 287.35 543.372 288.268Q544.495 289.186 545.573 290.158Q546.65 291.13 547.678 292.154Z"/></g></svg>