<svg id="Layer_1" data-name="Layer 1" xmlns="http://www.w3.org/2000/svg" viewBox="0 0 500 500"><defs><style>.cls-1{fill:#3038cf;}</style></defs><path class="cls-1" d="M221.21,365.34V283.93a21.33,21.33,0,0,0-21.33-21.33H149a28.79,28.79,0,0,0-28.79,28.79V392.44a28.79,28.79,0,0,1-28.79,28.79h0a28.78,28.78,0,0,1-28.78-28.79V107.56A28.78,28.78,0,0,1,91.37,78.77h0a28.79,28.79,0,0,1,28.79,28.79v68.68A28.79,28.79,0,0,0,149,205h78.17a51.67,51.67,0,0,1,51.67,51.67V348a15.66,15.66,0,0,0,15.67,15.67H408.63a28.78,28.78,0,0,1,28.78,28.79h0a28.78,28.78,0,0,1-28.78,28.79H277.1A55.89,55.89,0,0,1,221.21,365.34Z"/><rect class="cls-1" x="335.98" y="162.23" width="57.58" height="143.17" rx="28.79" transform="translate(598.58 -130.95) rotate(90)"/><ellipse class="cls-1" cx="247.09" cy="163.08" rx="28.82" ry="28.86" transform="translate(-42.81 223.14) rotate(-45.13)"/></svg>