<svg width="462" height="462" viewBox="0 0 462 462" fill="none" xmlns="http://www.w3.org/2000/svg">
<path d="M352.214 311.315V434.615C352.214 449.115 340.414 460.915 325.914 460.915H26.7141C12.2141 460.915 0.414062 449.115 0.414062 434.615V135.415C0.414062 120.915 12.2141 109.115 26.7141 109.115H150.014C164.514 109.115 176.314 120.915 176.314 135.415V258.715C176.314 273.215 188.114 285.015 202.614 285.015H325.914C340.514 285.015 352.214 296.815 352.214 311.315Z" stroke="url(#paint0_linear_1086_96)" stroke-width="0.8299" stroke-miterlimit="10"/>
<path d="M364.314 299.215V422.515C364.314 437.015 352.514 448.815 338.014 448.815H38.8137C24.3137 448.815 12.5137 437.015 12.5137 422.515V123.315C12.5137 108.815 24.3137 97.0149 38.8137 97.0149H162.114C176.614 97.0149 188.414 108.815 188.414 123.315V246.615C188.414 261.115 200.214 272.915 214.714 272.915H338.014C352.614 272.915 364.314 284.715 364.314 299.215Z" stroke="url(#paint1_linear_1086_96)" stroke-width="0.8299" stroke-miterlimit="10"/>
<path d="M376.413 287.115V410.415C376.413 424.915 364.613 436.715 350.113 436.715H50.9133C36.4133 436.715 24.6133 424.915 24.6133 410.415V111.215C24.6133 96.7149 36.4133 84.9149 50.9133 84.9149H174.213C188.713 84.9149 200.513 96.7149 200.513 111.215V234.515C200.513 249.015 212.313 260.815 226.813 260.815H350.113C364.613 260.915 376.413 272.615 376.413 287.115Z" stroke="url(#paint2_linear_1086_96)" stroke-width="0.8299" stroke-miterlimit="10"/>
<path d="M388.515 275.115V398.415C388.515 412.915 376.715 424.715 362.215 424.715H63.0148C48.5148 424.715 36.7148 412.915 36.7148 398.415V99.2149C36.7148 84.7149 48.5148 72.9149 63.0148 72.9149H186.315C200.815 72.9149 212.615 84.7149 212.615 99.2149V222.515C212.615 237.015 224.415 248.815 238.915 248.815H362.215C376.715 248.815 388.515 260.515 388.515 275.115Z" stroke="url(#paint3_linear_1086_96)" stroke-width="0.8299" stroke-miterlimit="10"/>
<path d="M400.515 263.015V386.315C400.515 400.815 388.715 412.615 374.215 412.615H75.0148C60.5148 412.615 48.7148 400.815 48.7148 386.315V87.1149C48.7148 72.6149 60.5148 60.8149 75.0148 60.8149H198.315C212.815 60.8149 224.615 72.6149 224.615 87.1149V210.415C224.615 224.915 236.415 236.715 250.915 236.715H374.215C388.815 236.715 400.515 248.515 400.515 263.015Z" stroke="url(#paint4_linear_1086_96)" stroke-width="0.8299" stroke-miterlimit="10"/>
<path d="M412.614 250.915V374.215C412.614 388.715 400.814 400.515 386.314 400.515H87.1145C72.6145 400.515 60.8145 388.715 60.8145 374.215V75.015C60.8145 60.515 72.6145 48.715 87.1145 48.715H210.414C224.914 48.715 236.714 60.515 236.714 75.015V198.315C236.714 212.815 248.514 224.615 263.014 224.615H386.314C400.814 224.615 412.614 236.415 412.614 250.915Z" stroke="url(#paint5_linear_1086_96)" stroke-width="0.8299" stroke-miterlimit="10"/>
<path d="M424.714 238.815V362.115C424.714 376.615 412.914 388.415 398.414 388.415H99.2141C84.7141 388.415 72.9141 376.615 72.9141 362.115V62.9149C72.9141 48.4149 84.7141 36.6149 99.2141 36.6149H222.514C237.014 36.6149 248.814 48.4149 248.814 62.9149V186.215C248.814 200.715 260.614 212.515 275.114 212.515H398.414C412.914 212.615 424.714 224.315 424.714 238.815Z" stroke="url(#paint6_linear_1086_96)" stroke-width="0.8299" stroke-miterlimit="10"/>
<path d="M436.814 226.815V350.115C436.814 364.615 425.014 376.415 410.514 376.415H111.314C96.8137 376.415 85.0137 364.615 85.0137 350.115V50.9149C85.0137 36.4149 96.8137 24.6149 111.314 24.6149H234.614C249.114 24.6149 260.914 36.4149 260.914 50.9149V174.215C260.914 188.715 272.714 200.515 287.214 200.515H410.514C425.014 200.515 436.814 212.315 436.814 226.815Z" stroke="url(#paint7_linear_1086_96)" stroke-width="0.8299" stroke-miterlimit="10"/>
<path d="M448.814 214.715V338.015C448.814 352.515 437.014 364.315 422.514 364.315H123.314C108.814 364.315 97.0137 352.515 97.0137 338.015V38.8149C97.0137 24.3149 108.814 12.5149 123.314 12.5149H246.614C261.114 12.5149 272.914 24.3149 272.914 38.8149V162.115C272.914 176.615 284.714 188.415 299.214 188.415H422.514C437.114 188.415 448.814 200.215 448.814 214.715Z" stroke="url(#paint8_linear_1086_96)" stroke-width="0.8299" stroke-miterlimit="10"/>
<path d="M460.913 202.615V325.915C460.913 340.415 449.113 352.215 434.613 352.215H135.413C120.913 352.215 109.113 340.415 109.113 325.915V26.7149C109.113 12.2149 120.913 0.414917 135.413 0.414917H258.713C273.213 0.414917 285.013 12.2149 285.013 26.7149V150.015C285.013 164.515 296.813 176.315 311.313 176.315H434.613C449.113 176.315 460.913 188.115 460.913 202.615Z" stroke="url(#paint9_linear_1086_96)" stroke-width="0.8299" stroke-miterlimit="10"/>
<defs>
<linearGradient id="paint0_linear_1086_96" x1="0.135062" y1="285.016" x2="352.677" y2="285.016" gradientUnits="userSpaceOnUse">
<stop offset="6.18023e-07" stop-color="#8C8EEC"/>
<stop offset="0.5369" stop-color="#F0F1F1"/>
<stop offset="1" stop-color="#65ACF6"/>
</linearGradient>
<linearGradient id="paint1_linear_1086_96" x1="12.207" y1="272.944" x2="364.749" y2="272.944" gradientUnits="userSpaceOnUse">
<stop offset="6.18023e-07" stop-color="#8C8EEC"/>
<stop offset="0.5369" stop-color="#F0F1F1"/>
<stop offset="1" stop-color="#65ACF6"/>
</linearGradient>
<linearGradient id="paint2_linear_1086_96" x1="24.2789" y1="260.872" x2="376.821" y2="260.872" gradientUnits="userSpaceOnUse">
<stop offset="6.18023e-07" stop-color="#8C8EEC"/>
<stop offset="0.5369" stop-color="#F0F1F1"/>
<stop offset="1" stop-color="#65ACF6"/>
</linearGradient>
<linearGradient id="paint3_linear_1086_96" x1="36.3526" y1="248.799" x2="388.895" y2="248.799" gradientUnits="userSpaceOnUse">
<stop offset="6.18023e-07" stop-color="#8C8EEC"/>
<stop offset="0.5369" stop-color="#F0F1F1"/>
<stop offset="1" stop-color="#65ACF6"/>
</linearGradient>
<linearGradient id="paint4_linear_1086_96" x1="48.4249" y1="236.727" x2="400.967" y2="236.727" gradientUnits="userSpaceOnUse">
<stop offset="6.18023e-07" stop-color="#8C8EEC"/>
<stop offset="0.5369" stop-color="#F0F1F1"/>
<stop offset="1" stop-color="#65ACF6"/>
</linearGradient>
<linearGradient id="paint5_linear_1086_96" x1="60.4968" y1="224.655" x2="413.039" y2="224.655" gradientUnits="userSpaceOnUse">
<stop offset="6.18023e-07" stop-color="#8C8EEC"/>
<stop offset="0.5369" stop-color="#F0F1F1"/>
<stop offset="1" stop-color="#65ACF6"/>
</linearGradient>
<linearGradient id="paint6_linear_1086_96" x1="72.5687" y1="212.582" x2="425.111" y2="212.582" gradientUnits="userSpaceOnUse">
<stop offset="6.18023e-07" stop-color="#8C8EEC"/>
<stop offset="0.5369" stop-color="#F0F1F1"/>
<stop offset="1" stop-color="#65ACF6"/>
</linearGradient>
<linearGradient id="paint7_linear_1086_96" x1="84.6405" y1="200.51" x2="437.183" y2="200.51" gradientUnits="userSpaceOnUse">
<stop offset="6.18023e-07" stop-color="#8C8EEC"/>
<stop offset="0.5369" stop-color="#F0F1F1"/>
<stop offset="1" stop-color="#65ACF6"/>
</linearGradient>
<linearGradient id="paint8_linear_1086_96" x1="96.7128" y1="188.438" x2="449.255" y2="188.438" gradientUnits="userSpaceOnUse">
<stop offset="6.18023e-07" stop-color="#8C8EEC"/>
<stop offset="0.5369" stop-color="#F0F1F1"/>
<stop offset="1" stop-color="#65ACF6"/>
</linearGradient>
<linearGradient id="paint9_linear_1086_96" x1="108.785" y1="176.366" x2="461.327" y2="176.366" gradientUnits="userSpaceOnUse">
<stop offset="6.18023e-07" stop-color="#8C8EEC"/>
<stop offset="0.5369" stop-color="#F0F1F1"/>
<stop offset="1" stop-color="#65ACF6"/>
</linearGradient>
</defs>
</svg>
