<svg width="462" height="462" viewBox="0 0 462 462" fill="none" xmlns="http://www.w3.org/2000/svg">
<path d="M383.515 139.915V170.215C383.515 183.215 394.015 193.715 407.015 193.715H437.315C450.315 193.715 460.815 204.215 460.815 217.215V286.015C460.815 299.015 450.315 309.515 437.315 309.515H175.215C162.215 309.515 151.715 299.015 151.715 286.015V23.9149C151.715 10.9149 162.215 0.414917 175.215 0.414917H437.315C450.315 0.414917 460.815 10.9149 460.815 23.9149V93.0149C460.815 106.015 450.315 116.515 437.315 116.515H407.015C394.115 116.515 383.515 127.015 383.515 139.915Z" stroke="url(#paint0_linear_1086_85)" stroke-width="0.8299" stroke-miterlimit="10"/>
<path d="M366.714 156.715V187.015C366.714 200.015 377.214 210.515 390.214 210.515H420.514C433.514 210.515 444.014 221.015 444.014 234.015V302.815C444.014 315.815 433.514 326.315 420.514 326.315H158.414C145.414 326.315 134.914 315.815 134.914 302.815V40.7148C134.914 27.7148 145.414 17.2148 158.414 17.2148H420.514C433.514 17.2148 444.014 27.7148 444.014 40.7148V109.815C444.014 122.815 433.514 133.315 420.514 133.315H390.214C377.214 133.315 366.714 143.815 366.714 156.715Z" stroke="url(#paint1_linear_1086_85)" stroke-width="0.8299" stroke-miterlimit="10"/>
<path d="M349.913 173.615V203.915C349.913 216.915 360.413 227.415 373.413 227.415H403.713C416.713 227.415 427.213 237.915 427.213 250.915V319.715C427.213 332.715 416.713 343.215 403.713 343.215H141.613C128.613 343.215 118.113 332.715 118.113 319.715V57.5149C118.113 44.5149 128.613 34.0149 141.613 34.0149H403.713C416.713 34.0149 427.213 44.5149 427.213 57.5149V126.615C427.213 139.615 416.713 150.115 403.713 150.115H373.413C360.413 150.115 349.913 160.615 349.913 173.615Z" stroke="url(#paint2_linear_1086_85)" stroke-width="0.8299" stroke-miterlimit="10"/>
<path d="M333.115 190.415V220.715C333.115 233.715 343.615 244.215 356.615 244.215H386.914C399.914 244.215 410.414 254.715 410.414 267.715V336.515C410.414 349.515 399.914 360.015 386.914 360.015H124.814C111.814 360.015 101.314 349.515 101.314 336.515V74.3149C101.314 61.3149 111.814 50.8149 124.814 50.8149H386.914C399.914 50.8149 410.414 61.3149 410.414 74.3149V143.415C410.414 156.415 399.914 166.915 386.914 166.915H356.615C343.615 166.915 333.115 177.415 333.115 190.415Z" stroke="url(#paint3_linear_1086_85)" stroke-width="0.8299" stroke-miterlimit="10"/>
<path d="M316.314 207.215V237.515C316.314 250.515 326.814 261.015 339.814 261.015H370.114C383.114 261.015 393.614 271.515 393.614 284.515V353.315C393.614 366.315 383.114 376.815 370.114 376.815H108.014C95.0137 376.815 84.5137 366.315 84.5137 353.315V91.1149C84.5137 78.1149 95.0137 67.6149 108.014 67.6149H370.114C383.114 67.6149 393.614 78.1149 393.614 91.1149V160.215C393.614 173.215 383.114 183.715 370.114 183.715H339.814C326.814 183.715 316.314 194.215 316.314 207.215Z" stroke="url(#paint4_linear_1086_85)" stroke-width="0.8299" stroke-miterlimit="10"/>
<path d="M299.515 224.015V254.315C299.515 267.315 310.015 277.815 323.015 277.815H353.315C366.315 277.815 376.815 288.315 376.815 301.315V370.015C376.815 383.015 366.315 393.515 353.315 393.515H91.2148C78.2148 393.515 67.7148 383.015 67.7148 370.015V107.915C67.7148 94.9149 78.2148 84.4149 91.2148 84.4149H353.315C366.315 84.4149 376.815 94.9149 376.815 107.915V177.015C376.815 190.015 366.315 200.515 353.315 200.515H323.015C310.015 200.515 299.515 211.015 299.515 224.015Z" stroke="url(#paint5_linear_1086_85)" stroke-width="0.8299" stroke-miterlimit="10"/>
<path d="M282.714 240.815V271.115C282.714 284.115 293.214 294.615 306.214 294.615H336.514C349.514 294.615 360.014 305.115 360.014 318.115V386.915C360.014 399.915 349.514 410.415 336.514 410.415H74.4141C61.4141 410.415 50.9141 399.915 50.9141 386.915V124.815C50.9141 111.815 61.4141 101.315 74.4141 101.315H336.514C349.514 101.315 360.014 111.815 360.014 124.815V193.915C360.014 206.915 349.514 217.415 336.514 217.415H306.214C293.214 217.315 282.714 227.815 282.714 240.815Z" stroke="url(#paint6_linear_1086_85)" stroke-width="0.8299" stroke-miterlimit="10"/>
<path d="M265.914 257.615V287.915C265.914 300.915 276.414 311.415 289.414 311.415H319.714C332.714 311.415 343.214 321.915 343.214 334.915V403.715C343.214 416.715 332.714 427.215 319.714 427.215H57.5137C44.5137 427.215 34.0137 416.715 34.0137 403.715V141.615C34.0137 128.615 44.5137 118.115 57.5137 118.115H319.614C332.614 118.115 343.114 128.615 343.114 141.615V210.715C343.114 223.715 332.614 234.215 319.614 234.215H289.314C276.414 234.115 265.914 244.715 265.914 257.615Z" stroke="url(#paint7_linear_1086_85)" stroke-width="0.8299" stroke-miterlimit="10"/>
<path d="M249.015 274.415V304.715C249.015 317.715 259.515 328.215 272.515 328.215H302.815C315.815 328.215 326.315 338.715 326.315 351.715V420.515C326.315 433.515 315.815 444.015 302.815 444.015H40.7148C27.7148 444.015 17.2148 433.515 17.2148 420.515V158.415C17.2148 145.415 27.7148 134.915 40.7148 134.915H302.815C315.815 134.915 326.315 145.415 326.315 158.415V227.515C326.315 240.515 315.815 251.015 302.815 251.015H272.515C259.615 251.015 249.015 261.515 249.015 274.415Z" stroke="url(#paint8_linear_1086_85)" stroke-width="0.8299" stroke-miterlimit="10"/>
<path d="M232.214 291.215V321.515C232.214 334.515 242.714 345.015 255.714 345.015H286.014C299.014 345.015 309.514 355.515 309.514 368.515V437.315C309.514 450.315 299.014 460.815 286.014 460.815H23.9141C10.9141 460.815 0.414062 450.315 0.414062 437.315V175.215C0.414062 162.215 10.9141 151.715 23.9141 151.715H286.014C299.014 151.715 309.514 162.215 309.514 175.215V244.315C309.514 257.315 299.014 267.815 286.014 267.815H255.714C242.714 267.815 232.214 278.315 232.214 291.215Z" stroke="url(#paint9_linear_1086_85)" stroke-width="0.8299" stroke-miterlimit="10"/>
<defs>
<linearGradient id="paint0_linear_1086_85" x1="151.353" y1="154.946" x2="461.235" y2="154.946" gradientUnits="userSpaceOnUse">
<stop offset="6.18023e-07" stop-color="#8C8EEC"/>
<stop offset="0.5369" stop-color="#F0F1F1"/>
<stop offset="1" stop-color="#65ACF6"/>
</linearGradient>
<linearGradient id="paint1_linear_1086_85" x1="134.54" y1="171.758" x2="444.422" y2="171.758" gradientUnits="userSpaceOnUse">
<stop offset="6.18023e-07" stop-color="#8C8EEC"/>
<stop offset="0.5369" stop-color="#F0F1F1"/>
<stop offset="1" stop-color="#65ACF6"/>
</linearGradient>
<linearGradient id="paint2_linear_1086_85" x1="117.727" y1="188.57" x2="427.609" y2="188.57" gradientUnits="userSpaceOnUse">
<stop offset="6.18023e-07" stop-color="#8C8EEC"/>
<stop offset="0.5369" stop-color="#F0F1F1"/>
<stop offset="1" stop-color="#65ACF6"/>
</linearGradient>
<linearGradient id="paint3_linear_1086_85" x1="100.916" y1="205.383" x2="410.798" y2="205.383" gradientUnits="userSpaceOnUse">
<stop offset="6.18023e-07" stop-color="#8C8EEC"/>
<stop offset="0.5369" stop-color="#F0F1F1"/>
<stop offset="1" stop-color="#65ACF6"/>
</linearGradient>
<linearGradient id="paint4_linear_1086_85" x1="84.1027" y1="222.195" x2="393.985" y2="222.195" gradientUnits="userSpaceOnUse">
<stop offset="6.18023e-07" stop-color="#8C8EEC"/>
<stop offset="0.5369" stop-color="#F0F1F1"/>
<stop offset="1" stop-color="#65ACF6"/>
</linearGradient>
<linearGradient id="paint5_linear_1086_85" x1="67.2916" y1="239.007" x2="377.173" y2="239.007" gradientUnits="userSpaceOnUse">
<stop offset="6.18023e-07" stop-color="#8C8EEC"/>
<stop offset="0.5369" stop-color="#F0F1F1"/>
<stop offset="1" stop-color="#65ACF6"/>
</linearGradient>
<linearGradient id="paint6_linear_1086_85" x1="50.4786" y1="255.82" x2="360.36" y2="255.82" gradientUnits="userSpaceOnUse">
<stop offset="6.18023e-07" stop-color="#8C8EEC"/>
<stop offset="0.5369" stop-color="#F0F1F1"/>
<stop offset="1" stop-color="#65ACF6"/>
</linearGradient>
<linearGradient id="paint7_linear_1086_85" x1="33.6658" y1="272.632" x2="343.548" y2="272.632" gradientUnits="userSpaceOnUse">
<stop offset="6.18023e-07" stop-color="#8C8EEC"/>
<stop offset="0.5369" stop-color="#F0F1F1"/>
<stop offset="1" stop-color="#65ACF6"/>
</linearGradient>
<linearGradient id="paint8_linear_1086_85" x1="16.8547" y1="289.444" x2="326.737" y2="289.444" gradientUnits="userSpaceOnUse">
<stop offset="6.18023e-07" stop-color="#8C8EEC"/>
<stop offset="0.5369" stop-color="#F0F1F1"/>
<stop offset="1" stop-color="#65ACF6"/>
</linearGradient>
<linearGradient id="paint9_linear_1086_85" x1="0.0416625" y1="306.256" x2="309.923" y2="306.256" gradientUnits="userSpaceOnUse">
<stop offset="6.18023e-07" stop-color="#8C8EEC"/>
<stop offset="0.5369" stop-color="#F0F1F1"/>
<stop offset="1" stop-color="#65ACF6"/>
</linearGradient>
</defs>
</svg>
