<svg width="355" height="355" viewBox="0 0 355 355" fill="none" xmlns="http://www.w3.org/2000/svg">
<path d="M133.2 262.8H110.6C100.1 262.8 91.4998 254.3 91.4998 243.7V221.1C91.4998 210.6 99.9997 202 110.6 202H133.2C143.7 202 152.3 210.5 152.3 221.1V243.7C152.2 254.2 143.7 262.8 133.2 262.8ZM0.299805 129.9V334.8C0.299805 345.3 8.79978 353.9 19.3998 353.9H224.3C234.8 353.9 243.4 345.4 243.4 334.8V129.9C243.4 119.4 234.9 110.8 224.3 110.8H19.3998C8.89978 110.8 0.299805 119.4 0.299805 129.9Z" stroke="#1E1F20" stroke-width="0.6" stroke-miterlimit="10"/>
<path d="M149 247H126.4C115.9 247 107.3 238.5 107.3 227.9V205.3C107.3 194.8 115.8 186.2 126.4 186.2H149C159.5 186.2 168.1 194.7 168.1 205.3V227.9C168 238.4 159.5 247 149 247ZM16.0996 114.1V319C16.0996 329.5 24.5997 338.1 35.1997 338.1H240.1C250.6 338.1 259.2 329.6 259.2 319V114.1C259.2 103.6 250.7 95 240.1 95H35.1997C24.6997 95.1 16.0996 103.6 16.0996 114.1Z" stroke="#1E1F20" stroke-width="0.6" stroke-miterlimit="10"/>
<path d="M164.699 231.2H142.099C131.599 231.2 122.999 222.7 122.999 212.1V189.5C122.999 179 131.499 170.4 142.099 170.4H164.699C175.199 170.4 183.799 178.9 183.799 189.5V212.1C183.799 222.6 175.299 231.2 164.699 231.2ZM31.8994 98.3001V303.2C31.8994 313.7 40.3994 322.3 50.9994 322.3H255.899C266.399 322.3 274.999 313.8 274.999 303.2V98.3001C274.999 87.8001 266.499 79.2001 255.899 79.2001H50.9994C40.3994 79.3001 31.8994 87.8001 31.8994 98.3001Z" stroke="#1E1F20" stroke-width="0.6" stroke-miterlimit="10"/>
<path d="M180.5 215.4H157.9C147.4 215.4 138.8 206.9 138.8 196.3V173.7C138.8 163.2 147.3 154.6 157.9 154.6H180.5C191 154.6 199.6 163.1 199.6 173.7V196.3C199.6 206.9 191.1 215.4 180.5 215.4ZM47.7002 82.6V287.5C47.7002 298 56.2002 306.6 66.8002 306.6H271.7C282.2 306.6 290.8 298.1 290.8 287.5V82.6C290.8 72.1 282.3 63.5 271.7 63.5H66.8002C56.2002 63.5 47.7002 72 47.7002 82.6Z" stroke="#1E1F20" stroke-width="0.6" stroke-miterlimit="10"/>
<path d="M196.3 199.6H173.7C163.2 199.6 154.6 191.1 154.6 180.5V157.9C154.6 147.4 163.1 138.8 173.7 138.8H196.3C206.8 138.8 215.4 147.3 215.4 157.9V180.5C215.4 191.1 206.8 199.6 196.3 199.6ZM63.5 66.8001V271.7C63.5 282.2 72 290.8 82.6 290.8H287.5C298 290.8 306.6 282.3 306.6 271.7V66.8001C306.6 56.3001 298.1 47.7001 287.5 47.7001H82.6C72 47.7001 63.5 56.2001 63.5 66.8001Z" stroke="#1E1F20" stroke-width="0.6" stroke-miterlimit="10"/>
<path d="M212.1 183.8H189.5C179 183.8 170.4 175.3 170.4 164.7V142.1C170.4 131.6 178.9 123 189.5 123H212.1C222.6 123 231.2 131.5 231.2 142.1V164.7C231.2 175.3 222.6 183.8 212.1 183.8ZM79.2998 51V255.9C79.2998 266.4 87.7998 275 98.3998 275H303.3C313.8 275 322.4 266.5 322.4 255.9V51C322.4 40.5 313.9 31.9 303.3 31.9H98.3998C87.7998 31.9 79.2998 40.5 79.2998 51Z" stroke="#1E1F20" stroke-width="0.6" stroke-miterlimit="10"/>
<path d="M227.9 168.1H205.3C194.8 168.1 186.2 159.6 186.2 149V126.4C186.2 115.9 194.7 107.3 205.3 107.3H227.9C238.4 107.3 247 115.8 247 126.4V149C247 159.5 238.4 168.1 227.9 168.1ZM95 35.2001V240.1C95 250.6 103.5 259.2 114.1 259.2H319C329.5 259.2 338.1 250.7 338.1 240.1V35.2001C338.1 24.7001 329.6 16.1001 319 16.1001H114.1C103.6 16.1001 95 24.7001 95 35.2001Z" stroke="#1E1F20" stroke-width="0.6" stroke-miterlimit="10"/>
<path d="M243.7 152.3H221.1C210.6 152.3 202 143.8 202 133.2V110.6C202 100.1 210.5 91.5001 221.1 91.5001H243.7C254.2 91.5001 262.8 100 262.8 110.6V133.2C262.7 143.7 254.2 152.3 243.7 152.3ZM110.8 19.4V224.3C110.8 234.8 119.3 243.4 129.9 243.4H334.8C345.3 243.4 353.9 234.9 353.9 224.3V19.4C353.9 8.90005 345.4 0.300049 334.8 0.300049H129.9C119.4 0.400049 110.8 8.90005 110.8 19.4Z" stroke="#1E1F20" stroke-width="0.6" stroke-miterlimit="10"/>
</svg>
