<svg width="442" height="350" viewBox="0 0 442 350" fill="none" xmlns="http://www.w3.org/2000/svg">
<path d="M165.3 185.4V22.7C165.3 10.5 175.2 0.5 187.5 0.5H419.1C431.3 0.5 441.3 10.4 441.3 22.7V254.3C441.3 266.5 431.4 276.5 419.1 276.5H256.5C244.3 276.5 234.3 266.6 234.3 254.3V229.6C234.3 217.4 224.4 207.4 212.1 207.4H187.4C175.3 207.5 165.3 197.6 165.3 185.4Z" stroke="#B5D1FA" stroke-miterlimit="10"/>
<path d="M141.8 195.7V33.0999C141.8 20.8999 151.7 10.8999 164 10.8999H395.6C407.8 10.8999 417.8 20.7999 417.8 33.0999V264.7C417.8 276.9 407.9 286.9 395.6 286.9H232.9C220.7 286.9 210.7 277 210.7 264.7V240C210.7 227.8 200.8 217.8 188.5 217.8H163.8C151.7 217.9 141.8 207.9 141.8 195.7Z" stroke="#B5D1FA" stroke-miterlimit="10"/>
<path d="M118.2 206V43.3999C118.2 31.1999 128.1 21.2 140.4 21.2H372C384.2 21.2 394.2 31.0999 394.2 43.3999V275C394.2 287.2 384.3 297.2 372 297.2H209.4C197.2 297.2 187.2 287.3 187.2 275V250.3C187.2 238.1 177.3 228.1 165 228.1H140.3C128.2 228.2 118.2 218.3 118.2 206Z" stroke="#B5D1FA" stroke-miterlimit="10"/>
<path d="M94.7002 216.4V53.7C94.7002 41.5 104.6 31.5 116.9 31.5H348.5C360.7 31.5 370.7 41.4 370.7 53.7V285.3C370.7 297.5 360.8 307.5 348.5 307.5H185.9C173.7 307.5 163.7 297.6 163.7 285.3V260.6C163.7 248.4 153.8 238.4 141.5 238.4H116.8C104.6 238.6 94.7002 228.6 94.7002 216.4Z" stroke="#B5D1FA" stroke-miterlimit="10"/>
<path d="M71.2002 226.7V64.0999C71.2002 51.8999 81.1002 41.8999 93.4002 41.8999H325C337.2 41.8999 347.2 51.7999 347.2 64.0999V295.7C347.2 307.9 337.3 317.9 325 317.9H162.3C150.1 317.9 140.1 308 140.1 295.7V271C140.1 258.8 130.2 248.8 117.9 248.8H93.2002C81.1002 248.9 71.2002 239 71.2002 226.7Z" stroke="#B5D1FA" stroke-miterlimit="10"/>
<path d="M47.5996 237.1V74.3999C47.5996 62.1999 57.4996 52.2 69.7996 52.2H301.4C313.6 52.2 323.6 62.0999 323.6 74.3999V306C323.6 318.2 313.7 328.2 301.4 328.2H138.8C126.6 328.2 116.6 318.3 116.6 306V281.3C116.6 269.1 106.7 259.1 94.3996 259.1H69.6996C57.4996 259.3 47.5996 249.3 47.5996 237.1Z" stroke="#B5D1FA" stroke-miterlimit="10"/>
<path d="M24.0996 247.4V84.8001C24.0996 72.6001 33.9996 62.6001 46.2996 62.6001H277.9C290.1 62.6001 300.1 72.5001 300.1 84.8001V316.4C300.1 328.6 290.2 338.6 277.9 338.6H115.2C103 338.6 92.9996 328.7 92.9996 316.4V291.7C92.9996 279.5 83.0996 269.5 70.7996 269.5H46.0996C33.9996 269.6 24.0996 259.7 24.0996 247.4Z" stroke="#B5D1FA" stroke-miterlimit="10"/>
<path d="M0.5 257.8V95.0999C0.5 82.8999 10.4 72.8999 22.7 72.8999H254.3C266.5 72.8999 276.5 82.7999 276.5 95.0999V326.7C276.5 338.9 266.6 348.9 254.3 348.9H91.7C79.5 348.9 69.5 339 69.5 326.7V302C69.5 289.8 59.6 279.8 47.3 279.8H22.6C10.4 279.9 0.5 270 0.5 257.8Z" stroke="#B5D1FA" stroke-miterlimit="10"/>
</svg>
