<svg width="575" height="455" viewBox="0 0 575 455" fill="none" xmlns="http://www.w3.org/2000/svg">
<path d="M215.014 241.115V29.3149C215.014 13.4149 227.914 0.414917 243.914 0.414917H545.514C561.414 0.414917 574.414 13.3149 574.414 29.3149V330.915C574.414 346.815 561.514 359.815 545.514 359.815H333.714C317.814 359.815 304.814 346.915 304.814 330.915V298.815C304.814 282.915 291.914 269.915 275.914 269.915H243.814C228.014 269.915 215.014 257.015 215.014 241.115Z" stroke="url(#paint0_linear_1086_118)" stroke-width="0.8299" stroke-miterlimit="10"/>
<path d="M191.215 251.515V39.8149C191.215 23.9149 204.115 10.9149 220.115 10.9149H521.715C537.615 10.9149 550.615 23.8149 550.615 39.8149V341.415C550.615 357.315 537.715 370.315 521.715 370.315H309.915C294.015 370.315 281.015 357.415 281.015 341.415V309.315C281.015 293.415 268.115 280.415 252.115 280.415H220.015C204.115 280.415 191.215 267.515 191.215 251.515Z" stroke="url(#paint1_linear_1086_118)" stroke-width="0.8299" stroke-miterlimit="10"/>
<path d="M167.414 262.015V50.2149C167.414 34.3149 180.314 21.3149 196.314 21.3149H497.914C513.814 21.3149 526.814 34.2149 526.814 50.2149V351.815C526.814 367.715 513.914 380.715 497.914 380.715H286.114C270.214 380.715 257.214 367.815 257.214 351.815V319.715C257.214 303.815 244.314 290.815 228.314 290.815H196.214C180.314 290.915 167.414 278.015 167.414 262.015Z" stroke="url(#paint2_linear_1086_118)" stroke-width="0.8299" stroke-miterlimit="10"/>
<path d="M143.514 272.515V60.715C143.514 44.815 156.414 31.8149 172.414 31.8149H474.014C489.914 31.8149 502.914 44.715 502.914 60.715V362.315C502.914 378.215 490.014 391.215 474.014 391.215H262.214C246.314 391.215 233.314 378.315 233.314 362.315V330.215C233.314 314.315 220.414 301.315 204.414 301.315H172.314C156.414 301.415 143.514 288.415 143.514 272.515Z" stroke="url(#paint3_linear_1086_118)" stroke-width="0.8299" stroke-miterlimit="10"/>
<path d="M119.715 283.015V71.215C119.715 55.315 132.615 42.3149 148.615 42.3149H450.215C466.115 42.3149 479.115 55.215 479.115 71.215V372.815C479.115 388.715 466.215 401.715 450.215 401.715H238.415C222.515 401.715 209.515 388.815 209.515 372.815V340.715C209.515 324.815 196.615 311.815 180.615 311.815H148.515C132.615 311.815 119.715 298.915 119.715 283.015Z" stroke="url(#paint4_linear_1086_118)" stroke-width="0.8299" stroke-miterlimit="10"/>
<path d="M95.8145 293.515V81.715C95.8145 65.815 108.714 52.8149 124.714 52.8149H426.314C442.214 52.8149 455.214 65.715 455.214 81.715V383.315C455.214 399.215 442.314 412.215 426.314 412.215H214.514C198.614 412.215 185.614 399.315 185.614 383.315V351.215C185.614 335.315 172.714 322.315 156.714 322.315H124.714C108.714 322.315 95.8145 309.415 95.8145 293.515Z" stroke="url(#paint5_linear_1086_118)" stroke-width="0.8299" stroke-miterlimit="10"/>
<path d="M72.0137 303.915V92.115C72.0137 76.215 84.9137 63.215 100.914 63.215H402.514C418.414 63.215 431.414 76.115 431.414 92.115V393.715C431.414 409.615 418.514 422.615 402.514 422.615H190.714C174.814 422.615 161.814 409.715 161.814 393.715V361.615C161.814 345.715 148.914 332.715 132.914 332.715H100.814C84.9137 332.815 72.0137 319.915 72.0137 303.915Z" stroke="url(#paint6_linear_1086_118)" stroke-width="0.8299" stroke-miterlimit="10"/>
<path d="M48.1133 314.415V102.615C48.1133 86.715 61.0133 73.715 77.0133 73.715H378.613C394.513 73.715 407.513 86.615 407.513 102.615V404.215C407.513 420.115 394.613 433.115 378.613 433.115H166.813C150.913 433.115 137.913 420.215 137.913 404.215V372.115C137.913 356.215 125.013 343.215 109.013 343.215H76.9133C61.0133 343.315 48.1133 330.415 48.1133 314.415Z" stroke="url(#paint7_linear_1086_118)" stroke-width="0.8299" stroke-miterlimit="10"/>
<path d="M24.3145 324.915V113.115C24.3145 97.215 37.2145 84.215 53.2145 84.215H354.814C370.714 84.215 383.714 97.115 383.714 113.115V414.715C383.714 430.615 370.814 443.615 354.814 443.615H143.014C127.114 443.615 114.114 430.715 114.114 414.715V382.615C114.114 366.715 101.214 353.715 85.2145 353.715H53.1145C37.2145 353.815 24.3145 340.815 24.3145 324.915Z" stroke="url(#paint8_linear_1086_118)" stroke-width="0.8299" stroke-miterlimit="10"/>
<path d="M0.414062 335.415V123.615C0.414062 107.715 13.3141 94.715 29.3141 94.715H330.914C346.814 94.715 359.814 107.615 359.814 123.615V425.215C359.814 441.115 346.914 454.115 330.914 454.115H119.114C103.214 454.115 90.2141 441.215 90.2141 425.215V393.115C90.2141 377.215 77.3141 364.215 61.3141 364.215H29.3141C13.4141 364.215 0.414062 351.315 0.414062 335.415Z" stroke="url(#paint9_linear_1086_118)" stroke-width="0.8299" stroke-miterlimit="10"/>
<defs>
<linearGradient id="paint0_linear_1086_118" x1="214.643" y1="180.107" x2="574.83" y2="180.107" gradientUnits="userSpaceOnUse">
<stop offset="6.18023e-07" stop-color="#8C8EEC"/>
<stop offset="0.5369" stop-color="#F0F1F1"/>
<stop offset="1" stop-color="#65ACF6"/>
</linearGradient>
<linearGradient id="paint1_linear_1086_118" x1="190.799" y1="190.586" x2="550.986" y2="190.586" gradientUnits="userSpaceOnUse">
<stop offset="6.18023e-07" stop-color="#8C8EEC"/>
<stop offset="0.5369" stop-color="#F0F1F1"/>
<stop offset="1" stop-color="#65ACF6"/>
</linearGradient>
<linearGradient id="paint2_linear_1086_118" x1="166.953" y1="201.065" x2="527.14" y2="201.065" gradientUnits="userSpaceOnUse">
<stop offset="6.18023e-07" stop-color="#8C8EEC"/>
<stop offset="0.5369" stop-color="#F0F1F1"/>
<stop offset="1" stop-color="#65ACF6"/>
</linearGradient>
<linearGradient id="paint3_linear_1086_118" x1="143.107" y1="211.543" x2="503.294" y2="211.543" gradientUnits="userSpaceOnUse">
<stop offset="6.18023e-07" stop-color="#8C8EEC"/>
<stop offset="0.5369" stop-color="#F0F1F1"/>
<stop offset="1" stop-color="#65ACF6"/>
</linearGradient>
<linearGradient id="paint4_linear_1086_118" x1="119.263" y1="222.022" x2="479.45" y2="222.022" gradientUnits="userSpaceOnUse">
<stop offset="6.18023e-07" stop-color="#8C8EEC"/>
<stop offset="0.5369" stop-color="#F0F1F1"/>
<stop offset="1" stop-color="#65ACF6"/>
</linearGradient>
<linearGradient id="paint5_linear_1086_118" x1="95.4171" y1="232.501" x2="455.604" y2="232.501" gradientUnits="userSpaceOnUse">
<stop offset="6.18023e-07" stop-color="#8C8EEC"/>
<stop offset="0.5369" stop-color="#F0F1F1"/>
<stop offset="1" stop-color="#65ACF6"/>
</linearGradient>
<linearGradient id="paint6_linear_1086_118" x1="71.571" y1="242.98" x2="431.758" y2="242.98" gradientUnits="userSpaceOnUse">
<stop offset="6.18023e-07" stop-color="#8C8EEC"/>
<stop offset="0.5369" stop-color="#F0F1F1"/>
<stop offset="1" stop-color="#65ACF6"/>
</linearGradient>
<linearGradient id="paint7_linear_1086_118" x1="47.7252" y1="253.458" x2="407.913" y2="253.458" gradientUnits="userSpaceOnUse">
<stop offset="6.18023e-07" stop-color="#8C8EEC"/>
<stop offset="0.5369" stop-color="#F0F1F1"/>
<stop offset="1" stop-color="#65ACF6"/>
</linearGradient>
<linearGradient id="paint8_linear_1086_118" x1="23.8811" y1="263.937" x2="384.068" y2="263.937" gradientUnits="userSpaceOnUse">
<stop offset="6.18023e-07" stop-color="#8C8EEC"/>
<stop offset="0.5369" stop-color="#F0F1F1"/>
<stop offset="1" stop-color="#65ACF6"/>
</linearGradient>
<linearGradient id="paint9_linear_1086_118" x1="0.0353625" y1="274.416" x2="360.223" y2="274.416" gradientUnits="userSpaceOnUse">
<stop offset="6.18023e-07" stop-color="#8C8EEC"/>
<stop offset="0.5369" stop-color="#F0F1F1"/>
<stop offset="1" stop-color="#65ACF6"/>
</linearGradient>
</defs>
</svg>
