<svg width="355" height="355" viewBox="0 0 355 355" fill="none" xmlns="http://www.w3.org/2000/svg">
<path d="M270.4 239V333.7C270.4 344.8 261.4 353.9 250.2 353.9H20.4998C9.39982 353.9 0.299805 344.9 0.299805 333.7V104C0.299805 92.9 9.29982 83.8 20.4998 83.8H115.2C126.3 83.8 135.4 92.8 135.4 104V198.7C135.4 209.8 144.4 218.9 155.6 218.9H250.3C261.4 218.8 270.4 227.8 270.4 239Z" stroke="#1E1F20" stroke-width="0.6" stroke-miterlimit="10"/>
<path d="M282.3 227.1V321.8C282.3 332.9 273.3 342 262.1 342H32.4002C21.3002 342 12.2002 333 12.2002 321.8V92.1C12.2002 81 21.2002 71.9 32.4002 71.9H127.1C138.2 71.9 147.3 80.9 147.3 92.1V186.8C147.3 197.9 156.3 207 167.5 207H262.2C273.3 206.9 282.3 215.9 282.3 227.1Z" stroke="#1E1F20" stroke-width="0.6" stroke-miterlimit="10"/>
<path d="M294.2 215.1V309.8C294.2 320.9 285.2 330 274 330H44.2996C33.1996 330 24.0996 321 24.0996 309.8V80.1C24.0996 69 33.0996 59.9 44.2996 59.9H139C150.1 59.9 159.2 68.9 159.2 80.1V174.8C159.2 185.9 168.2 195 179.4 195H274.1C285.2 195 294.2 204 294.2 215.1Z" stroke="#1E1F20" stroke-width="0.6" stroke-miterlimit="10"/>
<path d="M306.2 203.2V297.9C306.2 309 297.2 318.1 286 318.1H56.2996C45.1996 318.1 36.0996 309.1 36.0996 297.9V68.2C36.0996 57.1 45.0996 48 56.2996 48H151C162.1 48 171.2 57 171.2 68.2V162.9C171.2 174 180.2 183.1 191.4 183.1H286.1C297.1 183 306.2 192.1 306.2 203.2Z" stroke="#1E1F20" stroke-width="0.6" stroke-miterlimit="10"/>
<path d="M318.1 191.3V286C318.1 297.1 309.1 306.2 297.9 306.2H68.2C57.1 306.2 48 297.2 48 286V56.3C48 45.2 57 36.1 68.2 36.1H162.9C174 36.1 183.1 45.1 183.1 56.3V151C183.1 162.1 192.1 171.2 203.3 171.2H298C309.1 171.1 318.1 180.2 318.1 191.3Z" stroke="#1E1F20" stroke-width="0.6" stroke-miterlimit="10"/>
<path d="M329.999 179.4V274.1C329.999 285.2 320.999 294.3 309.799 294.3H80.0994C68.9994 294.3 59.8994 285.3 59.8994 274.1V44.4C59.8994 33.3 68.8994 24.2 80.0994 24.2H174.799C185.899 24.2 194.999 33.2 194.999 44.4V139.1C194.999 150.2 203.999 159.3 215.199 159.3H309.899C320.999 159.2 329.999 168.2 329.999 179.4Z" stroke="#1E1F20" stroke-width="0.6" stroke-miterlimit="10"/>
<path d="M341.9 167.5V262.2C341.9 273.3 332.9 282.4 321.7 282.4H91.9998C80.8998 282.4 71.7998 273.4 71.7998 262.2V32.5C71.7998 21.4 80.7998 12.3 91.9998 12.3H186.7C197.8 12.3 206.9 21.3 206.9 32.5V127.2C206.9 138.3 215.9 147.4 227.1 147.4H321.8C332.9 147.3 341.9 156.3 341.9 167.5Z" stroke="#1E1F20" stroke-width="0.6" stroke-miterlimit="10"/>
<path d="M353.8 155.5V250.2C353.8 261.3 344.8 270.4 333.6 270.4H103.9C92.8002 270.4 83.7002 261.4 83.7002 250.2V20.5C83.7002 9.4 92.7002 0.299988 103.9 0.299988H198.6C209.7 0.299988 218.8 9.3 218.8 20.5V115.2C218.8 126.3 227.8 135.4 239 135.4H333.7C344.8 135.4 353.8 144.4 353.8 155.5Z" stroke="#1E1F20" stroke-width="0.6" stroke-miterlimit="10"/>
</svg>
