<svg width="355" height="355" viewBox="0 0 355 355" fill="none" xmlns="http://www.w3.org/2000/svg">
<path d="M294.5 107.5V130.7C294.5 140.7 302.6 148.7 312.5 148.7H335.8C345.8 148.7 353.8 156.8 353.8 166.7V219.5C353.8 229.5 345.7 237.5 335.8 237.5H134.5C124.5 237.5 116.5 229.4 116.5 219.5V18.3C116.5 8.29999 124.6 0.299988 134.5 0.299988H335.8C345.8 0.299988 353.8 8.39999 353.8 18.3V71.4C353.8 81.4 345.7 89.4 335.8 89.4H312.5C302.5 89.4 294.5 97.5 294.5 107.5Z" stroke="#1E1F20" stroke-width="0.6" stroke-miterlimit="10"/>
<path d="M277.899 124.1V147.4C277.899 157.4 285.999 165.4 295.899 165.4H319.199C329.199 165.4 337.199 173.5 337.199 183.4V236.2C337.199 246.2 329.099 254.2 319.199 254.2H117.899C107.899 254.2 99.8994 246.1 99.8994 236.2V34.9C99.8994 24.9 107.999 16.9 117.899 16.9H319.199C329.199 16.9 337.199 25 337.199 34.9V88C337.199 98 329.099 106 319.199 106H295.899C285.899 106 277.899 114.1 277.899 124.1Z" stroke="#1E1F20" stroke-width="0.6" stroke-miterlimit="10"/>
<path d="M261.3 140.7V164C261.3 174 269.4 182 279.3 182H302.6C312.6 182 320.6 190.1 320.6 200V252.8C320.6 262.8 312.5 270.8 302.6 270.8H101.3C91.2998 270.8 83.2998 262.7 83.2998 252.8V51.5C83.2998 41.5 91.3998 33.5 101.3 33.5H302.6C312.6 33.5 320.6 41.6 320.6 51.5V104.6C320.6 114.6 312.5 122.6 302.6 122.6H279.3C269.3 122.6 261.3 130.7 261.3 140.7Z" stroke="#1E1F20" stroke-width="0.6" stroke-miterlimit="10"/>
<path d="M244.7 157.3V180.6C244.7 190.6 252.8 198.6 262.7 198.6H286C296 198.6 304 206.7 304 216.6V269.4C304 279.4 295.9 287.4 286 287.4H84.7002C74.7002 287.4 66.7002 279.3 66.7002 269.4V68.1C66.7002 58.1 74.8002 50.1 84.7002 50.1H286C296 50.1 304 58.2 304 68.1V121.2C304 131.2 295.9 139.2 286 139.2H262.7C252.7 139.2 244.7 147.3 244.7 157.3Z" stroke="#1E1F20" stroke-width="0.6" stroke-miterlimit="10"/>
<path d="M228.1 173.9V197.2C228.1 207.2 236.2 215.2 246.1 215.2H269.4C279.4 215.2 287.4 223.3 287.4 233.2V286C287.4 296 279.3 304 269.4 304H68.0996C58.0996 304 50.0996 295.9 50.0996 286V84.7C50.0996 74.7 58.1996 66.7 68.0996 66.7H269.4C279.4 66.7 287.4 74.8 287.4 84.7V137.8C287.4 147.8 279.3 155.8 269.4 155.8H246.1C236.1 155.8 228.1 163.9 228.1 173.9Z" stroke="#1E1F20" stroke-width="0.6" stroke-miterlimit="10"/>
<path d="M211.5 190.5V213.7C211.5 223.7 219.6 231.7 229.5 231.7H252.8C262.8 231.7 270.8 239.8 270.8 249.7V302.5C270.8 312.5 262.7 320.5 252.8 320.5H51.5C41.5 320.5 33.5 312.4 33.5 302.5V101.3C33.5 91.3 41.6 83.3 51.5 83.3H252.8C262.8 83.3 270.8 91.4 270.8 101.3V154.4C270.8 164.4 262.7 172.4 252.8 172.4H229.5C219.5 172.4 211.5 180.5 211.5 190.5Z" stroke="#1E1F20" stroke-width="0.6" stroke-miterlimit="10"/>
<path d="M194.899 207.1V230.4C194.899 240.4 202.999 248.4 212.899 248.4H236.199C246.199 248.4 254.199 256.5 254.199 266.4V319.2C254.199 329.2 246.099 337.2 236.199 337.2H34.8994C24.8994 337.2 16.8994 329.1 16.8994 319.2V117.9C16.8994 107.9 24.9994 99.9 34.8994 99.9H236.199C246.199 99.9 254.199 108 254.199 117.9V171C254.199 181 246.099 189 236.199 189H212.899C202.899 189 194.899 197.1 194.899 207.1Z" stroke="#1E1F20" stroke-width="0.6" stroke-miterlimit="10"/>
<path d="M178.3 223.7V247C178.3 257 186.4 265 196.3 265H219.6C229.6 265 237.6 273.1 237.6 283V335.8C237.6 345.8 229.5 353.8 219.6 353.8H18.2998C8.2998 353.8 0.299805 345.7 0.299805 335.8V134.5C0.299805 124.5 8.39981 116.5 18.2998 116.5H219.6C229.6 116.5 237.6 124.6 237.6 134.5V187.6C237.6 197.6 229.5 205.6 219.6 205.6H196.3C186.3 205.6 178.3 213.7 178.3 223.7Z" stroke="#1E1F20" stroke-width="0.6" stroke-miterlimit="10"/>
</svg>
