<svg width="355" height="355" viewBox="0 0 355 355" fill="none" xmlns="http://www.w3.org/2000/svg">
<path d="M194.9 59.2H276.9C286.8 59.2 294.8 67.2001 294.8 77.1001V159.1C294.8 169 286.8 177 276.9 177H194.9C185 177 177 169 177 159.1V77.1001C177 67.2001 185 59.2 194.9 59.2ZM353.8 218.1V18.2001C353.8 8.30005 345.8 0.300049 335.9 0.300049H136C126.1 0.300049 118.1 8.30005 118.1 18.2001V218.1C118.1 228 126.1 236 136 236H335.9C345.8 236 353.8 227.9 353.8 218.1Z" stroke="#1E1F20" stroke-width="0.6" stroke-miterlimit="10"/>
<path d="M260.1 193.9H178.1C168.2 193.9 160.2 185.9 160.2 176V94.0001C160.2 84.1001 168.2 76.1001 178.1 76.1001H260.1C270 76.1001 278 84.1001 278 94.0001V176C278 185.9 270 193.9 260.1 193.9ZM101.3 35.0001V234.9C101.3 244.8 109.3 252.8 119.2 252.8H319.1C329 252.8 337 244.8 337 234.9V35.0001C337 25.1001 329 17.1001 319.1 17.1001H119.2C109.3 17.1001 101.3 25.1001 101.3 35.0001Z" stroke="#1E1F20" stroke-width="0.6" stroke-miterlimit="10"/>
<path d="M243.299 210.7H161.299C151.399 210.7 143.399 202.7 143.399 192.8V110.8C143.399 100.9 151.399 92.9 161.299 92.9H243.299C253.199 92.9 261.199 100.9 261.199 110.8V192.8C261.199 202.7 253.199 210.7 243.299 210.7ZM84.3994 51.8V251.7C84.3994 261.6 92.3994 269.6 102.299 269.6H302.199C312.099 269.6 320.099 261.6 320.099 251.7V51.8C320.099 41.9 312.099 33.9 302.199 33.9H102.299C92.3994 33.9 84.3994 41.9 84.3994 51.8Z" stroke="#1E1F20" stroke-width="0.6" stroke-miterlimit="10"/>
<path d="M226.5 227.5H144.5C134.6 227.5 126.6 219.5 126.6 209.6V127.6C126.6 117.7 134.6 109.7 144.5 109.7H226.5C236.4 109.7 244.4 117.7 244.4 127.6V209.6C244.4 219.5 236.4 227.5 226.5 227.5ZM67.5996 68.7V268.6C67.5996 278.5 75.5996 286.5 85.4996 286.5H285.4C295.3 286.5 303.3 278.5 303.3 268.6V68.7C303.3 58.8 295.3 50.8 285.4 50.8H85.4996C75.5996 50.8 67.5996 58.8 67.5996 68.7Z" stroke="#1E1F20" stroke-width="0.6" stroke-miterlimit="10"/>
<path d="M209.6 244.4H127.6C117.7 244.4 109.7 236.4 109.7 226.5V144.5C109.7 134.6 117.7 126.6 127.6 126.6H209.6C219.5 126.6 227.5 134.6 227.5 144.5V226.5C227.5 236.4 219.5 244.4 209.6 244.4ZM50.7998 85.5001V285.4C50.7998 295.3 58.7998 303.3 68.6998 303.3H268.6C278.5 303.3 286.5 295.3 286.5 285.4V85.5001C286.5 75.6001 278.5 67.6001 268.6 67.6001H68.6998C58.7998 67.6001 50.7998 75.6001 50.7998 85.5001Z" stroke="#1E1F20" stroke-width="0.6" stroke-miterlimit="10"/>
<path d="M192.799 261.2H110.799C100.899 261.2 92.8994 253.2 92.8994 243.3V161.3C92.8994 151.4 100.899 143.4 110.799 143.4H192.799C202.699 143.4 210.699 151.4 210.699 161.3V243.3C210.699 253.2 202.699 261.2 192.799 261.2ZM33.8994 102.3V302.2C33.8994 312.1 41.8994 320.1 51.7994 320.1H251.699C261.599 320.1 269.599 312.1 269.599 302.2V102.3C269.599 92.4 261.599 84.4 251.699 84.4H51.7994C41.8994 84.4 33.8994 92.5 33.8994 102.3Z" stroke="#1E1F20" stroke-width="0.6" stroke-miterlimit="10"/>
<path d="M176 278H93.9996C84.0996 278 76.0996 270 76.0996 260.1V178.1C76.0996 168.2 84.0996 160.2 93.9996 160.2H176C185.9 160.2 193.9 168.2 193.9 178.1V260.1C193.9 270 185.8 278 176 278ZM17.0996 119.2V319.1C17.0996 329 25.0996 337 34.9996 337H234.9C244.8 337 252.8 329 252.8 319.1V119.2C252.8 109.3 244.8 101.3 234.9 101.3H34.9996C25.0996 101.3 17.0996 109.3 17.0996 119.2Z" stroke="#1E1F20" stroke-width="0.6" stroke-miterlimit="10"/>
<path d="M159.1 294.9H77.0998C67.1998 294.9 59.1998 286.9 59.1998 277V195C59.1998 185.1 67.1998 177.1 77.0998 177.1H159.1C169 177.1 177 185.1 177 195V277C177 286.9 169 294.9 159.1 294.9ZM0.299805 136V335.9C0.299805 345.8 8.29983 353.8 18.1998 353.8H218C227.9 353.8 235.9 345.8 235.9 335.9V136C235.9 126.1 227.9 118.1 218 118.1H18.1998C8.29983 118.1 0.299805 126.1 0.299805 136Z" stroke="#1E1F20" stroke-width="0.6" stroke-miterlimit="10"/>
</svg>
