<svg width="442" height="349" viewBox="0 0 442 349" fill="none" xmlns="http://www.w3.org/2000/svg">
<path d="M165.1 185.2V22.5C165.1 10.3 175 0.300049 187.3 0.300049H418.9C431.1 0.300049 441.1 10.2 441.1 22.5V254.1C441.1 266.3 431.2 276.3 418.9 276.3H256.3C244.1 276.3 234.1 266.4 234.1 254.1V229.4C234.1 217.2 224.2 207.2 211.9 207.2H187.2C175.1 207.3 165.1 197.4 165.1 185.2Z" stroke="#1E1F20" stroke-width="0.6" stroke-miterlimit="10"/>
<path d="M141.6 195.5V32.9C141.6 20.7 151.5 10.7 163.8 10.7H395.4C407.6 10.7 417.6 20.6 417.6 32.9V264.5C417.6 276.7 407.7 286.7 395.4 286.7H232.7C220.5 286.7 210.5 276.8 210.5 264.5V239.8C210.5 227.6 200.6 217.6 188.3 217.6H163.6C151.5 217.7 141.6 207.7 141.6 195.5Z" stroke="#1E1F20" stroke-width="0.6" stroke-miterlimit="10"/>
<path d="M118 205.8V43.2C118 31 127.9 21 140.2 21H371.8C384 21 394 30.9 394 43.2V274.8C394 287 384.1 297 371.8 297H209.2C197 297 187 287.1 187 274.8V250.1C187 237.9 177.1 227.9 164.8 227.9H140.1C128 228 118 218.1 118 205.8Z" stroke="#1E1F20" stroke-width="0.6" stroke-miterlimit="10"/>
<path d="M94.5 216.2V53.5C94.5 41.3 104.4 31.3 116.7 31.3H348.3C360.5 31.3 370.5 41.2 370.5 53.5V285.1C370.5 297.3 360.6 307.3 348.3 307.3H185.7C173.5 307.3 163.5 297.4 163.5 285.1V260.4C163.5 248.2 153.6 238.2 141.3 238.2H116.6C104.4 238.4 94.5 228.4 94.5 216.2Z" stroke="#1E1F20" stroke-width="0.6" stroke-miterlimit="10"/>
<path d="M71 226.5V63.9C71 51.7 80.9 41.7 93.2 41.7H324.8C337 41.7 347 51.6 347 63.9V295.5C347 307.7 337.1 317.7 324.8 317.7H162.1C149.9 317.7 139.9 307.8 139.9 295.5V270.8C139.9 258.6 130 248.6 117.7 248.6H93C80.9 248.7 71 238.8 71 226.5Z" stroke="#1E1F20" stroke-width="0.6" stroke-miterlimit="10"/>
<path d="M47.3994 236.9V74.2C47.3994 62 57.2994 52 69.5994 52H301.199C313.399 52 323.399 61.9 323.399 74.2V305.8C323.399 318 313.499 328 301.199 328H138.599C126.399 328 116.399 318.1 116.399 305.8V281.1C116.399 268.9 106.499 258.9 94.1994 258.9H69.4994C57.2994 259.1 47.3994 249.1 47.3994 236.9Z" stroke="#1E1F20" stroke-width="0.6" stroke-miterlimit="10"/>
<path d="M23.8994 247.2V84.6001C23.8994 72.4001 33.7994 62.4001 46.0994 62.4001H277.699C289.899 62.4001 299.899 72.3001 299.899 84.6001V316.2C299.899 328.4 289.999 338.4 277.699 338.4H114.999C102.799 338.4 92.7994 328.5 92.7994 316.2V291.5C92.7994 279.3 82.8994 269.3 70.5994 269.3H45.8994C33.7994 269.4 23.8994 259.5 23.8994 247.2Z" stroke="#1E1F20" stroke-width="0.6" stroke-miterlimit="10"/>
<path d="M0.299805 257.6V94.9C0.299805 82.7 10.1998 72.7 22.4998 72.7H254.1C266.3 72.7 276.3 82.6 276.3 94.9V326.5C276.3 338.7 266.4 348.7 254.1 348.7H91.4998C79.2998 348.7 69.2998 338.8 69.2998 326.5V301.8C69.2998 289.6 59.3998 279.6 47.0998 279.6H22.3998C10.1998 279.7 0.299805 269.8 0.299805 257.6Z" stroke="#1E1F20" stroke-width="0.6" stroke-miterlimit="10"/>
</svg>
